<?xml version="1.0" standalone="no"?>
<!DOCTYPE svg PUBLIC "-//W3C//DTD SVG 1.1//EN" "http://www.w3.org/Graphics/SVG/1.1/DTD/svg11.dtd" >
<svg xmlns="http://www.w3.org/2000/svg" xmlns:xlink="http://www.w3.org/1999/xlink" version="1.1">
<metadata>
Created by FontForge 20170731 at Sat Sep 15 13:03:27 2018
 By Aleksey,,,
Copyright (c) 2014 by JT Types Ltd. All rights reserved.
</metadata>
<defs>
<font id="PembrokeWebMedium" horiz-adv-x="580" >
  <font-face 
    font-family="."
    font-weight="500"
    font-stretch="normal"
    units-per-em="1000"
    panose-1="2 0 0 0 0 0 0 0 0 0"
    ascent="750"
    descent="-250"
    x-height="484"
    cap-height="650"
    bbox="-181 -206 1093 940"
    underline-thickness="30"
    underline-position="-170"
    unicode-range="U+000D-FB02"
  />
<missing-glyph horiz-adv-x="670" 
d="M90 695h490v-695h-490v695zM303 224l4 63q41 5 75.5 18t60 34t40 50.5t14.5 66.5q0 43 -17 73t-45 49t-63.5 28t-71.5 9q-32 0 -60.5 -4.5t-51.5 -11.5v-72q20 5 46.5 10t58.5 5q53 0 86 -22t33 -68q0 -51 -43 -77.5t-134 -26.5l8 -124h60zM216 114q0 -25 17 -40.5
t40 -15.5t40 15.5t17 40.5t-17 40.5t-40 15.5t-40 -15.5t-17 -40.5z" />
    <glyph glyph-name=".notdef" horiz-adv-x="670" 
d="M90 695h490v-695h-490v695zM303 224l4 63q41 5 75.5 18t60 34t40 50.5t14.5 66.5q0 43 -17 73t-45 49t-63.5 28t-71.5 9q-32 0 -60.5 -4.5t-51.5 -11.5v-72q20 5 46.5 10t58.5 5q53 0 86 -22t33 -68q0 -51 -43 -77.5t-134 -26.5l8 -124h60zM216 114q0 -25 17 -40.5
t40 -15.5t40 15.5t17 40.5t-17 40.5t-40 15.5t-40 -15.5t-17 -40.5z" />
    <glyph glyph-name=".null" horiz-adv-x="0" 
 />
    <glyph glyph-name=".null" horiz-adv-x="0" 
 />
    <glyph glyph-name="nonmarkingreturn" unicode="&#xd;" horiz-adv-x="210" 
 />
    <glyph glyph-name="space" unicode=" " horiz-adv-x="210" 
 />
    <glyph glyph-name="exclam" unicode="!" horiz-adv-x="285" 
d="M142 -5q-31 0 -51.5 18.5t-20.5 48.5q0 29 20.5 48t51.5 19q32 0 52.5 -19t20.5 -48q0 -30 -20.5 -48.5t-52.5 -18.5zM85 650h115l-13 -463h-89z" />
    <glyph glyph-name="quotedbl" unicode="&#x22;" horiz-adv-x="474" 
d="M75 650h106v-302h-106v302zM293 650h106v-302h-106v302z" />
    <glyph glyph-name="numbersign" unicode="#" horiz-adv-x="700" 
d="M149 158h-109v87h129l36 160h-120v87h140l36 158h84l-36 -158h157l36 158h85l-36 -158h109v-87h-129l-36 -160h120v-87h-140l-36 -158h-84l36 158h-157l-36 -158h-85zM411 245l36 160h-158l-36 -160h158z" />
    <glyph glyph-name="dollar" unicode="$" horiz-adv-x="566" 
d="M254 7q-84 3 -138 26.5t-87 54.5l63 78q27 -25 66 -42t96 -19v182q-44 9 -81.5 24t-65.5 37t-43.5 52.5t-15.5 71.5q0 76 56 120.5t150 50.5v61h65v-62q63 -6 110 -28t76 -50l-63 -78q-25 21 -54.5 37t-69.5 21v-163q40 -9 78.5 -22.5t68 -35.5t47.5 -54t18 -78
q0 -39 -15.5 -70.5t-43 -54.5t-66.5 -37.5t-86 -18.5v-85h-65v82zM318 106q47 5 75 25.5t28 57.5q0 35 -27 55t-76 31v-169zM254 546q-48 -3 -72.5 -22.5t-24.5 -48.5t21.5 -48.5t75.5 -32.5v152z" />
    <glyph glyph-name="percent" unicode="%" horiz-adv-x="749" 
d="M550 650l50 -34l-401 -616l-50 34zM173 319q-64 0 -103 38.5t-39 130.5t39 130t103 38q31 0 57.5 -9t45 -29t29 -52t10.5 -78t-10.5 -78t-29 -52.5t-45 -29.5t-57.5 -9zM173 393q13 0 23 4t17 14.5t10.5 29t3.5 47.5t-3.5 47.5t-10.5 29t-17 14.5t-23 4t-23.5 -4
t-17.5 -14.5t-10.5 -29t-3.5 -47.5t3.5 -47.5t10.5 -29t17.5 -14.5t23.5 -4zM576 -6q-64 0 -103 38.5t-39 130.5t39 130t103 38q31 0 57.5 -9t45 -29t29 -52t10.5 -78t-10.5 -78t-29 -52.5t-45 -29.5t-57.5 -9zM576 68q13 0 23 4t17 14.5t10.5 29t3.5 47.5t-3.5 47.5
t-10.5 29t-17 14.5t-23 4t-23.5 -4t-17.5 -14.5t-10.5 -29t-3.5 -47.5t3.5 -47.5t10.5 -29t17.5 -14.5t23.5 -4z" />
    <glyph glyph-name="ampersand" unicode="&#x26;" horiz-adv-x="704" 
d="M263 -9q-47 0 -86 12.5t-67.5 35.5t-44.5 56t-16 74q0 63 36.5 106.5t96.5 72.5q-39 37 -59.5 74.5t-20.5 80.5q0 35 14.5 64t40.5 49.5t63.5 31.5t82.5 11q44 0 80.5 -11t62.5 -31t40.5 -47.5t14.5 -59.5t-12.5 -59.5t-32.5 -50t-47 -40.5t-55 -32l119 -119q29 36 56 77
t53 86l91 -54q-28 -46 -59.5 -92.5t-68.5 -87.5l139 -138h-152l-68 68q-45 -35 -94.5 -56t-106.5 -21zM271 85q33 0 64 13.5t59 38.5l-144 145q-35 -17 -58.5 -42.5t-23.5 -63.5q0 -41 28.5 -66t74.5 -25zM286 391q16 7 34 17t32.5 23t24 29t9.5 37q0 32 -22.5 50.5
t-59.5 18.5q-38 0 -60.5 -18.5t-22.5 -50.5q0 -12 3 -23t10.5 -23t20 -26.5t31.5 -33.5z" />
    <glyph glyph-name="quotesingle" unicode="'" horiz-adv-x="256" 
d="M75 650h106v-302h-106v302z" />
    <glyph glyph-name="parenleft" unicode="(" horiz-adv-x="427" 
d="M343 -177q-51 33 -98.5 74.5t-85 93.5t-60 116t-22.5 141t22.5 141t60 116t85 93.5t98.5 74.5l53 -73q-42 -30 -79.5 -66t-65 -79.5t-43.5 -95t-16 -111.5t16 -111.5t43.5 -95t65 -79.5t79.5 -66z" />
    <glyph glyph-name="parenright" unicode=")" horiz-adv-x="427" 
d="M31 -104q42 30 79 66t65 79.5t44 95t16 111.5t-16 111.5t-44 95t-65 79.5t-79 66l52 73q51 -33 99 -74.5t85.5 -93.5t60 -116t22.5 -141t-22.5 -141t-60 -116t-85.5 -93.5t-99 -74.5z" />
    <glyph glyph-name="asterisk" unicode="*" horiz-adv-x="489" 
d="M75 428l121 50l-121 50l42 72l103 -80l-17 130h83l-17 -130l103 80l42 -72l-121 -50l121 -50l-42 -72l-103 80l17 -130h-83l17 130l-103 -80z" />
    <glyph glyph-name="plus" unicode="+" 
d="M56 321h187v187h94v-187h187v-94h-187v-187h-94v187h-187v94z" />
    <glyph glyph-name="comma" unicode="," horiz-adv-x="258" 
d="M58 -128q24 29 38 53t14 51q0 31 -16.5 50t-45.5 38l66 88q43 -22 74.5 -61.5t31.5 -93.5q0 -26 -6.5 -49t-19.5 -44.5t-31 -43t-42 -45.5z" />
    <glyph glyph-name="hyphen" unicode="-" horiz-adv-x="369" 
d="M40 324h289v-103h-289v103z" />
    <glyph glyph-name="hyphen" unicode="&#xad;" horiz-adv-x="369" 
d="M40 324h289v-103h-289v103z" />
    <glyph glyph-name="period" unicode="." horiz-adv-x="258" 
d="M129 -6q-32 0 -53.5 21t-21.5 52q0 32 21.5 53t53.5 21t53.5 -21t21.5 -53q0 -31 -21.5 -52t-53.5 -21z" />
    <glyph glyph-name="slash" unicode="/" horiz-adv-x="357" 
d="M268 713h87l-304 -879h-87z" />
    <glyph glyph-name="zero" unicode="0" horiz-adv-x="619" 
d="M310 -9q-61 0 -108.5 19.5t-80.5 60t-50.5 103.5t-17.5 151q0 175 67.5 254.5t189.5 79.5q121 0 188.5 -79.5t67.5 -254.5q0 -88 -17.5 -151t-50.5 -103.5t-80.5 -60t-107.5 -19.5zM310 91q35 0 61 12t42.5 40t24.5 72.5t8 109.5t-8 109.5t-24.5 72.5t-42.5 40t-61 12
t-61 -12t-43 -40t-25 -72.5t-8 -109.5t8 -109.5t25 -72.5t43 -40t61 -12z" />
    <glyph glyph-name="one" unicode="1" horiz-adv-x="416" 
d="M199 546h-157v104h274v-650h-117v546z" />
    <glyph glyph-name="two" unicode="2" horiz-adv-x="538" 
d="M44 37q57 52 112.5 104.5t100 105t72 104t27.5 101.5q0 51 -30.5 76.5t-78.5 25.5t-83.5 -24t-58.5 -64l-79 67q15 25 36.5 47.5t50 40t63.5 28t77 10.5q55 0 97.5 -15.5t71 -42t43 -62.5t14.5 -77q0 -50 -21 -98.5t-54 -94t-74.5 -88t-83.5 -79.5h240v-102h-442v37z" />
    <glyph glyph-name="three" unicode="3" horiz-adv-x="514" 
d="M69 145q53 -55 147 -55q56 0 92.5 23.5t36.5 70.5q0 53 -47 80t-140 25v89q86 -2 130.5 27t44.5 75q0 35 -27.5 57t-77.5 22q-45 0 -81 -15.5t-65 -42.5l-60 77q41 38 93.5 59.5t121.5 21.5q46 0 86 -11.5t69.5 -33.5t46 -52.5t16.5 -69.5q0 -32 -9.5 -56.5t-26.5 -43.5
t-40 -32t-50 -22q64 -13 100.5 -54.5t36.5 -104.5q0 -38 -16.5 -72.5t-47.5 -60t-76 -40.5t-102 -15q-74 0 -124.5 20t-84.5 54z" />
    <glyph glyph-name="four" unicode="4" horiz-adv-x="619" 
d="M374 265v220l-193 -220h193zM15 203l387 450h86v-387h119v-94h-119v-172h-115v172h-358v31z" />
    <glyph glyph-name="five" unicode="5" horiz-adv-x="524" 
d="M64 146q25 -26 61 -40.5t82 -14.5q64 0 99.5 31t35.5 76q0 30 -14.5 52t-46.5 37.5t-84 24t-128 10.5l89 328h323v-103h-240l-41 -146q133 -11 198.5 -61.5t65.5 -144.5q0 -43 -17.5 -80.5t-50 -65t-78.5 -43t-103 -15.5q-71 0 -121.5 20t-83.5 54z" />
    <glyph glyph-name="six" unicode="6" horiz-adv-x="595" 
d="M303 88q31 0 55 10.5t40.5 28t25 40.5t8.5 48q0 54 -32.5 85.5t-101.5 31.5q-24 0 -47 -4t-41 -14.5t-28.5 -29.5t-10.5 -49q0 -75 35.5 -111t96.5 -36zM301 -9q-58 0 -104.5 17.5t-79 51t-50 81.5t-17.5 109q0 69 24.5 130.5t68.5 113t106.5 93.5t138.5 72l47 -94
q-79 -35 -138 -75.5t-97 -97.5q22 15 55.5 24.5t75.5 9.5q49 0 90 -15t70.5 -42t46 -65.5t16.5 -84.5q0 -50 -19 -92t-52.5 -72t-80 -47t-101.5 -17z" />
    <glyph glyph-name="seven" unicode="7" horiz-adv-x="507" 
d="M337 546h-327v104h489v-27l-312 -623h-125z" />
    <glyph glyph-name="eight" unicode="8" horiz-adv-x="585" 
d="M287 -9q-50 0 -93.5 12.5t-75 36t-49.5 57t-18 75.5q0 30 10.5 54.5t28 44.5t41 35t49.5 26q-24 12 -46 27t-38 34.5t-25.5 43.5t-9.5 54q0 37 16 68t45.5 53t71.5 34.5t95 12.5t96.5 -12t74 -34.5t47 -54t16.5 -70.5q0 -27 -9.5 -49t-25.5 -40t-37 -32.5t-44 -25.5
q25 -12 48 -27t40.5 -34.5t27.5 -44t10 -55.5q0 -47 -19.5 -82t-53.5 -59t-78.5 -36t-94.5 -12zM292 86q51 0 86 21.5t35 68.5q0 21 -10.5 37.5t-28 30t-41 24t-49.5 21.5q-23 -10 -44 -20.5t-37 -24t-25 -30t-9 -37.5q0 -23 10 -40t26.5 -28t39 -17t47.5 -6zM304 384
q20 9 38.5 18t32.5 20.5t22 26.5t8 35q0 42 -32 61.5t-83 19.5q-50 0 -79.5 -19t-29.5 -55q0 -20 10 -35.5t26.5 -28t39 -23t47.5 -20.5z" />
    <glyph glyph-name="nine" unicode="9" horiz-adv-x="595" 
d="M296 318q24 0 47 4t41 14.5t28.5 29.5t10.5 49q0 75 -35.5 111t-95.5 36q-31 0 -55.5 -10.5t-41 -28t-25 -40.5t-8.5 -48q0 -54 32.5 -85.5t101.5 -31.5zM160 84q81 35 140.5 76t96.5 99q-22 -16 -56 -25.5t-78 -9.5q-48 0 -89 15t-70.5 42t-46 65t-16.5 85q0 50 19 92
t52.5 72t80 47t101.5 17q58 0 104 -17.5t78.5 -51t50 -81.5t17.5 -109q0 -69 -24 -130.5t-68.5 -113t-106.5 -93.5t-138 -72z" />
    <glyph glyph-name="colon" unicode=":" horiz-adv-x="287" 
d="M143 -6q-32 0 -53.5 21t-21.5 52q0 32 21.5 53t53.5 21t53.5 -21t21.5 -53q0 -31 -21.5 -52t-53.5 -21zM143 287q-32 0 -53.5 21t-21.5 53q0 31 21.5 52t53.5 21t53.5 -21t21.5 -52q0 -32 -21.5 -53t-53.5 -21z" />
    <glyph glyph-name="semicolon" unicode=";" horiz-adv-x="287" 
d="M143 287q-32 0 -53.5 21t-21.5 53q0 31 21.5 52t53.5 21t53.5 -21t21.5 -52q0 -32 -21.5 -53t-53.5 -21zM74 -128q25 29 39 53t14 51q0 31 -17 50t-45 38l66 88q43 -22 74.5 -61.5t31.5 -93.5q0 -26 -7 -49t-19.5 -44.5t-31 -43t-41.5 -45.5z" />
    <glyph glyph-name="less" unicode="&#x3c;" 
d="M58 288l395 230l48 -90l-275 -155l275 -156l-48 -90l-395 231v30z" />
    <glyph glyph-name="equal" unicode="=" 
d="M62 224h456v-91h-456v91zM62 416h456v-92h-456v92z" />
    <glyph glyph-name="greater" unicode="&#x3e;" 
d="M79 117l275 156l-275 155l48 90l395 -230v-30l-395 -231z" />
    <glyph glyph-name="question" unicode="?" horiz-adv-x="424" 
d="M147 -5q-31 0 -51.5 18.5t-20.5 48.5q0 29 20.5 48t51.5 19t51.5 -19t20.5 -48q0 -30 -20.5 -48.5t-51.5 -18.5zM94 335q97 0 148 30t51 90q0 52 -37.5 79.5t-103.5 27.5q-32 0 -59.5 -5t-47.5 -10v97q23 6 53.5 10.5t68.5 4.5q51 0 95.5 -12t77.5 -36.5t52.5 -61
t19.5 -84.5q0 -44 -16 -79t-45 -60.5t-68.5 -42t-87.5 -22.5l-4 -74h-88z" />
    <glyph glyph-name="at" unicode="@" horiz-adv-x="974" 
d="M448 -135q-84 0 -150.5 25t-112.5 70.5t-70.5 108.5t-24.5 139q0 94 35.5 171t95.5 132.5t139 86t165 30.5q81 0 149 -23t117.5 -65t77.5 -101t28 -130q0 -66 -21.5 -114.5t-55.5 -80t-76.5 -47t-84.5 -15.5q-44 0 -71.5 14t-34.5 42q-23 -22 -56.5 -39t-77.5 -17
q-63 0 -101.5 41.5t-38.5 108.5q0 48 17 91t48 76t73 52.5t93 19.5q39 0 72.5 -12.5t58.5 -32.5l52 35h29l-68 -273q-3 -11 -3 -19q0 -26 35 -26q31 0 59 14.5t49 41t33 63.5t12 82q0 58 -23.5 106t-65.5 82.5t-99.5 53t-125.5 18.5q-75 0 -143 -26.5t-120 -75t-82.5 -116
t-30.5 -148.5q0 -66 20.5 -119.5t59.5 -91t95 -58t127 -20.5q63 0 117 16t97 45l30 -46q-51 -33 -113 -51t-134 -18zM459 146q14 0 29.5 4t30 12.5t25.5 20.5t15 28l23 91q3 13 -2.5 21.5t-15.5 13.5t-22.5 7.5t-23.5 2.5q-32 0 -56 -13t-39.5 -32.5t-23 -43.5t-7.5 -46
q0 -31 16 -48.5t51 -17.5z" />
    <glyph glyph-name="A" unicode="A" horiz-adv-x="687" 
d="M277 650h127l285 -650h-133l-81 189h-266l-80 -189h-132zM436 291l-94 223l-95 -223h189z" />
    <glyph glyph-name="B" unicode="B" horiz-adv-x="624" 
d="M78 650h239q117 0 175.5 -41.5t58.5 -121.5q0 -53 -26.5 -90t-74.5 -59q60 -17 91.5 -55.5t31.5 -96.5q0 -94 -72.5 -140t-203.5 -46h-219v650zM291 101q44 0 74 6.5t48 18.5t26 29.5t8 40.5q0 85 -113 85h-135v-180h92zM315 378q54 0 82.5 25.5t28.5 67.5q0 41 -28 59.5
t-92 18.5h-107v-171h116z" />
    <glyph glyph-name="C" unicode="C" horiz-adv-x="661" 
d="M410 -9q-82 0 -148 25.5t-112.5 70t-71.5 105t-25 131.5q0 72 25 133.5t71.5 106.5t112 70.5t145.5 25.5q49 0 97.5 -8t99.5 -28v-111q-45 17 -88 27.5t-98 10.5q-57 0 -101.5 -17t-75 -46.5t-46.5 -70.5t-16 -89q0 -49 16 -90.5t46.5 -72t76 -47.5t105.5 -17
q52 0 95 10.5t88 27.5v-111q-48 -19 -98 -27.5t-98 -8.5z" />
    <glyph glyph-name="D" unicode="D" horiz-adv-x="726" 
d="M78 650h236q87 0 149 -19.5t106 -55.5q51 -42 77.5 -103.5t26.5 -138.5q0 -76 -26.5 -138.5t-75.5 -107.5q-45 -42 -109.5 -64.5t-155.5 -22.5h-228v650zM308 106q63 0 105 14.5t71 40.5q32 30 48.5 73t16.5 94q0 112 -66 168q-28 24 -70 36t-106 12h-108v-438h109z" />
    <glyph glyph-name="E" unicode="E" 
d="M78 650h437v-105h-316v-168h232v-101h-232v-171h363v-105h-484v650z" />
    <glyph glyph-name="F" unicode="F" horiz-adv-x="533" 
d="M78 650h437v-106h-315v-183h231v-106h-231v-255h-122v650z" />
    <glyph glyph-name="G" unicode="G" horiz-adv-x="712" 
d="M423 -9q-86 0 -154.5 24.5t-116.5 69t-73.5 105.5t-25.5 133q0 73 25.5 135t73.5 106.5t117.5 69.5t156.5 25q56 0 110.5 -8t105.5 -28v-109q-48 17 -98 27.5t-113 10.5q-62 0 -109 -16.5t-79 -46t-48.5 -71t-16.5 -91.5q0 -51 16.5 -93.5t48.5 -72.5t79 -46.5t109 -16.5
q23 0 45.5 2.5t42.5 7.5v149h-125v97h240v-327q-51 -20 -105.5 -28t-105.5 -8z" />
    <glyph glyph-name="H" unicode="H" horiz-adv-x="705" 
d="M78 650h122v-269h305v269h122v-650h-122v272h-305v-272h-122v650z" />
    <glyph glyph-name="I" unicode="I" horiz-adv-x="278" 
d="M78 650h122v-650h-122v650z" />
    <glyph glyph-name="J" unicode="J" horiz-adv-x="483" 
d="M68 147q24 -22 54 -34.5t72 -12.5q38 0 65.5 14.5t27.5 51.5v484h122v-504q0 -38 -16 -67t-44 -48.5t-66 -29.5t-82 -10q-69 0 -116 18.5t-74 42.5z" />
    <glyph glyph-name="K" unicode="K" horiz-adv-x="625" 
d="M78 650h122v-286l248 286h150l-287 -316l314 -334h-157l-250 268h-18v-268h-122v650z" />
    <glyph glyph-name="L" unicode="L" horiz-adv-x="568" 
d="M78 650h122v-543h360v-107h-482v650z" />
    <glyph glyph-name="M" unicode="M" horiz-adv-x="850" 
d="M88 650h175l161 -393l160 393h175l15 -650h-123l-10 506l-197 -476h-42l-196 476l-8 -506h-122z" />
    <glyph glyph-name="N" unicode="N" horiz-adv-x="724" 
d="M78 650h115l332 -399v399h121v-657h-49l-398 472v-465h-121v650z" />
    <glyph glyph-name="O" unicode="O" horiz-adv-x="779" 
d="M389 -9q-74 0 -136 25t-106.5 69.5t-69 105.5t-24.5 133t25 133.5t69.5 106t106.5 70t136 25.5t136 -25t106.5 -69.5t69 -105.5t24.5 -133t-25 -133.5t-69.5 -106t-106.5 -70t-136 -25.5zM390 100q48 0 87 16.5t66.5 46.5t42.5 71.5t15 90.5t-15 90.5t-42.5 71.5
t-66.5 46.5t-87 16.5t-87 -16.5t-67 -46.5t-43 -71.5t-15 -90.5t15 -90.5t42.5 -71.5t67 -46.5t87.5 -16.5z" />
    <glyph glyph-name="P" unicode="P" horiz-adv-x="595" 
d="M78 650h217q125 0 192 -56.5t67 -155.5q0 -48 -17 -86.5t-50 -66t-81.5 -42.5t-110.5 -15h-95v-228h-122v650zM299 329q68 0 99 29t31 80t-31 79.5t-99 28.5h-99v-217h99z" />
    <glyph glyph-name="Q" unicode="Q" horiz-adv-x="779" 
d="M319 -2q-60 10 -109 38.5t-84 71.5t-54 98t-19 118q0 72 25 133.5t69.5 106t106.5 70t136 25.5t136 -25t106.5 -69.5t69 -105.5t24.5 -133q0 -59 -17 -111.5t-48.5 -94t-75.5 -71t-98 -43.5l148 -85l-71 -91zM390 100q48 0 87 16.5t66.5 46.5t42.5 71.5t15 90.5t-15 90.5
t-42.5 71.5t-66.5 46.5t-87 16.5t-87 -16.5t-67 -46.5t-43 -71.5t-15 -90.5q0 -50 15 -91t42.5 -71t67 -46.5t87.5 -16.5z" />
    <glyph glyph-name="R" unicode="R" horiz-adv-x="639" 
d="M78 650h213q126 0 190.5 -52t64.5 -146q0 -38 -12 -66.5t-32.5 -50.5t-47.5 -36.5t-58 -23.5l246 -275h-156l-222 254h-64v-254h-122v650zM274 355q28 0 54.5 4t47 15t32.5 30.5t12 49.5q0 48 -31 70.5t-98 22.5h-91v-192h74z" />
    <glyph glyph-name="S" unicode="S" horiz-adv-x="547" 
d="M46 141q14 -6 35 -14t47 -15t55.5 -12t61.5 -5q29 0 54 4.5t43 14.5t28.5 26.5t10.5 40.5q0 25 -13.5 42t-35 29.5t-49.5 22.5t-57 21q-30 11 -59 26t-52 36t-37 50.5t-14 70.5q0 43 15.5 76.5t44 56.5t68.5 35t88 12t91.5 -7t84.5 -20v-108q-41 14 -85 22.5t-87 8.5
q-101 0 -101 -70q0 -21 11.5 -35.5t30 -25.5t42 -20t48.5 -19q33 -13 66 -28t60 -37.5t43.5 -55t16.5 -80.5q0 -47 -18.5 -83t-51.5 -60.5t-79 -37t-101 -12.5q-70 0 -123.5 14.5t-81.5 27.5v108z" />
    <glyph glyph-name="T" unicode="T" horiz-adv-x="642" 
d="M260 543h-250v107h622v-107h-250v-543h-122v543z" />
    <glyph glyph-name="U" unicode="U" horiz-adv-x="713" 
d="M73 650h122v-413q0 -28 6.5 -53t24.5 -43.5t49.5 -29.5t81.5 -11q49 0 80.5 11t49.5 29.5t24.5 43.5t6.5 53v413h122v-425q0 -113 -74 -173.5t-211 -60.5t-209.5 60t-72.5 174v425z" />
    <glyph glyph-name="V" unicode="V" horiz-adv-x="632" 
d="M-3 650h138l183 -443l182 443h134l-290 -656h-54z" />
    <glyph glyph-name="W" unicode="W" horiz-adv-x="839" 
d="M-3 650h136l125 -390l113 390h98l118 -393l124 393h131l-233 -656h-53l-136 451l-133 -451h-54z" />
    <glyph glyph-name="X" unicode="X" horiz-adv-x="627" 
d="M237 330l-227 320h147l159 -230l158 230h141l-225 -320l236 -330h-147l-168 241l-167 -241h-142z" />
    <glyph glyph-name="Y" unicode="Y" horiz-adv-x="617" 
d="M248 285l-252 365h144l170 -251l170 251h141l-251 -365v-285h-122v285z" />
    <glyph glyph-name="Z" unicode="Z" horiz-adv-x="586" 
d="M11 25l362 518h-341v107h539v-25l-362 -518h370v-107h-568v25z" />
    <glyph glyph-name="bracketleft" unicode="[" horiz-adv-x="415" 
d="M84 650h294v-84h-188v-636h188v-84h-294v804z" />
    <glyph glyph-name="backslash" unicode="\" horiz-adv-x="357" 
d="M4 713h87l304 -879h-87z" />
    <glyph glyph-name="bracketright" unicode="]" horiz-adv-x="415" 
d="M37 -70h188v636h-188v84h295v-804h-295v84z" />
    <glyph glyph-name="asciicircum" unicode="^" 
d="M275 658h30l223 -362l-90 -48l-148 249l-148 -249l-90 48z" />
    <glyph glyph-name="underscore" unicode="_" horiz-adv-x="433" 
d="M-5 -33h443v-78h-443v78z" />
    <glyph glyph-name="grave" unicode="`" horiz-adv-x="460" 
d="M102 724l98 45l86 -216h-76z" />
    <glyph glyph-name="a" unicode="a" horiz-adv-x="488" 
d="M188 -9q-32 0 -59.5 10.5t-47.5 29.5t-31 45.5t-11 58.5q0 84 70 122t205 38v53q0 26 -12.5 37.5t-42.5 11.5q-32 0 -76 -10t-100 -33l-31 90q41 16 74 25.5t60 14.5t48.5 7t39.5 2q81 0 118 -33t37 -96v-364h-115v59q-17 -26 -46.5 -47t-79.5 -21zM220 79q18 0 34.5 5.5
t30 15t21.5 22.5t8 28v71q-34 -1 -63 -5t-50.5 -13.5t-33.5 -25t-12 -39.5q0 -28 17 -43.5t48 -15.5z" />
    <glyph glyph-name="b" unicode="b" horiz-adv-x="585" 
d="M67 695h115v-246q26 22 62.5 33t76.5 11q52 0 94.5 -18t72.5 -50t46.5 -77.5t16.5 -100.5t-18.5 -101.5t-51.5 -81t-79 -54t-101 -19.5q-48 0 -86.5 17t-65.5 43l-58 -54h-24v698zM292 90q34 0 60 11.5t44 32.5t27 49.5t9 62.5q0 66 -34.5 106.5t-107.5 40.5
q-23 0 -42.5 -4.5t-34.5 -11.5t-23.5 -15t-8.5 -14v-173q0 -42 31 -63.5t80 -21.5z" />
    <glyph glyph-name="c" unicode="c" horiz-adv-x="499" 
d="M287 -9q-57 0 -103.5 18.5t-80 51.5t-52 78.5t-18.5 99.5q0 55 18 101.5t51 80.5t79.5 53t103.5 19q66 0 113 -22.5t79 -62.5l-79 -65q-19 21 -46 35.5t-63 14.5q-64 0 -100.5 -40.5t-36.5 -108.5q0 -66 36.5 -109.5t103.5 -43.5q38 0 66.5 14.5t47.5 35.5l76 -64
q-32 -40 -80.5 -63t-114.5 -23z" />
    <glyph glyph-name="d" unicode="d" horiz-adv-x="589" 
d="M257 -9q-50 0 -91 19t-70.5 53t-46 79.5t-16.5 99.5t17 100t47.5 79.5t74 52.5t97.5 19q35 0 73 -11t65 -34v247h115v-695h-113v61q-27 -34 -66 -52t-86 -18zM288 90q21 0 42.5 5.5t38.5 17t28 28t11 38.5v153q0 15 -10 26t-26 19t-36 12t-41 4q-73 0 -108 -42.5
t-35 -108.5t34 -109t102 -43z" />
    <glyph glyph-name="e" unicode="e" horiz-adv-x="530" 
d="M285 -9q-57 0 -103.5 18t-79.5 50.5t-51 78t-18 101.5q0 55 17 102t48.5 80.5t74.5 52.5t96 19q61 0 104 -21.5t71 -59t40.5 -89t11.5 -111.5h-345q5 -57 40.5 -92.5t98.5 -35.5q42 0 72.5 15t50.5 37l67 -66q-35 -38 -84.5 -58.5t-110.5 -20.5zM378 292
q-4 47 -28.5 77.5t-78.5 30.5q-48 0 -79.5 -30t-39.5 -78h226z" />
    <glyph glyph-name="f" unicode="f" horiz-adv-x="342" 
d="M97 387h-72v97h72v56q0 78 43.5 121t118.5 43q34 0 58.5 -6.5t45.5 -16.5l-26 -91q-17 8 -31 12t-32 4q-26 0 -44 -16t-18 -58v-48h103v-97h-103v-387h-115v387z" />
    <glyph glyph-name="g" unicode="g" horiz-adv-x="589" 
d="M93 -44q82 -37 166 -37q30 0 56.5 5.5t47 17.5t32.5 31.5t12 48.5v58q-27 -32 -65.5 -48.5t-84.5 -16.5q-48 0 -89 17t-71 48t-47 75t-17 97q0 55 18 99.5t50.5 76t77 48.5t98.5 17q43 0 87.5 -13t74.5 -41l55 48h28v-472q0 -44 -18.5 -79.5t-52.5 -60t-82 -37.5
t-106 -13q-66 0 -118 13t-87 28zM288 111q21 0 42.5 6t38.5 17t28 27.5t11 37.5v136q0 15 -10 26t-26 19t-36 12t-40 4q-72 0 -108 -39t-36 -104q0 -63 34 -102.5t102 -39.5z" />
    <glyph glyph-name="h" unicode="h" horiz-adv-x="533" 
d="M67 695h115v-262q22 26 58 43t81 17q71 0 112 -35.5t41 -90.5v-367h-115v333q0 33 -21.5 45.5t-56.5 12.5q-23 0 -41 -5.5t-31 -13t-20 -15.5t-7 -14v-343h-115v695z" />
    <glyph glyph-name="i" unicode="i" horiz-adv-x="248" 
d="M67 484h115v-484h-115v484zM124 555q-30 0 -50 18t-20 47t20 47t50 18q31 0 50.5 -18t19.5 -47t-19.5 -47t-50.5 -18z" />
    <glyph glyph-name="j" unicode="j" horiz-adv-x="248" 
d="M-40 -60q11 -6 26 -10t31 -4q18 0 34 9t16 36v513h115v-514q0 -38 -11.5 -65.5t-31.5 -45t-47.5 -26t-58.5 -8.5q-32 0 -58 6t-46 16zM124 555q-30 0 -50 18t-20 47t20 47t50 18q31 0 50.5 -18t19.5 -47t-19.5 -47t-50.5 -18z" />
    <glyph glyph-name="k" unicode="k" horiz-adv-x="496" 
d="M67 695h115v-401l167 190h142l-195 -211l202 -273h-141l-157 213h-18v-213h-115v695z" />
    <glyph glyph-name="l" unicode="l" horiz-adv-x="248" 
d="M67 695h115v-695h-115v695z" />
    <glyph glyph-name="m" unicode="m" horiz-adv-x="761" 
d="M67 484h115v-51q20 26 53 43t74 17q39 0 71.5 -17t48.5 -49q22 28 58.5 47t81.5 19q27 0 51.5 -8t42.5 -24t28.5 -39t10.5 -53v-369h-115v333q0 58 -61 58q-20 0 -35.5 -5t-26.5 -12.5t-16.5 -15.5t-5.5 -14v-344h-115v333q0 58 -61 58q-20 0 -35.5 -5t-26.5 -12.5
t-16.5 -15.5t-5.5 -14v-344h-115v484z" />
    <glyph glyph-name="n" unicode="n" horiz-adv-x="533" 
d="M67 484h115v-51q22 26 58 43t81 17q71 0 112 -35.5t41 -90.5v-367h-115v333q0 33 -21.5 45.5t-56.5 12.5q-23 0 -41 -5.5t-31 -13t-20 -15.5t-7 -14v-343h-115v484z" />
    <glyph glyph-name="o" unicode="o" horiz-adv-x="583" 
d="M291 -9q-57 0 -104.5 18.5t-81.5 52t-53 79.5t-19 101t19 101t53 79.5t81.5 52t104.5 18.5q58 0 105.5 -18.5t81.5 -52t52.5 -79.5t18.5 -101t-19 -101t-53 -79.5t-81.5 -52t-104.5 -18.5zM291 91q65 0 102 41.5t37 109.5t-37 109.5t-102 41.5q-64 0 -101.5 -41.5
t-37.5 -109.5t37.5 -109.5t101.5 -41.5z" />
    <glyph glyph-name="p" unicode="p" horiz-adv-x="585" 
d="M67 484h115v-38q26 23 62.5 35t76.5 12q52 0 94.5 -18t72.5 -50t46.5 -77.5t16.5 -100.5q0 -57 -18.5 -104t-50.5 -80.5t-76 -52.5t-95 -19q-35 0 -69.5 10.5t-59.5 32.5v-200h-115v650zM290 90q70 0 106 44t36 112q0 66 -34.5 106.5t-107.5 40.5q-23 0 -42.5 -4.5
t-34.5 -11.5t-23.5 -15t-8.5 -14v-193q0 -16 10 -28t25.5 -20.5t35 -12.5t38.5 -4z" />
    <glyph glyph-name="q" unicode="q" horiz-adv-x="589" 
d="M407 54q-27 -30 -65 -46.5t-83 -16.5q-49 0 -90.5 18t-71.5 51t-47 79t-17 101q0 56 17.5 102.5t50 80t77.5 52t100 18.5q43 0 87 -13.5t74 -40.5l55 48h28v-653h-115v220zM288 90q21 0 42.5 5.5t38.5 17t28 28t11 38.5v153q0 15 -10 26t-26 19t-36 12t-40 4
q-74 0 -109 -42.5t-35 -108.5t34 -109t102 -43z" />
    <glyph glyph-name="r" unicode="r" horiz-adv-x="389" 
d="M67 484h115v-69q20 32 50 55t77 23q23 0 44 -5t39 -13l-33 -110q-35 16 -74 16q-25 0 -44.5 -7.5t-32.5 -19t-19.5 -23.5t-6.5 -21v-310h-115v484z" />
    <glyph glyph-name="s" unicode="s" horiz-adv-x="468" 
d="M46 120q11 -5 28.5 -11t38.5 -11.5t44.5 -9t47.5 -3.5q46 0 74.5 13t28.5 45q0 26 -19 39q-16 11 -41 16t-53 10.5t-56 14.5t-49 28q-17 15 -28.5 38.5t-11.5 58.5q0 38 15 65.5t41 45t60.5 26t74.5 8.5q81 0 155 -21v-100q-40 13 -79 20t-74 7q-40 0 -59 -13t-19 -35
q0 -19 13 -30q13 -12 36.5 -17t51 -10.5t56 -13.5t51.5 -26q22 -16 36.5 -41.5t14.5 -66.5q0 -38 -15.5 -67t-43 -48.5t-66.5 -29.5t-87 -10q-51 0 -97 10t-69 20v99z" />
    <glyph glyph-name="t" unicode="t" horiz-adv-x="351" 
d="M91 387h-66v97h66v128h115v-128h112v-97h-112v-260q0 -20 13 -28t32 -8q16 0 31.5 4.5t26.5 10.5l29 -91q-21 -10 -48.5 -17t-61.5 -7q-63 0 -100 30t-37 91v275z" />
    <glyph glyph-name="u" unicode="u" horiz-adv-x="533" 
d="M59 484h115v-323q0 -68 78 -68q43 0 71 20t28 57v314h115v-484h-115v58q-21 -30 -55.5 -48.5t-82.5 -18.5q-69 0 -111.5 38t-42.5 112v343z" />
    <glyph glyph-name="v" unicode="v" horiz-adv-x="496" 
d="M-3 484h129l123 -302l124 302h126l-227 -490h-51z" />
    <glyph glyph-name="w" unicode="w" horiz-adv-x="735" 
d="M-3 484h129l103 -280l93 280h97l90 -279l104 279h125l-209 -490h-51l-110 327l-111 -327h-51z" />
    <glyph glyph-name="x" unicode="x" horiz-adv-x="460" 
d="M158 249l-148 235h130l93 -156l91 156h127l-148 -234l156 -250h-130l-101 171l-100 -171h-127z" />
    <glyph glyph-name="y" unicode="y" horiz-adv-x="496" 
d="M54 -57q14 -8 32 -13t35 -5q26 0 40 13t25 40l9 27l-198 479h129l125 -335l122 335h126l-210 -543q-14 -36 -31.5 -58.5t-38 -35t-42.5 -17.5t-46 -5q-35 0 -63 8t-48 19z" />
    <glyph glyph-name="z" unicode="z" horiz-adv-x="466" 
d="M27 22l230 365h-228v97h402v-22l-230 -365h243v-97h-417v22z" />
    <glyph glyph-name="braceleft" unicode="{" horiz-adv-x="463" 
d="M39 293h27q63 0 85.5 26t22.5 88v50q0 44 13 80t40.5 61t70.5 38.5t104 13.5h24v-84h-16q-24 0 -47 -5t-41 -18.5t-29.5 -36.5t-11.5 -59v-49q0 -38 -7 -63.5t-19.5 -43t-31 -27.5t-41.5 -16q23 -6 41.5 -16t31 -27.5t19.5 -43t7 -63.5v-49q0 -36 11.5 -59t29.5 -36.5
t41 -18.5t47 -5h16v-84h-24q-61 0 -104 13.5t-70.5 38.5t-40.5 61t-13 80v50q0 62 -22.5 88t-85.5 26h-27v90z" />
    <glyph glyph-name="bar" unicode="|" horiz-adv-x="331" 
d="M124 713h83v-879h-83v879z" />
    <glyph glyph-name="braceright" unicode="}" horiz-adv-x="463" 
d="M37 -70h16q24 0 47 5t41 18.5t29.5 36.5t11.5 59v49q0 38 7 63.5t20 43t31 27.5t41 16q-23 6 -41 16t-31 27.5t-20 43t-7 63.5v49q0 36 -11.5 59t-29.5 36.5t-41 18.5t-47 5h-16v84h24q61 0 104 -13.5t70.5 -38.5t40.5 -61t13 -80v-50q0 -62 22.5 -88t85.5 -26h27v-90
h-27q-63 0 -85.5 -26t-22.5 -88v-50q0 -89 -53.5 -141t-174.5 -52h-24v84z" />
    <glyph glyph-name="asciitilde" unicode="~" 
d="M65 187q-2 86 30.5 131.5t94.5 45.5q33 0 60 -13t50.5 -28t43 -28t36.5 -13q25 0 34.5 22t9.5 60h91q2 -87 -30.5 -132.5t-94.5 -45.5q-33 0 -60.5 13t-50.5 28t-42.5 28t-36.5 13q-25 0 -34.5 -21.5t-9.5 -59.5h-91z" />
    <glyph glyph-name="uni00A0" unicode="&#xa0;" horiz-adv-x="210" 
 />
    <glyph glyph-name="exclamdown" unicode="&#xa1;" horiz-adv-x="285" 
d="M98 297h89l13 -463h-115zM142 355q-31 0 -51.5 18.5t-20.5 48.5t20.5 48.5t51.5 18.5q32 0 52.5 -18.5t20.5 -48.5t-20.5 -48.5t-52.5 -18.5z" />
    <glyph glyph-name="cent" unicode="&#xa2;" horiz-adv-x="521" 
d="M206 94q-72 26 -113 87t-41 144q0 55 18 101.5t51 80.5t79.5 53t103.5 19h14q8 0 16 -1l21 75h66l-24 -89q31 -11 55 -28.5t44 -40.5l-75 -63q-11 11 -23 20.5t-27 17.5l-78 -297q5 -1 9 -1h9q39 0 68.5 15.5t49.5 37.5l72 -62q-33 -40 -82 -63t-118 -23h-14q-9 0 -19 2
l-22 -82h-66zM311 484h-6q-67 -1 -104 -43.5t-37 -111.5q0 -46 17.5 -82t52.5 -56z" />
    <glyph glyph-name="sterling" unicode="&#xa3;" horiz-adv-x="541" 
d="M110 263h-69v96h88l28 139q15 75 59.5 118t122.5 43q59 0 101.5 -24.5t74.5 -71.5l-81 -62q-17 24 -37 40t-51 16q-32 0 -51 -19.5t-28 -64.5l-22 -114h133v-96h-152l-33 -167h302v-96h-437z" />
    <glyph glyph-name="currency" unicode="&#xa4;" 
d="M57 159l72 72q-12 20 -19 44t-7 50t7 50t19 44l-72 72l67 67l73 -73q42 25 93 25t93 -25l73 73l67 -67l-72 -72q12 -20 19 -44t7 -50t-7 -50t-19 -44l72 -72l-67 -67l-73 73q-42 -25 -93 -25t-93 25l-73 -73zM290 212q24 0 44.5 9t35.5 24t23.5 35.5t8.5 44.5t-8.5 44.5
t-23.5 35.5t-35.5 24t-44.5 9t-44.5 -9t-35.5 -24t-23.5 -35.5t-8.5 -44.5t8.5 -44.5t23.5 -35.5t35.5 -24t44.5 -9z" />
    <glyph glyph-name="yen" unicode="&#xa5;" horiz-adv-x="601" 
d="M81 177h163v74h-163v80h143l-204 319h129l152 -256l154 256h127l-204 -319h142v-80h-163v-74h163v-81h-163v-96h-113v96h-163v81z" />
    <glyph glyph-name="brokenbar" unicode="&#xa6;" horiz-adv-x="331" 
d="M124 155h83v-321h-83v321zM124 713h83v-321h-83v321z" />
    <glyph glyph-name="section" unicode="&#xa7;" horiz-adv-x="538" 
d="M100 75q28 -22 67 -36t92 -14q48 0 80.5 15t32.5 50q0 27 -25 41t-62.5 23.5t-81 17.5t-81 22.5t-62.5 39.5t-25 69q0 37 21 64t53 44q-22 17 -35.5 40.5t-13.5 58.5t14.5 62.5t41 47t63.5 29.5t82 10q69 0 119 -20t79 -47l-61 -74q-26 20 -58 34.5t-80 14.5
q-46 0 -70.5 -14.5t-24.5 -38.5q0 -27 25 -41t62.5 -23.5t81 -17.5t81 -22.5t62.5 -40t25 -68.5q0 -38 -22 -65t-54 -44q23 -17 37.5 -42t14.5 -60q0 -37 -16.5 -66t-46.5 -49.5t-71 -31t-89 -10.5q-81 0 -133 20.5t-82 48.5zM352 226q24 11 36.5 29t12.5 34
q0 22 -20.5 34.5t-52 21t-70 15t-74.5 17.5q-24 -12 -35.5 -29.5t-11.5 -32.5q0 -23 20 -35.5t51 -20.5t69.5 -15t74.5 -18z" />
    <glyph glyph-name="dieresis" unicode="&#xa8;" horiz-adv-x="460" 
d="M132 558q-28 0 -46.5 18t-18.5 46t18.5 46t46.5 18t46.5 -18t18.5 -46t-18.5 -46t-46.5 -18zM328 558q-28 0 -46.5 18t-18.5 46t18.5 46t46.5 18t46.5 -18t18.5 -46t-18.5 -46t-46.5 -18z" />
    <glyph glyph-name="copyright" unicode="&#xa9;" horiz-adv-x="866" 
d="M433 -9q-70 0 -131 26t-106.5 71t-71.5 106t-26 131t26 131t71.5 106t106.5 71t131 26t131 -26t106.5 -71t71.5 -106t26 -131t-26 -131t-71.5 -106t-106.5 -71t-131 -26zM433 35q61 0 114 22.5t92 61.5t61.5 92t22.5 114t-22.5 114t-61.5 92t-92 61.5t-114 22.5
t-114 -22.5t-92 -61.5t-61.5 -92t-22.5 -114t22.5 -114t61.5 -92t92 -61.5t114 -22.5zM451 138q-47 0 -85.5 14t-65.5 39t-41.5 59t-14.5 74q0 41 14.5 76t41.5 60.5t65 40t84 14.5q29 0 57 -5t63 -18v-94q-29 11 -52.5 18t-58.5 7q-54 0 -81 -26.5t-27 -68.5
q0 -44 27.5 -71t84.5 -27q33 0 56 7t52 18v-94q-32 -13 -61 -18t-58 -5z" />
    <glyph glyph-name="ordfeminine" unicode="&#xaa;" horiz-adv-x="338" 
d="M30 265h272v-74h-272v74zM210 365q-11 -17 -30.5 -31.5t-54.5 -14.5q-43 0 -71.5 27.5t-28.5 70.5q0 54 48 81t137 26v32q0 12 -6.5 19.5t-26.5 7.5q-19 0 -49.5 -5.5t-71.5 -21.5l-22 68q51 19 89.5 25.5t69.5 6.5q58 0 82.5 -23t24.5 -66v-242h-90v40zM210 469
q-44 -1 -69.5 -13t-25.5 -36q0 -33 37 -33q21 0 39.5 12t18.5 30v40z" />
    <glyph glyph-name="guillemotleft" unicode="&#xab;" horiz-adv-x="570" 
d="M72 231v22l132 198l71 -43l-83 -166l83 -166l-71 -43zM312 231v22l132 198l71 -43l-83 -166l83 -166l-71 -43z" />
    <glyph glyph-name="logicalnot" unicode="&#xac;" 
d="M56 393h461v-267h-94v173h-367v94z" />
    <glyph glyph-name="registered" unicode="&#xae;" horiz-adv-x="699" 
d="M350 170q-52 0 -97 19t-78.5 52t-53 77.5t-19.5 95.5t19.5 96t53 78t78.5 52t97 19q51 0 96 -19t78.5 -52t53 -78t19.5 -96t-19.5 -95.5t-53 -77.5t-78.5 -52t-96 -19zM350 207q44 0 82 16t66.5 44t44.5 65.5t16 81.5t-16 82t-44.5 66t-66.5 44t-82 16t-82.5 -16t-67 -44
t-44.5 -66t-16 -82t16 -81.5t44.5 -65.5t67 -44t82.5 -16zM250 551h100q58 0 88 -23.5t30 -65.5q0 -29 -17.5 -48.5t-40.5 -28.5l70 -108h-74l-59 95h-31v-95h-66v274zM344 426q23 0 40 8t17 29q0 17 -13.5 25.5t-43.5 8.5h-28v-71h28z" />
    <glyph glyph-name="macron" unicode="&#xaf;" horiz-adv-x="460" 
d="M70 661h320v-83h-320v83z" />
    <glyph glyph-name="macron" unicode="&#x2c9;" horiz-adv-x="460" 
d="M70 661h320v-83h-320v83z" />
    <glyph glyph-name="degree" unicode="&#xb0;" horiz-adv-x="435" 
d="M218 339q-35 0 -65 12.5t-52 34t-34 51t-12 62.5t12 62t34 51t52 34.5t65 12.5t65 -12.5t51.5 -34.5t34 -51t12.5 -62t-12.5 -62.5t-34 -51t-51.5 -34t-65 -12.5zM218 421q35 0 55 23t20 55t-20 55t-55 23t-55 -23t-20 -55t20 -55t55 -23z" />
    <glyph glyph-name="plusminus" unicode="&#xb1;" 
d="M62 385h182v153h92v-153h182v-90h-182v-153h-92v153h-182v90zM62 90h456v-90h-456v90z" />
    <glyph glyph-name="twosuperior" unicode="&#xb2;" horiz-adv-x="346" 
d="M31 354q35 29 69 58q34 28 60.5 56t42.5 56.5t16 58.5q0 27 -15.5 43.5t-44.5 16.5q-28 0 -48 -16t-34 -39l-60 46q8 15 21 30t31.5 27t41.5 20t52 8q38 0 65.5 -10.5t45 -28t26 -39.5t8.5 -46q0 -29 -11.5 -56t-29.5 -51.5t-41.5 -47t-47.5 -42.5h136v-73h-283v29z" />
    <glyph glyph-name="threesuperior" unicode="&#xb3;" horiz-adv-x="332" 
d="M51 427q14 -18 37 -27t49 -9q32 0 52.5 13t20.5 36q0 26 -23.5 40t-85.5 12v64q58 -1 79.5 14t21.5 37q0 17 -15 28.5t-41 11.5q-27 0 -48 -10t-40 -27l-45 55q26 25 60 39.5t83 14.5q28 0 52.5 -6.5t43 -19.5t29 -32t10.5 -44q0 -37 -21.5 -58t-53.5 -32q38 -8 61 -31
t23 -61q0 -24 -11 -45t-31 -36.5t-48.5 -25t-64.5 -9.5q-48 0 -81 13.5t-54 36.5z" />
    <glyph glyph-name="acute" unicode="&#xb4;" horiz-adv-x="460" 
d="M260 769l98 -45l-108 -171h-76z" />
    <glyph glyph-name="paragraph" unicode="&#xb6;" horiz-adv-x="506" 
d="M320 228h-16q-131 0 -203 55.5t-72 155.5q0 47 17.5 86t49.5 66.5t78 43t103 15.5h151v-650h-108v228z" />
    <glyph glyph-name="periodcentered" unicode="&#xb7;" horiz-adv-x="256" 
d="M128 168q-32 0 -53.5 21t-21.5 53q0 31 21.5 52t53.5 21t53.5 -21t21.5 -52q0 -32 -21.5 -53t-53.5 -21z" />
    <glyph glyph-name="cedilla" unicode="&#xb8;" horiz-adv-x="460" 
d="M140 -100q15 -5 34.5 -8.5t41.5 -3.5q30 0 41.5 6t11.5 17q0 17 -23.5 23t-71.5 8l49 83h68l-32 -50q42 -4 68.5 -22.5t26.5 -50.5q0 -38 -35.5 -57.5t-100.5 -19.5q-29 0 -55.5 4t-43.5 11z" />
    <glyph glyph-name="onesuperior" unicode="&#xb9;" horiz-adv-x="281" 
d="M124 635h-95v78h185v-388h-90v310z" />
    <glyph glyph-name="ordmasculine" unicode="&#xba;" horiz-adv-x="404" 
d="M41 265h322v-74h-322v74zM202 319q-39 0 -71.5 12.5t-56 35t-36 53.5t-12.5 68t12.5 67.5t36 53t56 35t71.5 12.5t71.5 -12.5t56 -35t36 -53t12.5 -67.5t-12.5 -68t-36 -53.5t-56 -35t-71.5 -12.5zM202 396q38 0 61.5 25.5t23.5 66.5q0 40 -23.5 65.5t-61.5 25.5
t-61.5 -25.5t-23.5 -65.5q0 -41 23.5 -66.5t61.5 -25.5z" />
    <glyph glyph-name="guillemotright" unicode="&#xbb;" horiz-adv-x="570" 
d="M56 76l83 166l-83 166l70 43l133 -198v-22l-133 -198zM296 76l83 166l-83 166l70 43l133 -198v-22l-133 -198z" />
    <glyph glyph-name="onequarter" unicode="&#xbc;" horiz-adv-x="691" 
d="M506 650l50 -34l-401 -616l-50 34zM118 574h-77v76h165v-325h-88v249zM524 138v88l-73 -88h73zM348 100l184 227h72v-187h56v-64h-56v-76h-82v76h-174v24z" />
    <glyph glyph-name="onehalf" unicode="&#xbd;" horiz-adv-x="715" 
d="M506 650l50 -34l-401 -616l-50 34zM118 574h-77v76h165v-325h-88v249zM426 28q30 25 58 49q28 23 49 45.5t34 44.5t13 45q0 20 -11 32t-32 12q-23 0 -39 -12.5t-27 -32.5l-57 48q15 26 47 49t81 23q33 0 57 -9t39 -23.5t22.5 -33.5t7.5 -39q0 -24 -9 -45t-23 -40
t-32 -36.5t-37 -32.5h105v-72h-246v28z" />
    <glyph glyph-name="threequarters" unicode="&#xbe;" horiz-adv-x="739" 
d="M555 650l50 -34l-401 -616l-50 34zM573 138v88l-73 -88h73zM397 100l184 227h72v-187h56v-64h-56v-76h-82v76h-174v24zM78 417q12 -14 31 -21.5t41 -7.5q25 0 40 9t15 26q0 18 -18 28.5t-68 8.5v62q47 -1 63 9.5t16 26.5q0 12 -10 20.5t-32 8.5q-21 0 -38.5 -8.5
t-33.5 -21.5l-41 53q25 22 54 34t70 12q51 0 85 -22.5t34 -64.5q0 -32 -18 -48.5t-45 -26.5q32 -8 50.5 -27t18.5 -50q0 -40 -35.5 -69t-99.5 -29q-42 0 -70.5 11.5t-46.5 29.5z" />
    <glyph glyph-name="questiondown" unicode="&#xbf;" horiz-adv-x="424" 
d="M266 -175q-51 0 -95.5 12t-77.5 36.5t-52.5 61t-19.5 84.5q0 43 16 78.5t45 61t68.5 42t87.5 22.5l4 74h88l9 -148q-97 0 -148 -30t-51 -90q0 -52 37.5 -79.5t103.5 -27.5q32 0 59.5 5t47.5 10v-97q-23 -6 -53.5 -10.5t-68.5 -4.5zM286 355q-31 0 -51.5 18.5t-20.5 48.5
t20.5 48.5t51.5 18.5t51.5 -18.5t20.5 -48.5t-20.5 -48.5t-51.5 -18.5z" />
    <glyph glyph-name="Agrave" unicode="&#xc0;" horiz-adv-x="687" 
d="M277 650h127l285 -650h-133l-81 189h-266l-80 -189h-132zM436 291l-94 223l-95 -223h189zM202 822l97 42l82 -165h-75z" />
    <glyph glyph-name="Aacute" unicode="&#xc1;" horiz-adv-x="687" 
d="M277 650h127l285 -650h-133l-81 189h-266l-80 -189h-132zM436 291l-94 223l-95 -223h189zM385 864l97 -42l-104 -123h-75z" />
    <glyph glyph-name="Acircumflex" unicode="&#xc2;" horiz-adv-x="687" 
d="M277 650h127l285 -650h-133l-81 189h-266l-80 -189h-132zM436 291l-94 223l-95 -223h189zM301 864h82l121 -165h-75l-87 82l-87 -82h-75z" />
    <glyph glyph-name="Atilde" unicode="&#xc3;" horiz-adv-x="687" 
d="M277 650h127l285 -650h-133l-81 189h-266l-80 -189h-132zM436 291l-94 223l-95 -223h189zM176 695q3 137 96 137q24 0 44 -8.5t37 -19t31.5 -19t26.5 -8.5q17 0 24.5 11.5t11.5 42.5h64q-3 -137 -96 -137q-24 0 -44 8.5t-37 18.5t-31.5 18.5t-26.5 8.5q-17 0 -24.5 -11.5
t-11.5 -41.5h-64z" />
    <glyph glyph-name="Adieresis" unicode="&#xc4;" horiz-adv-x="687" 
d="M277 650h127l285 -650h-133l-81 189h-266l-80 -189h-132zM436 291l-94 223l-95 -223h189zM244 702q-28 0 -46.5 18t-18.5 46t18.5 46t46.5 18t46.5 -18t18.5 -46t-18.5 -46t-46.5 -18zM440 702q-28 0 -46.5 18t-18.5 46t18.5 46t46.5 18t46.5 -18t18.5 -46t-18.5 -46
t-46.5 -18z" />
    <glyph glyph-name="Aring" unicode="&#xc5;" horiz-adv-x="687" 
d="M277 650h127l285 -650h-133l-81 189h-266l-80 -189h-132zM436 291l-94 223l-95 -223h189zM342 690q-57 0 -87.5 25.5t-30.5 63.5t30.5 63t87.5 25t87.5 -25t30.5 -63t-30.5 -63.5t-87.5 -25.5zM342 742q47 0 47 37q0 35 -47 35t-47 -35q0 -37 47 -37z" />
    <glyph glyph-name="AE" unicode="&#xc6;" horiz-adv-x="956" 
d="M322 650h510v-105h-318l45 -168h240v-101h-216l46 -171h314v-105h-410l-49 189h-261l-92 -189h-134zM460 291l-65 254l-124 -254h189z" />
    <glyph glyph-name="Ccedilla" unicode="&#xc7;" horiz-adv-x="661" 
d="M283 -100q14 -5 34 -8.5t42 -3.5q30 0 41.5 6t11.5 17q0 17 -23.5 23t-71.5 8l33 56q-69 9 -124 37t-93.5 71t-59 98.5t-20.5 119.5q0 72 25 133.5t71.5 106t112 70t145.5 25.5q49 0 97.5 -8t99.5 -27v-112q-45 17 -88 27.5t-98 10.5q-57 0 -101.5 -16.5t-75 -46.5
t-46.5 -70.5t-16 -88.5q0 -49 16 -90.5t46.5 -71.5t76 -46.5t105.5 -16.5q52 0 95 10.5t88 27.5v-111q-48 -19 -96 -27.5t-96 -8.5l-12 -19q42 -4 68.5 -22.5t26.5 -50.5q0 -38 -35.5 -57.5t-100.5 -19.5q-29 0 -55.5 4t-43.5 11z" />
    <glyph glyph-name="Egrave" unicode="&#xc8;" 
d="M78 650h437v-105h-316v-168h232v-101h-232v-171h363v-105h-484v650zM163 822l97 42l82 -165h-75z" />
    <glyph glyph-name="Eacute" unicode="&#xc9;" 
d="M78 650h437v-105h-316v-168h232v-101h-232v-171h363v-105h-484v650zM327 864l97 -42l-104 -123h-75z" />
    <glyph glyph-name="Ecircumflex" unicode="&#xca;" 
d="M78 650h437v-105h-316v-168h232v-101h-232v-171h363v-105h-484v650zM255 864h82l121 -165h-75l-87 82l-87 -82h-75z" />
    <glyph glyph-name="Edieresis" unicode="&#xcb;" 
d="M78 650h437v-105h-316v-168h232v-101h-232v-171h363v-105h-484v650zM202 702q-28 0 -46.5 18t-18.5 46t18.5 46t46.5 18t46.5 -18t18.5 -46t-18.5 -46t-46.5 -18zM398 702q-28 0 -46.5 18t-18.5 46t18.5 46t46.5 18t46.5 -18t18.5 -46t-18.5 -46t-46.5 -18z" />
    <glyph glyph-name="Igrave" unicode="&#xcc;" horiz-adv-x="278" 
d="M78 650h122v-650h-122v650zM8 822l97 42l82 -165h-75z" />
    <glyph glyph-name="Iacute" unicode="&#xcd;" horiz-adv-x="278" 
d="M78 650h122v-650h-122v650zM172 864l97 -42l-104 -123h-75z" />
    <glyph glyph-name="Icircumflex" unicode="&#xce;" horiz-adv-x="278" 
d="M78 650h122v-650h-122v650zM97 864h83l106 -165h-75l-72 82l-72 -82h-75z" />
    <glyph glyph-name="Idieresis" unicode="&#xcf;" horiz-adv-x="278" 
d="M78 650h122v-650h-122v650zM50 702q-28 0 -46 18t-18 46t18 46t46 18t45.5 -18t17.5 -46t-17.5 -46t-45.5 -18zM228 702q-28 0 -46 18t-18 46t18 46t46 18t46 -18t18 -46t-18 -46t-46 -18z" />
    <glyph glyph-name="Eth" unicode="&#xd0;" horiz-adv-x="764" 
d="M115 274h-78v105h78v271h237q86 0 148 -19.5t107 -55.5q51 -42 77.5 -103.5t26.5 -138.5q0 -76 -26.5 -138.5t-76.5 -107.5q-45 -42 -109.5 -64.5t-155.5 -22.5h-228v274zM345 104q63 0 105 15t71 41q32 30 48.5 73.5t16.5 94.5q0 55 -16 98t-50 71q-28 24 -69.5 36.5
t-106.5 12.5h-108v-168h159v-103h-159v-171h109z" />
    <glyph glyph-name="Ntilde" unicode="&#xd1;" horiz-adv-x="724" 
d="M78 650h115l332 -399v399h121v-657h-49l-398 472v-465h-121v650zM196 695q3 137 96 137q24 0 44 -8.5t37 -19t31.5 -19t26.5 -8.5q17 0 24.5 11.5t11.5 42.5h64q-3 -137 -96 -137q-24 0 -44 8.5t-37 18.5t-31.5 18.5t-26.5 8.5q-17 0 -24.5 -11.5t-11.5 -41.5h-64z" />
    <glyph glyph-name="Ograve" unicode="&#xd2;" horiz-adv-x="779" 
d="M389 -9q-74 0 -136 25t-106.5 69.5t-69 105.5t-24.5 133t25 133.5t69.5 106t106.5 70t136 25.5t136 -25t106.5 -69.5t69 -105.5t24.5 -133t-25 -133.5t-69.5 -106t-106.5 -70t-136 -25.5zM390 100q48 0 87 16.5t66.5 46.5t42.5 71.5t15 90.5t-15 90.5t-42.5 71.5
t-66.5 46.5t-87 16.5t-87 -16.5t-67 -46.5t-43 -71.5t-15 -90.5t15 -90.5t42.5 -71.5t67 -46.5t87.5 -16.5zM258 822l97 42l82 -165h-75z" />
    <glyph glyph-name="Oacute" unicode="&#xd3;" horiz-adv-x="779" 
d="M389 -9q-74 0 -136 25t-106.5 69.5t-69 105.5t-24.5 133t25 133.5t69.5 106t106.5 70t136 25.5t136 -25t106.5 -69.5t69 -105.5t24.5 -133t-25 -133.5t-69.5 -106t-106.5 -70t-136 -25.5zM390 100q48 0 87 16.5t66.5 46.5t42.5 71.5t15 90.5t-15 90.5t-42.5 71.5
t-66.5 46.5t-87 16.5t-87 -16.5t-67 -46.5t-43 -71.5t-15 -90.5t15 -90.5t42.5 -71.5t67 -46.5t87.5 -16.5zM432 864l97 -42l-104 -123h-75z" />
    <glyph glyph-name="Ocircumflex" unicode="&#xd4;" horiz-adv-x="779" 
d="M389 -9q-74 0 -136 25t-106.5 69.5t-69 105.5t-24.5 133t25 133.5t69.5 106t106.5 70t136 25.5t136 -25t106.5 -69.5t69 -105.5t24.5 -133t-25 -133.5t-69.5 -106t-106.5 -70t-136 -25.5zM390 100q48 0 87 16.5t66.5 46.5t42.5 71.5t15 90.5t-15 90.5t-42.5 71.5
t-66.5 46.5t-87 16.5t-87 -16.5t-67 -46.5t-43 -71.5t-15 -90.5t15 -90.5t42.5 -71.5t67 -46.5t87.5 -16.5zM349 864h82l121 -165h-75l-87 82l-87 -82h-75z" />
    <glyph glyph-name="Otilde" unicode="&#xd5;" horiz-adv-x="779" 
d="M389 -9q-74 0 -136 25t-106.5 69.5t-69 105.5t-24.5 133t25 133.5t69.5 106t106.5 70t136 25.5t136 -25t106.5 -69.5t69 -105.5t24.5 -133t-25 -133.5t-69.5 -106t-106.5 -70t-136 -25.5zM390 100q48 0 87 16.5t66.5 46.5t42.5 71.5t15 90.5t-15 90.5t-42.5 71.5
t-66.5 46.5t-87 16.5t-87 -16.5t-67 -46.5t-43 -71.5t-15 -90.5t15 -90.5t42.5 -71.5t67 -46.5t87.5 -16.5zM223 695q3 137 96 137q24 0 44 -8.5t37 -19t31.5 -19t26.5 -8.5q17 0 24.5 11.5t11.5 42.5h64q-3 -137 -96 -137q-24 0 -44 8.5t-37 18.5t-31.5 18.5t-26.5 8.5
q-17 0 -24.5 -11.5t-11.5 -41.5h-64z" />
    <glyph glyph-name="Odieresis" unicode="&#xd6;" horiz-adv-x="779" 
d="M389 -9q-74 0 -136 25t-106.5 69.5t-69 105.5t-24.5 133t25 133.5t69.5 106t106.5 70t136 25.5t136 -25t106.5 -69.5t69 -105.5t24.5 -133t-25 -133.5t-69.5 -106t-106.5 -70t-136 -25.5zM390 100q48 0 87 16.5t66.5 46.5t42.5 71.5t15 90.5t-15 90.5t-42.5 71.5
t-66.5 46.5t-87 16.5t-87 -16.5t-67 -46.5t-43 -71.5t-15 -90.5t15 -90.5t42.5 -71.5t67 -46.5t87.5 -16.5zM292 702q-28 0 -46.5 18t-18.5 46t18.5 46t46.5 18t46.5 -18t18.5 -46t-18.5 -46t-46.5 -18zM488 702q-28 0 -46.5 18t-18.5 46t18.5 46t46.5 18t46.5 -18t18.5 -46
t-18.5 -46t-46.5 -18z" />
    <glyph glyph-name="multiply" unicode="&#xd7;" 
d="M52 103l171 171l-171 171l67 67l171 -171l171 171l67 -67l-171 -171l171 -171l-67 -66l-171 171l-171 -171z" />
    <glyph glyph-name="Oslash" unicode="&#xd8;" horiz-adv-x="789" 
d="M72 35l62 70q-36 43 -56 98.5t-20 120.5q0 72 25 133.5t69.5 106t106.5 70t136 25.5q110 0 190 -54l64 72l68 -62l-62 -70q36 -43 56 -98.5t20 -120.5q0 -72 -25 -133.5t-69.5 -106t-106.5 -70t-136 -25.5q-110 0 -190 54l-63 -72zM507 519q-23 15 -51.5 23.5t-60.5 8.5
q-48 0 -87.5 -17t-67.5 -47t-43 -71.5t-15 -90.5q0 -76 35 -129zM282 131q23 -15 51.5 -23.5t61.5 -8.5q48 0 87.5 16.5t67 46.5t43 71.5t15.5 91.5q0 37 -9.5 70t-26.5 59z" />
    <glyph glyph-name="Ugrave" unicode="&#xd9;" horiz-adv-x="713" 
d="M73 650h122v-413q0 -28 6.5 -53t24.5 -43.5t49.5 -29.5t81.5 -11q49 0 80.5 11t49.5 29.5t24.5 43.5t6.5 53v413h122v-425q0 -113 -74 -173.5t-211 -60.5t-209.5 60t-72.5 174v425zM221 822l97 42l82 -165h-75z" />
    <glyph glyph-name="Uacute" unicode="&#xda;" horiz-adv-x="713" 
d="M73 650h122v-413q0 -28 6.5 -53t24.5 -43.5t49.5 -29.5t81.5 -11q49 0 80.5 11t49.5 29.5t24.5 43.5t6.5 53v413h122v-425q0 -113 -74 -173.5t-211 -60.5t-209.5 60t-72.5 174v425zM397 864l97 -42l-104 -123h-75z" />
    <glyph glyph-name="Ucircumflex" unicode="&#xdb;" horiz-adv-x="713" 
d="M73 650h122v-413q0 -28 6.5 -53t24.5 -43.5t49.5 -29.5t81.5 -11q49 0 80.5 11t49.5 29.5t24.5 43.5t6.5 53v413h122v-425q0 -113 -74 -173.5t-211 -60.5t-209.5 60t-72.5 174v425zM316 864h82l121 -165h-75l-87 82l-87 -82h-75z" />
    <glyph glyph-name="Udieresis" unicode="&#xdc;" horiz-adv-x="713" 
d="M73 650h122v-413q0 -28 6.5 -53t24.5 -43.5t49.5 -29.5t81.5 -11q49 0 80.5 11t49.5 29.5t24.5 43.5t6.5 53v413h122v-425q0 -113 -74 -173.5t-211 -60.5t-209.5 60t-72.5 174v425zM260 702q-28 0 -46.5 18t-18.5 46t18.5 46t46.5 18t46.5 -18t18.5 -46t-18.5 -46
t-46.5 -18zM456 702q-28 0 -46.5 18t-18.5 46t18.5 46t46.5 18t46.5 -18t18.5 -46t-18.5 -46t-46.5 -18z" />
    <glyph glyph-name="Yacute" unicode="&#xdd;" horiz-adv-x="617" 
d="M248 285l-252 365h144l170 -251l170 251h141l-251 -365v-285h-122v285zM353 864l97 -42l-104 -123h-75z" />
    <glyph glyph-name="Thorn" unicode="&#xde;" horiz-adv-x="595" 
d="M78 650h122v-108h95q125 0 192 -56.5t67 -155.5q0 -48 -17 -86.5t-50 -66t-81.5 -42.5t-110.5 -15h-95v-120h-122v650zM299 221q68 0 99 29t31 80t-31 79.5t-99 28.5h-99v-217h99z" />
    <glyph glyph-name="germandbls" unicode="&#xdf;" horiz-adv-x="604" 
d="M67 478q0 51 17 93t47.5 71.5t74 45.5t97.5 16q48 0 89.5 -14t71.5 -39t47 -59.5t17 -75.5q0 -61 -34 -103t-84 -63q65 -13 103.5 -53.5t38.5 -101.5q0 -44 -19 -80.5t-56 -62.5t-91 -40t-124 -12v98q92 -4 131.5 25t39.5 78q0 47 -37 72t-130 25v82q72 5 107.5 40.5
t35.5 84.5q0 45 -27.5 72.5t-78.5 27.5q-58 0 -89.5 -35t-31.5 -96v-474h-115v478z" />
    <glyph glyph-name="agrave" unicode="&#xe0;" horiz-adv-x="488" 
d="M188 -9q-32 0 -59.5 10.5t-47.5 29.5t-31 45.5t-11 58.5q0 84 70 122t205 38v53q0 26 -12.5 37.5t-42.5 11.5q-32 0 -76 -10t-100 -33l-31 90q41 16 74 25.5t60 14.5t48.5 7t39.5 2q81 0 118 -33t37 -96v-364h-115v59q-17 -26 -46.5 -47t-79.5 -21zM220 79q18 0 34.5 5.5
t30 15t21.5 22.5t8 28v71q-34 -1 -63 -5t-50.5 -13.5t-33.5 -25t-12 -39.5q0 -28 17 -43.5t48 -15.5zM120 724l98 45l86 -216h-76z" />
    <glyph glyph-name="aacute" unicode="&#xe1;" horiz-adv-x="488" 
d="M188 -9q-32 0 -59.5 10.5t-47.5 29.5t-31 45.5t-11 58.5q0 84 70 122t205 38v53q0 26 -12.5 37.5t-42.5 11.5q-32 0 -76 -10t-100 -33l-31 90q41 16 74 25.5t60 14.5t48.5 7t39.5 2q81 0 118 -33t37 -96v-364h-115v59q-17 -26 -46.5 -47t-79.5 -21zM220 79q18 0 34.5 5.5
t30 15t21.5 22.5t8 28v71q-34 -1 -63 -5t-50.5 -13.5t-33.5 -25t-12 -39.5q0 -28 17 -43.5t48 -15.5zM306 769l98 -45l-108 -171h-76z" />
    <glyph glyph-name="acircumflex" unicode="&#xe2;" horiz-adv-x="488" 
d="M188 -9q-32 0 -59.5 10.5t-47.5 29.5t-31 45.5t-11 58.5q0 84 70 122t205 38v53q0 26 -12.5 37.5t-42.5 11.5q-32 0 -76 -10t-100 -33l-31 90q41 16 74 25.5t60 14.5t48.5 7t39.5 2q81 0 118 -33t37 -96v-364h-115v59q-17 -26 -46.5 -47t-79.5 -21zM220 79q18 0 34.5 5.5
t30 15t21.5 22.5t8 28v71q-34 -1 -63 -5t-50.5 -13.5t-33.5 -25t-12 -39.5q0 -28 17 -43.5t48 -15.5zM208 757h84l121 -204h-76l-87 110l-87 -110h-76z" />
    <glyph glyph-name="atilde" unicode="&#xe3;" horiz-adv-x="488" 
d="M188 -9q-32 0 -59.5 10.5t-47.5 29.5t-31 45.5t-11 58.5q0 84 70 122t205 38v53q0 26 -12.5 37.5t-42.5 11.5q-32 0 -76 -10t-100 -33l-31 90q41 16 74 25.5t60 14.5t48.5 7t39.5 2q81 0 118 -33t37 -96v-364h-115v59q-17 -26 -46.5 -47t-79.5 -21zM220 79q18 0 34.5 5.5
t30 15t21.5 22.5t8 28v71q-34 -1 -63 -5t-50.5 -13.5t-33.5 -25t-12 -39.5q0 -28 17 -43.5t48 -15.5zM83 554q5 148 96 148q24 0 44 -9.5t37 -21t31 -21t27 -9.5q17 0 24.5 13.5t11.5 46.5h64q-5 -148 -96 -148q-24 0 -44 9.5t-37 20.5t-31 20.5t-27 9.5q-17 0 -24.5 -13.5
t-10.5 -45.5h-65z" />
    <glyph glyph-name="adieresis" unicode="&#xe4;" horiz-adv-x="488" 
d="M188 -9q-32 0 -59.5 10.5t-47.5 29.5t-31 45.5t-11 58.5q0 84 70 122t205 38v53q0 26 -12.5 37.5t-42.5 11.5q-32 0 -76 -10t-100 -33l-31 90q41 16 74 25.5t60 14.5t48.5 7t39.5 2q81 0 118 -33t37 -96v-364h-115v59q-17 -26 -46.5 -47t-79.5 -21zM220 79q18 0 34.5 5.5
t30 15t21.5 22.5t8 28v71q-34 -1 -63 -5t-50.5 -13.5t-33.5 -25t-12 -39.5q0 -28 17 -43.5t48 -15.5zM151 558q-28 0 -46.5 18t-18.5 46t18.5 46t46.5 18t46.5 -18t18.5 -46t-18.5 -46t-46.5 -18zM347 558q-28 0 -46.5 18t-18.5 46t18.5 46t46.5 18t46.5 -18t18.5 -46
t-18.5 -46t-46.5 -18z" />
    <glyph glyph-name="aring" unicode="&#xe5;" horiz-adv-x="488" 
d="M188 -9q-32 0 -59.5 10.5t-47.5 29.5t-31 45.5t-11 58.5q0 84 70 122t205 38v53q0 26 -12.5 37.5t-42.5 11.5q-32 0 -76 -10t-100 -33l-31 90q41 16 74 25.5t60 14.5t48.5 7t39.5 2q81 0 118 -33t37 -96v-364h-115v59q-17 -26 -46.5 -47t-79.5 -21zM220 79q18 0 34.5 5.5
t30 15t21.5 22.5t8 28v71q-34 -1 -63 -5t-50.5 -13.5t-33.5 -25t-12 -39.5q0 -28 17 -43.5t48 -15.5zM249 544q-52 0 -85 30t-33 78t33 78t85 30t85 -30t33 -78t-33 -78t-85 -30zM249 601q22 0 34.5 14t12.5 37q0 24 -12.5 38t-34.5 14t-34.5 -14t-12.5 -38q0 -23 12.5 -37
t34.5 -14z" />
    <glyph glyph-name="ae" unicode="&#xe6;" horiz-adv-x="811" 
d="M195 -9q-71 0 -113.5 40t-42.5 104q0 84 70 122t205 38v53q0 26 -12.5 37.5t-42.5 11.5q-32 0 -76 -10t-100 -33l-31 90q41 16 74 25.5t59.5 14.5t48 7t39.5 2q52 0 83.5 -17.5t45.5 -47.5q28 30 67 47.5t90 17.5q58 0 99.5 -22t68 -60t39 -89.5t11.5 -109.5h-345
q5 -57 40.5 -92.5t98.5 -35.5q42 0 72.5 15t50.5 37l67 -66q-35 -38 -84.5 -58.5t-110.5 -20.5q-60 0 -108 19.5t-82 54.5q-30 -30 -77.5 -52t-103.5 -22zM221 79q31 0 61 13.5t52 39.5q-8 20 -13 42t-6 47q-34 -1 -63.5 -5t-51 -13.5t-33.5 -25t-12 -39.5q0 -28 17 -43.5
t49 -15.5zM659 292q-4 47 -28.5 77.5t-78.5 30.5q-48 0 -79.5 -30t-39.5 -78h226z" />
    <glyph glyph-name="ccedilla" unicode="&#xe7;" horiz-adv-x="499" 
d="M165 -100q15 -5 34.5 -8.5t41.5 -3.5q30 0 41.5 6t11.5 17q0 17 -23.5 23t-71.5 8l34 57q-45 8 -82 29t-63.5 52.5t-40.5 72.5t-14 88q0 55 18 101t51 79.5t79.5 52.5t103.5 19q66 0 113 -22.5t79 -61.5l-79 -65q-19 21 -46 35t-63 14q-64 0 -100.5 -40t-36.5 -107
q0 -66 36.5 -109t103.5 -43q38 0 66.5 14t47.5 36l76 -65q-32 -38 -78 -60.5t-108 -24.5l-12 -19q42 -4 68.5 -22.5t26.5 -50.5q0 -38 -35 -57.5t-101 -19.5q-29 0 -55.5 4t-43.5 11z" />
    <glyph glyph-name="egrave" unicode="&#xe8;" horiz-adv-x="530" 
d="M285 -9q-57 0 -103.5 18t-79.5 50.5t-51 78t-18 101.5q0 55 17 102t48.5 80.5t74.5 52.5t96 19q61 0 104 -21.5t71 -59t40.5 -89t11.5 -111.5h-345q5 -57 40.5 -92.5t98.5 -35.5q42 0 72.5 15t50.5 37l67 -66q-35 -38 -84.5 -58.5t-110.5 -20.5zM378 292
q-4 47 -28.5 77.5t-78.5 30.5q-48 0 -79.5 -30t-39.5 -78h226zM130 724l98 45l86 -216h-76z" />
    <glyph glyph-name="eacute" unicode="&#xe9;" horiz-adv-x="530" 
d="M285 -9q-57 0 -103.5 18t-79.5 50.5t-51 78t-18 101.5q0 55 17 102t48.5 80.5t74.5 52.5t96 19q61 0 104 -21.5t71 -59t40.5 -89t11.5 -111.5h-345q5 -57 40.5 -92.5t98.5 -35.5q42 0 72.5 15t50.5 37l67 -66q-35 -38 -84.5 -58.5t-110.5 -20.5zM378 292
q-4 47 -28.5 77.5t-78.5 30.5q-48 0 -79.5 -30t-39.5 -78h226zM320 769l98 -45l-108 -171h-76z" />
    <glyph glyph-name="ecircumflex" unicode="&#xea;" horiz-adv-x="530" 
d="M285 -9q-57 0 -103.5 18t-79.5 50.5t-51 78t-18 101.5q0 55 17 102t48.5 80.5t74.5 52.5t96 19q61 0 104 -21.5t71 -59t40.5 -89t11.5 -111.5h-345q5 -57 40.5 -92.5t98.5 -35.5q42 0 72.5 15t50.5 37l67 -66q-35 -38 -84.5 -58.5t-110.5 -20.5zM378 292
q-4 47 -28.5 77.5t-78.5 30.5q-48 0 -79.5 -30t-39.5 -78h226zM224 757h84l121 -204h-76l-87 110l-87 -110h-76z" />
    <glyph glyph-name="edieresis" unicode="&#xeb;" horiz-adv-x="530" 
d="M285 -9q-57 0 -103.5 18t-79.5 50.5t-51 78t-18 101.5q0 55 17 102t48.5 80.5t74.5 52.5t96 19q61 0 104 -21.5t71 -59t40.5 -89t11.5 -111.5h-345q5 -57 40.5 -92.5t98.5 -35.5q42 0 72.5 15t50.5 37l67 -66q-35 -38 -84.5 -58.5t-110.5 -20.5zM378 292
q-4 47 -28.5 77.5t-78.5 30.5q-48 0 -79.5 -30t-39.5 -78h226zM170 558q-28 0 -46.5 18t-18.5 46t18.5 46t46.5 18t46.5 -18t18.5 -46t-18.5 -46t-46.5 -18zM366 558q-28 0 -46.5 18t-18.5 46t18.5 46t46.5 18t46.5 -18t18.5 -46t-18.5 -46t-46.5 -18z" />
    <glyph glyph-name="igrave" unicode="&#xec;" horiz-adv-x="248" 
d="M67 484h115v-484h-115v484zM0 724l98 45l80 -216h-76z" />
    <glyph glyph-name="iacute" unicode="&#xed;" horiz-adv-x="248" 
d="M67 484h115v-484h-115v484zM155 769l98 -45l-102 -171h-77z" />
    <glyph glyph-name="icircumflex" unicode="&#xee;" horiz-adv-x="248" 
d="M67 484h115v-484h-115v484zM82 757h84l102 -204h-75l-69 110l-68 -110h-76z" />
    <glyph glyph-name="idieresis" unicode="&#xef;" horiz-adv-x="248" 
d="M67 484h115v-484h-115v484zM44 549q-28 0 -45.5 18t-17.5 46t17.5 46t45.5 18t45 -18t17 -46t-17 -46t-45 -18zM205 549q-28 0 -45.5 18t-17.5 46t17.5 46t45.5 18q27 0 44.5 -18t17.5 -46t-17.5 -46t-44.5 -18z" />
    <glyph glyph-name="eth" unicode="&#xf0;" horiz-adv-x="583" 
d="M291 -9q-57 0 -104.5 18.5t-81.5 51.5t-53 78.5t-19 98.5q0 52 17 96.5t47.5 77t73.5 51t95 18.5q20 0 40 -3t37 -10q-17 20 -35 41t-35 41l-133 -39l-22 73l98 29l-75 82h128l49 -54l121 35l22 -73l-89 -27q32 -38 61 -75.5t51 -70.5q35 -55 49.5 -100t14.5 -90
q0 -53 -18.5 -98.5t-52.5 -79t-81.5 -52.5t-104.5 -19zM291 91q32 0 57.5 11t43.5 30t27.5 45.5t9.5 57.5q0 35 -9 62t-22 44q-19 25 -46 34t-62 9q-68 0 -103 -41.5t-35 -104.5q0 -65 37.5 -106t101.5 -41z" />
    <glyph glyph-name="ntilde" unicode="&#xf1;" horiz-adv-x="533" 
d="M67 484h115v-51q22 26 58 43t81 17q71 0 112 -35.5t41 -90.5v-367h-115v333q0 33 -21.5 45.5t-56.5 12.5q-23 0 -41 -5.5t-31 -13t-20 -15.5t-7 -14v-343h-115v484zM108 554q5 148 96 148q24 0 44 -9.5t37 -21t31 -21t27 -9.5q17 0 24.5 13.5t11.5 46.5h64
q-5 -148 -96 -148q-24 0 -44 9.5t-37 20.5t-31 20.5t-27 9.5q-17 0 -24.5 -13.5t-10.5 -45.5h-65z" />
    <glyph glyph-name="ograve" unicode="&#xf2;" horiz-adv-x="583" 
d="M291 -9q-57 0 -104.5 18.5t-81.5 52t-53 79.5t-19 101t19 101t53 79.5t81.5 52t104.5 18.5q58 0 105.5 -18.5t81.5 -52t52.5 -79.5t18.5 -101t-19 -101t-53 -79.5t-81.5 -52t-104.5 -18.5zM291 91q65 0 102 41.5t37 109.5t-37 109.5t-102 41.5q-64 0 -101.5 -41.5
t-37.5 -109.5t37.5 -109.5t101.5 -41.5zM148 724l98 45l86 -216h-76z" />
    <glyph glyph-name="oacute" unicode="&#xf3;" horiz-adv-x="583" 
d="M291 -9q-57 0 -104.5 18.5t-81.5 52t-53 79.5t-19 101t19 101t53 79.5t81.5 52t104.5 18.5q58 0 105.5 -18.5t81.5 -52t52.5 -79.5t18.5 -101t-19 -101t-53 -79.5t-81.5 -52t-104.5 -18.5zM291 91q65 0 102 41.5t37 109.5t-37 109.5t-102 41.5q-64 0 -101.5 -41.5
t-37.5 -109.5t37.5 -109.5t101.5 -41.5zM343 769l98 -45l-108 -171h-76z" />
    <glyph glyph-name="ocircumflex" unicode="&#xf4;" horiz-adv-x="583" 
d="M291 -9q-57 0 -104.5 18.5t-81.5 52t-53 79.5t-19 101t19 101t53 79.5t81.5 52t104.5 18.5q58 0 105.5 -18.5t81.5 -52t52.5 -79.5t18.5 -101t-19 -101t-53 -79.5t-81.5 -52t-104.5 -18.5zM291 91q65 0 102 41.5t37 109.5t-37 109.5t-102 41.5q-64 0 -101.5 -41.5
t-37.5 -109.5t37.5 -109.5t101.5 -41.5zM249 757h84l121 -204h-76l-87 110l-87 -110h-76z" />
    <glyph glyph-name="otilde" unicode="&#xf5;" horiz-adv-x="583" 
d="M291 -9q-57 0 -104.5 18.5t-81.5 52t-53 79.5t-19 101t19 101t53 79.5t81.5 52t104.5 18.5q58 0 105.5 -18.5t81.5 -52t52.5 -79.5t18.5 -101t-19 -101t-53 -79.5t-81.5 -52t-104.5 -18.5zM291 91q65 0 102 41.5t37 109.5t-37 109.5t-102 41.5q-64 0 -101.5 -41.5
t-37.5 -109.5t37.5 -109.5t101.5 -41.5zM128 554q5 148 96 148q24 0 44 -9.5t37 -21t31 -21t27 -9.5q17 0 24.5 13.5t11.5 46.5h64q-5 -148 -96 -148q-24 0 -44 9.5t-37 20.5t-31 20.5t-27 9.5q-17 0 -24.5 -13.5t-10.5 -45.5h-65z" />
    <glyph glyph-name="odieresis" unicode="&#xf6;" horiz-adv-x="583" 
d="M291 -9q-57 0 -104.5 18.5t-81.5 52t-53 79.5t-19 101t19 101t53 79.5t81.5 52t104.5 18.5q58 0 105.5 -18.5t81.5 -52t52.5 -79.5t18.5 -101t-19 -101t-53 -79.5t-81.5 -52t-104.5 -18.5zM291 91q65 0 102 41.5t37 109.5t-37 109.5t-102 41.5q-64 0 -101.5 -41.5
t-37.5 -109.5t37.5 -109.5t101.5 -41.5zM193 558q-28 0 -46.5 18t-18.5 46t18.5 46t46.5 18t46.5 -18t18.5 -46t-18.5 -46t-46.5 -18zM389 558q-28 0 -46.5 18t-18.5 46t18.5 46t46.5 18t46.5 -18t18.5 -46t-18.5 -46t-46.5 -18z" />
    <glyph glyph-name="divide" unicode="&#xf7;" 
d="M290 34q-29 0 -48 18.5t-19 46.5t19 46t48 18t48 -18t19 -46t-19 -46.5t-48 -18.5zM56 320h468v-92h-468v92zM290 385q-29 0 -48 18.5t-19 45.5q0 28 19 46.5t48 18.5t48 -18.5t19 -46.5q0 -27 -19 -45.5t-48 -18.5z" />
    <glyph glyph-name="oslash" unicode="&#xf8;" horiz-adv-x="585" 
d="M32 20l57 60q-26 32 -40 73t-14 89q0 55 19 101t53 79.5t81.5 52t104.5 18.5q87 0 149 -42l60 63l51 -50l-57 -60q26 -32 40.5 -73t14.5 -89q0 -55 -19 -101t-53 -79.5t-81.5 -52t-104.5 -18.5q-88 0 -150 42l-59 -63zM368 374q-15 9 -34 14.5t-41 5.5q-65 0 -102.5 -42
t-37.5 -110q0 -45 17 -77zM217 110q32 -20 76 -20q64 0 102 41.5t38 110.5q0 45 -18 77z" />
    <glyph glyph-name="ugrave" unicode="&#xf9;" horiz-adv-x="533" 
d="M59 484h115v-323q0 -68 78 -68q43 0 71 20t28 57v314h115v-484h-115v58q-21 -30 -55.5 -48.5t-82.5 -18.5q-69 0 -111.5 38t-42.5 112v343zM124 724l98 45l86 -216h-76z" />
    <glyph glyph-name="uacute" unicode="&#xfa;" horiz-adv-x="533" 
d="M59 484h115v-323q0 -68 78 -68q43 0 71 20t28 57v314h115v-484h-115v58q-21 -30 -55.5 -48.5t-82.5 -18.5q-69 0 -111.5 38t-42.5 112v343zM310 769l98 -45l-108 -171h-76z" />
    <glyph glyph-name="ucircumflex" unicode="&#xfb;" horiz-adv-x="533" 
d="M59 484h115v-323q0 -68 78 -68q43 0 71 20t28 57v314h115v-484h-115v58q-21 -30 -55.5 -48.5t-82.5 -18.5q-69 0 -111.5 38t-42.5 112v343zM225 757h84l121 -204h-76l-87 110l-87 -110h-76z" />
    <glyph glyph-name="udieresis" unicode="&#xfc;" horiz-adv-x="533" 
d="M59 484h115v-323q0 -68 78 -68q43 0 71 20t28 57v314h115v-484h-115v58q-21 -30 -55.5 -48.5t-82.5 -18.5q-69 0 -111.5 38t-42.5 112v343zM169 558q-28 0 -46.5 18t-18.5 46t18.5 46t46.5 18t46.5 -18t18.5 -46t-18.5 -46t-46.5 -18zM365 558q-28 0 -46.5 18t-18.5 46
t18.5 46t46.5 18t46.5 -18t18.5 -46t-18.5 -46t-46.5 -18z" />
    <glyph glyph-name="yacute" unicode="&#xfd;" horiz-adv-x="496" 
d="M54 -57q14 -8 32 -13t35 -5q26 0 40 13t25 40l9 27l-198 479h129l125 -335l122 335h126l-210 -543q-14 -36 -31.5 -58.5t-38 -35t-42.5 -17.5t-46 -5q-35 0 -63 8t-48 19zM301 769l98 -45l-108 -171h-76z" />
    <glyph glyph-name="thorn" unicode="&#xfe;" horiz-adv-x="585" 
d="M67 695h115v-249q26 23 62.5 35t76.5 12q52 0 94.5 -18t72.5 -50t46.5 -77.5t16.5 -100.5q0 -57 -18.5 -104t-50.5 -80.5t-76 -52.5t-95 -19q-35 0 -69.5 10.5t-59.5 32.5v-200h-115v861zM290 90q70 0 106 44t36 112q0 66 -34.5 106.5t-107.5 40.5q-23 0 -42.5 -4.5
t-34.5 -11.5t-23.5 -15t-8.5 -14v-193q0 -16 10 -28t25.5 -20.5t35 -12.5t38.5 -4z" />
    <glyph glyph-name="ydieresis" unicode="&#xff;" horiz-adv-x="496" 
d="M54 -57q14 -8 32 -13t35 -5q26 0 40 13t25 40l9 27l-198 479h129l125 -335l122 335h126l-210 -543q-14 -36 -31.5 -58.5t-38 -35t-42.5 -17.5t-46 -5q-35 0 -63 8t-48 19zM150 558q-28 0 -46.5 18t-18.5 46t18.5 46t46.5 18t46.5 -18t18.5 -46t-18.5 -46t-46.5 -18z
M346 558q-28 0 -46.5 18t-18.5 46t18.5 46t46.5 18t46.5 -18t18.5 -46t-18.5 -46t-46.5 -18z" />
    <glyph glyph-name="Amacron" unicode="&#x100;" horiz-adv-x="687" 
d="M277 650h127l285 -650h-133l-81 189h-266l-80 -189h-132zM436 291l-94 223l-95 -223h189zM182 813h320v-88h-320v88z" />
    <glyph glyph-name="amacron" unicode="&#x101;" horiz-adv-x="488" 
d="M188 -9q-32 0 -59.5 10.5t-47.5 29.5t-31 45.5t-11 58.5q0 84 70 122t205 38v53q0 26 -12.5 37.5t-42.5 11.5q-32 0 -76 -10t-100 -33l-31 90q41 16 74 25.5t60 14.5t48.5 7t39.5 2q81 0 118 -33t37 -96v-364h-115v59q-17 -26 -46.5 -47t-79.5 -21zM220 79q18 0 34.5 5.5
t30 15t21.5 22.5t8 28v71q-34 -1 -63 -5t-50.5 -13.5t-33.5 -25t-12 -39.5q0 -28 17 -43.5t48 -15.5zM89 661h320v-83h-320v83z" />
    <glyph glyph-name="Abreve" unicode="&#x102;" horiz-adv-x="687" 
d="M277 650h127l285 -650h-133l-81 189h-266l-80 -189h-132zM436 291l-94 223l-95 -223h189zM342 690q-39 0 -68 12.5t-48.5 33t-31 46.5t-15.5 54h66q6 -24 28 -43t69 -19t69 19t28 43h66q-4 -28 -15.5 -54t-31 -46.5t-48.5 -33t-68 -12.5z" />
    <glyph glyph-name="abreve" unicode="&#x103;" horiz-adv-x="488" 
d="M188 -9q-32 0 -59.5 10.5t-47.5 29.5t-31 45.5t-11 58.5q0 84 70 122t205 38v53q0 26 -12.5 37.5t-42.5 11.5q-32 0 -76 -10t-100 -33l-31 90q41 16 74 25.5t60 14.5t48.5 7t39.5 2q81 0 118 -33t37 -96v-364h-115v59q-17 -26 -46.5 -47t-79.5 -21zM220 79q18 0 34.5 5.5
t30 15t21.5 22.5t8 28v71q-34 -1 -63 -5t-50.5 -13.5t-33.5 -25t-12 -39.5q0 -28 17 -43.5t48 -15.5zM246 550q-39 0 -68 14t-48.5 37.5t-31 54t-15.5 62.5h66q3 -14 10 -29t18.5 -27t28.5 -19.5t40 -7.5t40 7.5t28.5 19.5t18.5 27t10 29h66q-4 -32 -15.5 -62.5t-31 -54
t-48.5 -37.5t-68 -14z" />
    <glyph glyph-name="Aogonek" unicode="&#x104;" horiz-adv-x="687" 
d="M277 650h127l285 -650h-24q-35 0 -59 -5.5t-38.5 -14.5t-20.5 -20t-6 -21q0 -22 17 -32t44 -10q21 0 38 3.5t28 7.5l21 -66q-16 -6 -42.5 -11.5t-61.5 -5.5q-60 0 -96.5 23t-36.5 71q0 21 8 38t21 30.5t29.5 23t33.5 15.5l-69 163h-266l-80 -189h-132zM436 291l-94 223
l-95 -223h189z" />
    <glyph glyph-name="aogonek" unicode="&#x105;" horiz-adv-x="488" 
d="M188 -9q-32 0 -59.5 10.5t-47.5 29.5t-31 45.5t-11 58.5q0 84 70 122t205 38v53q0 26 -12.5 37.5t-42.5 11.5q-32 0 -76 -10t-100 -33l-31 90q41 16 74 25.5t60 14.5t48.5 7t39.5 2q81 0 118 -33t37 -96v-364q-41 -5 -65.5 -20.5t-24.5 -40.5q0 -22 17 -32t44 -10
q21 0 38 3.5t28 7.5l22 -66q-17 -6 -43.5 -11.5t-60.5 -5.5q-60 0 -96.5 23t-36.5 68q0 31 18.5 52.5t44.5 32.5v58q-17 -26 -46.5 -47t-79.5 -21zM220 79q18 0 34.5 5.5t30 15t21.5 22.5t8 28v71q-34 -1 -63 -5t-50.5 -13.5t-33.5 -25t-12 -39.5q0 -28 17 -43.5t48 -15.5z
" />
    <glyph glyph-name="Cacute" unicode="&#x106;" horiz-adv-x="661" 
d="M410 -9q-82 0 -148 25.5t-112.5 70t-71.5 105t-25 131.5q0 72 25 133.5t71.5 106.5t112 70.5t145.5 25.5q49 0 97.5 -8t99.5 -28v-111q-45 17 -88 27.5t-98 10.5q-57 0 -101.5 -17t-75 -46.5t-46.5 -70.5t-16 -89q0 -49 16 -90.5t46.5 -72t76 -47.5t105.5 -17
q52 0 95 10.5t88 27.5v-111q-48 -19 -98 -27.5t-98 -8.5zM435 864l97 -42l-104 -123h-75z" />
    <glyph glyph-name="cacute" unicode="&#x107;" horiz-adv-x="499" 
d="M287 -9q-57 0 -103.5 18.5t-80 51.5t-52 78.5t-18.5 99.5q0 55 18 101.5t51 80.5t79.5 53t103.5 19q66 0 113 -22.5t79 -62.5l-79 -65q-19 21 -46 35.5t-63 14.5q-64 0 -100.5 -40.5t-36.5 -108.5q0 -66 36.5 -109.5t103.5 -43.5q38 0 66.5 14.5t47.5 35.5l76 -64
q-32 -40 -80.5 -63t-114.5 -23zM334 769l98 -45l-108 -171h-76z" />
    <glyph glyph-name="Ccircumflex" unicode="&#x108;" horiz-adv-x="661" 
d="M410 -9q-82 0 -148 25.5t-112.5 70t-71.5 105t-25 131.5q0 72 25 133.5t71.5 106.5t112 70.5t145.5 25.5q49 0 97.5 -8t99.5 -28v-111q-45 17 -88 27.5t-98 10.5q-57 0 -101.5 -17t-75 -46.5t-46.5 -70.5t-16 -89q0 -49 16 -90.5t46.5 -72t76 -47.5t105.5 -17
q52 0 95 10.5t88 27.5v-111q-48 -19 -98 -27.5t-98 -8.5zM344 864h82l121 -165h-75l-87 82l-87 -82h-75z" />
    <glyph glyph-name="ccircumflex" unicode="&#x109;" horiz-adv-x="499" 
d="M287 -9q-57 0 -103.5 18.5t-80 51.5t-52 78.5t-18.5 99.5q0 55 18 101.5t51 80.5t79.5 53t103.5 19q66 0 113 -22.5t79 -62.5l-79 -65q-19 21 -46 35.5t-63 14.5q-64 0 -100.5 -40.5t-36.5 -108.5q0 -66 36.5 -109.5t103.5 -43.5q38 0 66.5 14.5t47.5 35.5l76 -64
q-32 -40 -80.5 -63t-114.5 -23zM240 757h84l121 -204h-76l-87 110l-87 -110h-76z" />
    <glyph glyph-name="Cdotaccent" unicode="&#x10a;" horiz-adv-x="661" 
d="M410 -9q-82 0 -148 25.5t-112.5 70t-71.5 105t-25 131.5q0 72 25 133.5t71.5 106.5t112 70.5t145.5 25.5q49 0 97.5 -8t99.5 -28v-111q-45 17 -88 27.5t-98 10.5q-57 0 -101.5 -17t-75 -46.5t-46.5 -70.5t-16 -89q0 -49 16 -90.5t46.5 -72t76 -47.5t105.5 -17
q52 0 95 10.5t88 27.5v-111q-48 -19 -98 -27.5t-98 -8.5zM390 701q-31 0 -51.5 17.5t-20.5 46.5t20.5 47t51.5 18t51.5 -18t20.5 -47t-20.5 -46.5t-51.5 -17.5z" />
    <glyph glyph-name="cdotaccent" unicode="&#x10b;" horiz-adv-x="499" 
d="M287 -9q-57 0 -103.5 18.5t-80 51.5t-52 78.5t-18.5 99.5q0 55 18 101.5t51 80.5t79.5 53t103.5 19q66 0 113 -22.5t79 -62.5l-79 -65q-19 21 -46 35.5t-63 14.5q-64 0 -100.5 -40.5t-36.5 -108.5q0 -66 36.5 -109.5t103.5 -43.5q38 0 66.5 14.5t47.5 35.5l76 -64
q-32 -40 -80.5 -63t-114.5 -23zM285 559q-30 0 -50 17.5t-20 46.5t20 47t50 18t50 -18t20 -47t-20 -46.5t-50 -17.5z" />
    <glyph glyph-name="Ccaron" unicode="&#x10c;" horiz-adv-x="661" 
d="M410 -9q-82 0 -148 25.5t-112.5 70t-71.5 105t-25 131.5q0 72 25 133.5t71.5 106.5t112 70.5t145.5 25.5q49 0 97.5 -8t99.5 -28v-111q-45 17 -88 27.5t-98 10.5q-57 0 -101.5 -17t-75 -46.5t-46.5 -70.5t-16 -89q0 -49 16 -90.5t46.5 -72t76 -47.5t105.5 -17
q52 0 95 10.5t88 27.5v-111q-48 -19 -98 -27.5t-98 -8.5zM226 864h75l87 -82l87 82h75l-121 -165h-82z" />
    <glyph glyph-name="ccaron" unicode="&#x10d;" horiz-adv-x="499" 
d="M287 -9q-57 0 -103.5 18.5t-80 51.5t-52 78.5t-18.5 99.5q0 55 18 101.5t51 80.5t79.5 53t103.5 19q66 0 113 -22.5t79 -62.5l-79 -65q-19 21 -46 35.5t-63 14.5q-64 0 -100.5 -40.5t-36.5 -108.5q0 -66 36.5 -109.5t103.5 -43.5q38 0 66.5 14.5t47.5 35.5l76 -64
q-32 -40 -80.5 -63t-114.5 -23zM123 757h76l87 -111l87 111h76l-121 -204h-84z" />
    <glyph glyph-name="Dcaron" unicode="&#x10e;" horiz-adv-x="726" 
d="M78 650h236q87 0 149 -19.5t106 -55.5q51 -42 77.5 -103.5t26.5 -138.5q0 -76 -26.5 -138.5t-75.5 -107.5q-45 -42 -109.5 -64.5t-155.5 -22.5h-228v650zM308 106q63 0 105 14.5t71 40.5q32 30 48.5 73t16.5 94q0 112 -66 168q-28 24 -70 36t-106 12h-108v-438h109z
M178 864h75l87 -82l87 82h75l-121 -165h-82z" />
    <glyph glyph-name="dcaron" unicode="&#x10f;" horiz-adv-x="624" 
d="M257 -9q-50 0 -91 19t-70.5 53t-46 79.5t-16.5 99.5t17 100t47.5 79.5t74 52.5t97.5 19q35 0 73 -11t65 -34v247h115v-695h-113v61q-27 -34 -66 -52t-86 -18zM288 90q21 0 42.5 5.5t38.5 17t28 28t11 38.5v153q0 15 -10 26t-26 19t-36 12t-41 4q-73 0 -108 -42.5
t-35 -108.5t34 -109t102 -43zM583 702l99 -22l-52 -195h-68z" />
    <glyph glyph-name="Dcroat" unicode="&#x110;" horiz-adv-x="764" 
d="M115 274h-78v105h78v271h237q86 0 148 -19.5t107 -55.5q51 -42 77.5 -103.5t26.5 -138.5q0 -76 -26.5 -138.5t-76.5 -107.5q-45 -42 -109.5 -64.5t-155.5 -22.5h-228v274zM345 104q63 0 105 15t71 41q32 30 48.5 73.5t16.5 94.5q0 55 -16 98t-50 71q-28 24 -69.5 36.5
t-106.5 12.5h-108v-168h159v-103h-159v-171h109z" />
    <glyph glyph-name="dcroat" unicode="&#x111;" horiz-adv-x="599" 
d="M257 -9q-50 0 -91 19t-70.5 52t-46 78t-16.5 98t17 98t47.5 78t74 51.5t97.5 18.5q35 0 73 -11t65 -34v109h-138v77h138v70h115v-70h67v-77h-67v-548h-113v61q-27 -34 -66 -52t-86 -18zM288 90q21 0 42.5 5.5t38.5 17t28 28t11 38.5v144q0 15 -10 26t-26 19t-36 12t-41 4
q-73 0 -108 -41.5t-35 -105.5q0 -63 34 -105t102 -42z" />
    <glyph glyph-name="Emacron" unicode="&#x112;" 
d="M78 650h437v-105h-316v-168h232v-101h-232v-171h363v-105h-484v650zM136 813h320v-88h-320v88z" />
    <glyph glyph-name="emacron" unicode="&#x113;" horiz-adv-x="530" 
d="M285 -9q-57 0 -103.5 18t-79.5 50.5t-51 78t-18 101.5q0 55 17 102t48.5 80.5t74.5 52.5t96 19q61 0 104 -21.5t71 -59t40.5 -89t11.5 -111.5h-345q5 -57 40.5 -92.5t98.5 -35.5q42 0 72.5 15t50.5 37l67 -66q-35 -38 -84.5 -58.5t-110.5 -20.5zM378 292
q-4 47 -28.5 77.5t-78.5 30.5q-48 0 -79.5 -30t-39.5 -78h226zM108 661h320v-83h-320v83z" />
    <glyph glyph-name="Ebreve" unicode="&#x114;" 
d="M78 650h437v-105h-316v-168h232v-101h-232v-171h363v-105h-484v650zM301 690q-39 0 -68 12.5t-48.5 33t-31 46.5t-15.5 54h66q6 -24 28 -43t69 -19t69 19t28 43h66q-4 -28 -15.5 -54t-31 -46.5t-48.5 -33t-68 -12.5z" />
    <glyph glyph-name="ebreve" unicode="&#x115;" horiz-adv-x="530" 
d="M285 -9q-57 0 -103.5 18t-79.5 50.5t-51 78t-18 101.5q0 55 17 102t48.5 80.5t74.5 52.5t96 19q61 0 104 -21.5t71 -59t40.5 -89t11.5 -111.5h-345q5 -57 40.5 -92.5t98.5 -35.5q42 0 72.5 15t50.5 37l67 -66q-35 -38 -84.5 -58.5t-110.5 -20.5zM378 292
q-4 47 -28.5 77.5t-78.5 30.5q-48 0 -79.5 -30t-39.5 -78h226zM264 550q-39 0 -68 14t-48.5 37.5t-31 54t-15.5 62.5h66q3 -14 10 -29t18.5 -27t28.5 -19.5t40 -7.5t40 7.5t28.5 19.5t18.5 27t10 29h66q-4 -32 -15.5 -62.5t-31 -54t-48.5 -37.5t-68 -14z" />
    <glyph glyph-name="Edotaccent" unicode="&#x116;" 
d="M78 650h437v-105h-316v-168h232v-101h-232v-171h363v-105h-484v650zM296 701q-31 0 -51.5 17.5t-20.5 46.5t20.5 47t51.5 18t51.5 -18t20.5 -47t-20.5 -46.5t-51.5 -17.5z" />
    <glyph glyph-name="edotaccent" unicode="&#x117;" horiz-adv-x="530" 
d="M285 -9q-57 0 -103.5 18t-79.5 50.5t-51 78t-18 101.5q0 55 17 102t48.5 80.5t74.5 52.5t96 19q61 0 104 -21.5t71 -59t40.5 -89t11.5 -111.5h-345q5 -57 40.5 -92.5t98.5 -35.5q42 0 72.5 15t50.5 37l67 -66q-35 -38 -84.5 -58.5t-110.5 -20.5zM378 292
q-4 47 -28.5 77.5t-78.5 30.5q-48 0 -79.5 -30t-39.5 -78h226zM267 559q-30 0 -50 17.5t-20 46.5t20 47t50 18t50 -18t20 -47t-20 -46.5t-50 -17.5z" />
    <glyph glyph-name="Eogonek" unicode="&#x118;" 
d="M78 650h437v-105h-316v-168h232v-101h-232v-171h363v-105h-53q-42 0 -67 -17.5t-25 -43.5q0 -22 17 -32t44 -10q21 0 38 3.5t28 7.5l22 -66q-17 -6 -43.5 -11.5t-60.5 -5.5q-60 0 -96.5 23t-36.5 68q0 29 17 51t39 33h-307v650z" />
    <glyph glyph-name="eogonek" unicode="&#x119;" horiz-adv-x="530" 
d="M254 -85q0 27 13.5 46t32.5 32q-54 -4 -102.5 10.5t-85 46t-58 79t-21.5 110.5q0 55 17 102t48.5 80.5t74.5 52.5t96 19q61 0 104 -21.5t71 -59t40.5 -89t11.5 -111.5h-345q5 -57 40.5 -92.5t98.5 -35.5q42 0 72.5 15t50.5 37l67 -66q-15 -15 -33 -27.5t-41 -25.5
q-32 -19 -48 -36t-16 -40q0 -24 17 -34t44 -10q21 0 38 3.5t28 7.5l22 -66q-17 -6 -43.5 -11.5t-60.5 -5.5q-60 0 -96.5 22.5t-36.5 67.5zM378 292q-4 47 -28.5 77.5t-78.5 30.5q-48 0 -79.5 -30t-39.5 -78h226z" />
    <glyph glyph-name="Ecaron" unicode="&#x11a;" 
d="M78 650h437v-105h-316v-168h232v-101h-232v-171h363v-105h-484v650zM130 864h75l87 -82l87 82h75l-121 -165h-82z" />
    <glyph glyph-name="ecaron" unicode="&#x11b;" horiz-adv-x="530" 
d="M285 -9q-57 0 -103.5 18t-79.5 50.5t-51 78t-18 101.5q0 55 17 102t48.5 80.5t74.5 52.5t96 19q61 0 104 -21.5t71 -59t40.5 -89t11.5 -111.5h-345q5 -57 40.5 -92.5t98.5 -35.5q42 0 72.5 15t50.5 37l67 -66q-35 -38 -84.5 -58.5t-110.5 -20.5zM378 292
q-4 47 -28.5 77.5t-78.5 30.5q-48 0 -79.5 -30t-39.5 -78h226zM114 757h76l87 -111l87 111h76l-121 -204h-84z" />
    <glyph glyph-name="Gcircumflex" unicode="&#x11c;" horiz-adv-x="712" 
d="M423 -9q-86 0 -154.5 24.5t-116.5 69t-73.5 105.5t-25.5 133q0 73 25.5 135t73.5 106.5t117.5 69.5t156.5 25q56 0 110.5 -8t105.5 -28v-109q-48 17 -98 27.5t-113 10.5q-62 0 -109 -16.5t-79 -46t-48.5 -71t-16.5 -91.5q0 -51 16.5 -93.5t48.5 -72.5t79 -46.5t109 -16.5
q23 0 45.5 2.5t42.5 7.5v149h-125v97h240v-327q-51 -20 -105.5 -28t-105.5 -8zM358 864h82l121 -165h-75l-87 82l-87 -82h-75z" />
    <glyph glyph-name="gcircumflex" unicode="&#x11d;" horiz-adv-x="589" 
d="M93 -44q82 -37 166 -37q30 0 56.5 5.5t47 17.5t32.5 31.5t12 48.5v58q-27 -32 -65.5 -48.5t-84.5 -16.5q-48 0 -89 17t-71 48t-47 75t-17 97q0 55 18 99.5t50.5 76t77 48.5t98.5 17q43 0 87.5 -13t74.5 -41l55 48h28v-472q0 -44 -18.5 -79.5t-52.5 -60t-82 -37.5
t-106 -13q-66 0 -118 13t-87 28zM288 111q21 0 42.5 6t38.5 17t28 27.5t11 37.5v136q0 15 -10 26t-26 19t-36 12t-40 4q-72 0 -108 -39t-36 -104q0 -63 34 -102.5t102 -39.5zM255 757h84l121 -204h-76l-87 110l-87 -110h-76z" />
    <glyph glyph-name="Gbreve" unicode="&#x11e;" horiz-adv-x="712" 
d="M423 -9q-86 0 -154.5 24.5t-116.5 69t-73.5 105.5t-25.5 133q0 73 25.5 135t73.5 106.5t117.5 69.5t156.5 25q56 0 110.5 -8t105.5 -28v-109q-48 17 -98 27.5t-113 10.5q-62 0 -109 -16.5t-79 -46t-48.5 -71t-16.5 -91.5q0 -51 16.5 -93.5t48.5 -72.5t79 -46.5t109 -16.5
q23 0 45.5 2.5t42.5 7.5v149h-125v97h240v-327q-51 -20 -105.5 -28t-105.5 -8zM391 690q-39 0 -68 12.5t-48.5 33t-31 46.5t-15.5 54h66q6 -24 28 -43t69 -19t69 19t28 43h66q-4 -28 -15.5 -54t-31 -46.5t-48.5 -33t-68 -12.5z" />
    <glyph glyph-name="gbreve" unicode="&#x11f;" horiz-adv-x="589" 
d="M93 -44q82 -37 166 -37q30 0 56.5 5.5t47 17.5t32.5 31.5t12 48.5v58q-27 -32 -65.5 -48.5t-84.5 -16.5q-48 0 -89 17t-71 48t-47 75t-17 97q0 55 18 99.5t50.5 76t77 48.5t98.5 17q43 0 87.5 -13t74.5 -41l55 48h28v-472q0 -44 -18.5 -79.5t-52.5 -60t-82 -37.5
t-106 -13q-66 0 -118 13t-87 28zM288 111q21 0 42.5 6t38.5 17t28 27.5t11 37.5v136q0 15 -10 26t-26 19t-36 12t-40 4q-72 0 -108 -39t-36 -104q0 -63 34 -102.5t102 -39.5zM296 550q-39 0 -68 14t-48.5 37.5t-31 54t-15.5 62.5h66q3 -14 10 -29t18.5 -27t28.5 -19.5
t40 -7.5t40 7.5t28.5 19.5t18.5 27t10 29h66q-4 -32 -15.5 -62.5t-31 -54t-48.5 -37.5t-68 -14z" />
    <glyph glyph-name="Gdotaccent" unicode="&#x120;" horiz-adv-x="712" 
d="M423 -9q-86 0 -154.5 24.5t-116.5 69t-73.5 105.5t-25.5 133q0 73 25.5 135t73.5 106.5t117.5 69.5t156.5 25q56 0 110.5 -8t105.5 -28v-109q-48 17 -98 27.5t-113 10.5q-62 0 -109 -16.5t-79 -46t-48.5 -71t-16.5 -91.5q0 -51 16.5 -93.5t48.5 -72.5t79 -46.5t109 -16.5
q23 0 45.5 2.5t42.5 7.5v149h-125v97h240v-327q-51 -20 -105.5 -28t-105.5 -8zM402 701q-31 0 -51.5 17.5t-20.5 46.5t20.5 47t51.5 18t51.5 -18t20.5 -47t-20.5 -46.5t-51.5 -17.5z" />
    <glyph glyph-name="gdotaccent" unicode="&#x121;" horiz-adv-x="589" 
d="M93 -44q82 -37 166 -37q30 0 56.5 5.5t47 17.5t32.5 31.5t12 48.5v58q-27 -32 -65.5 -48.5t-84.5 -16.5q-48 0 -89 17t-71 48t-47 75t-17 97q0 55 18 99.5t50.5 76t77 48.5t98.5 17q43 0 87.5 -13t74.5 -41l55 48h28v-472q0 -44 -18.5 -79.5t-52.5 -60t-82 -37.5
t-106 -13q-66 0 -118 13t-87 28zM288 111q21 0 42.5 6t38.5 17t28 27.5t11 37.5v136q0 15 -10 26t-26 19t-36 12t-40 4q-72 0 -108 -39t-36 -104q0 -63 34 -102.5t102 -39.5zM297 559q-30 0 -50 17.5t-20 46.5t20 47t50 18t50 -18t20 -47t-20 -46.5t-50 -17.5z" />
    <glyph glyph-name="Gcommaaccent" unicode="&#x122;" horiz-adv-x="712" 
d="M423 -9q-86 0 -154.5 24.5t-116.5 69t-73.5 105.5t-25.5 133q0 73 25.5 135t73.5 106.5t117.5 69.5t156.5 25q56 0 110.5 -8t105.5 -28v-109q-48 17 -98 27.5t-113 10.5q-62 0 -109 -16.5t-79 -46t-48.5 -71t-16.5 -91.5q0 -51 16.5 -93.5t48.5 -72.5t79 -46.5t109 -16.5
q23 0 45.5 2.5t42.5 7.5v149h-125v97h240v-327q-51 -20 -105.5 -28t-105.5 -8zM342 -49h114l-103 -157l-63 25z" />
    <glyph glyph-name="gcommaaccent" unicode="&#x123;" horiz-adv-x="589" 
d="M93 -44q82 -37 166 -37q30 0 56.5 5.5t47 17.5t32.5 31.5t12 48.5v58q-27 -32 -65.5 -48.5t-84.5 -16.5q-48 0 -89 17t-71 48t-47 75t-17 97q0 55 18 99.5t50.5 76t77 48.5t98.5 17q43 0 87.5 -13t74.5 -41l55 48h28v-472q0 -44 -18.5 -79.5t-52.5 -60t-82 -37.5
t-106 -13q-66 0 -118 13t-87 28zM288 111q21 0 42.5 6t38.5 17t28 27.5t11 37.5v136q0 15 -10 26t-26 19t-36 12t-40 4q-72 0 -108 -39t-36 -104q0 -63 34 -102.5t102 -39.5zM363 553h-114l103 157l63 -25z" />
    <glyph glyph-name="Hcircumflex" unicode="&#x124;" horiz-adv-x="705" 
d="M78 650h122v-269h305v269h122v-650h-122v272h-305v-272h-122v650zM311 864h82l121 -165h-75l-87 82l-87 -82h-75z" />
    <glyph glyph-name="hcircumflex" unicode="&#x125;" horiz-adv-x="533" 
d="M67 695h115v-262q22 26 58 43t81 17q71 0 112 -35.5t41 -90.5v-367h-115v333q0 33 -21.5 45.5t-56.5 12.5q-23 0 -41 -5.5t-31 -13t-20 -15.5t-7 -14v-343h-115v695zM84 882h82l121 -165h-75l-87 82l-87 -82h-75z" />
    <glyph glyph-name="Hbar" unicode="&#x126;" horiz-adv-x="779" 
d="M115 464h-78v97h78v89h122v-89h305v89h122v-89h78v-97h-78v-464h-122v270h-305v-270h-122v464zM542 373v91h-305v-91h305z" />
    <glyph glyph-name="hbar" unicode="&#x127;" horiz-adv-x="543" 
d="M77 548h-67v77h67v70h115v-70h121v-77h-121v-124q22 26 58 43t81 17q71 0 112 -35.5t41 -91.5v-357h-115v324q0 33 -21.5 45.5t-56.5 12.5q-23 0 -41 -5.5t-31 -13t-20 -15.5t-7 -14v-334h-115v548z" />
    <glyph glyph-name="Itilde" unicode="&#x128;" horiz-adv-x="278" 
d="M78 650h122v-650h-122v650zM-13 695q2 137 87 137q22 0 40.5 -8.5t34 -19t28.5 -19t24 -8.5q15 0 21.5 15t7.5 39h61q-2 -137 -87 -137q-22 0 -40 8.5t-33.5 18.5t-28.5 18.5t-24 8.5q-15 0 -22 -14.5t-8 -38.5h-61z" />
    <glyph glyph-name="itilde" unicode="&#x129;" horiz-adv-x="248" 
d="M67 484h115v-484h-115v484zM-17 554q2 148 81 148q20 0 37 -9.5t31.5 -21t26.5 -21t22 -9.5q14 0 19.5 18.5t6.5 41.5h58q-2 -148 -80 -148q-20 0 -37.5 9.5t-32 20.5t-26.5 20.5t-22 9.5q-14 0 -19 -18t-6 -41h-59z" />
    <glyph glyph-name="Imacron" unicode="&#x12a;" horiz-adv-x="278" 
d="M78 650h122v-650h-122v650zM0 813h278v-88h-278v88z" />
    <glyph glyph-name="imacron" unicode="&#x12b;" horiz-adv-x="248" 
d="M67 484h115v-484h-115v484zM0 661h248v-83h-248v83z" />
    <glyph glyph-name="Ibreve" unicode="&#x12c;" horiz-adv-x="278" 
d="M78 650h122v-650h-122v650zM139 690q-36 0 -62 12t-43.5 32t-27.5 46.5t-13 55.5h63q6 -25 23.5 -43.5t59.5 -18.5q41 0 58.5 18.5t23.5 43.5h64q-3 -29 -13 -55.5t-28 -46.5t-44 -32t-61 -12z" />
    <glyph glyph-name="ibreve" unicode="&#x12d;" horiz-adv-x="248" 
d="M67 484h115v-484h-115v484zM124 550q-33 0 -57.5 13t-41.5 35.5t-26 53.5t-12 66h60q3 -15 8 -30t14 -26.5t22.5 -19t32.5 -7.5t32.5 7.5t22.5 19t14.5 26.5t7.5 30h61q-3 -35 -12.5 -66t-26.5 -53.5t-41.5 -35.5t-57.5 -13z" />
    <glyph glyph-name="Iogonek" unicode="&#x12e;" horiz-adv-x="278" 
d="M78 650h122v-650q-48 0 -72.5 -17.5t-24.5 -43.5q0 -22 17 -32t44 -10q21 0 38 3.5t28 7.5l21 -66q-16 -6 -42.5 -11.5t-61.5 -5.5q-60 0 -96.5 23t-36.5 69q0 33 19 57.5t45 37.5v638z" />
    <glyph glyph-name="iogonek" unicode="&#x12f;" horiz-adv-x="248" 
d="M4 -83q0 32 18.5 56.5t44.5 38.5v472h115v-484q-42 0 -66 -17t-24 -43q0 -23 17 -33t44 -10q21 0 38 3.5t28 7.5l22 -66q-17 -6 -43.5 -11.5t-60.5 -5.5q-60 0 -96.5 23t-36.5 69zM124 555q-30 0 -50 18t-20 47t20 47t50 18q31 0 50.5 -18t19.5 -47t-19.5 -47t-50.5 -18z
" />
    <glyph glyph-name="Idotaccent" unicode="&#x130;" horiz-adv-x="278" 
d="M78 650h122v-650h-122v650zM139 701q-31 0 -51.5 17.5t-20.5 46.5t20.5 47t51.5 18t51.5 -18t20.5 -47t-20.5 -46.5t-51.5 -17.5z" />
    <glyph glyph-name="dotlessi" unicode="&#x131;" horiz-adv-x="248" 
d="M67 484h115v-484h-115v484z" />
    <glyph glyph-name="IJ" unicode="&#x132;" horiz-adv-x="760" 
d="M78 650h122v-650h-122v650zM346 147q24 -22 54 -34.5t72 -12.5q38 0 65.5 14.5t27.5 51.5v484h122v-504q0 -38 -16 -67t-44 -48.5t-66 -29.5t-82 -10q-69 0 -116 18.5t-74 42.5z" />
    <glyph glyph-name="ij" unicode="&#x133;" horiz-adv-x="497" 
d="M67 484h115v-484h-115v484zM124 555q-30 0 -50 18t-20 47t20 47t50 18q31 0 50.5 -18t19.5 -47t-19.5 -47t-50.5 -18zM208 -60q11 -6 26 -10t31 -4q18 0 34 9t16 36v513h115v-514q0 -38 -11.5 -65.5t-31.5 -45t-47.5 -26t-58.5 -8.5q-32 0 -58 6t-46 16zM372 555
q-30 0 -50 18t-20 47t20 47t50 18q31 0 50.5 -18t19.5 -47t-19.5 -47t-50.5 -18z" />
    <glyph glyph-name="Jcircumflex" unicode="&#x134;" horiz-adv-x="483" 
d="M68 147q24 -22 54 -34.5t72 -12.5q38 0 65.5 14.5t27.5 51.5v484h122v-504q0 -38 -16 -67t-44 -48.5t-66 -29.5t-82 -10q-69 0 -116 18.5t-74 42.5zM306 864h83l106 -165h-75l-72 82l-73 -82h-74z" />
    <glyph glyph-name="jcircumflex" unicode="&#x135;" horiz-adv-x="248" 
d="M-40 -60q11 -6 26 -10t31 -4q18 0 34 9t16 36v513h115v-514q0 -38 -11.5 -65.5t-31.5 -45t-47.5 -26t-58.5 -8.5q-32 0 -58 6t-46 16zM82 757h84l102 -204h-75l-69 110l-68 -110h-76z" />
    <glyph glyph-name="Kcommaaccent" unicode="&#x136;" horiz-adv-x="625" 
d="M78 650h122v-286l248 286h150l-287 -316l314 -334h-157l-250 268h-18v-268h-122v650zM271 -49h114l-103 -157l-63 25z" />
    <glyph glyph-name="kcommaaccent" unicode="&#x137;" horiz-adv-x="496" 
d="M67 695h115v-401l167 190h142l-195 -211l202 -273h-141l-157 213h-18v-213h-115v695zM210 -49h114l-103 -157l-63 25z" />
    <glyph glyph-name="Lacute" unicode="&#x139;" horiz-adv-x="568" 
d="M78 650h122v-543h360v-107h-482v650zM172 864l97 -42l-104 -123h-75z" />
    <glyph glyph-name="lacute" unicode="&#x13a;" horiz-adv-x="248" 
d="M67 695h115v-695h-115v695zM163 882l97 -42l-104 -123h-75z" />
    <glyph glyph-name="Lcommaaccent" unicode="&#x13b;" horiz-adv-x="568" 
d="M78 650h122v-543h360v-107h-482v650zM263 -49h114l-103 -157l-63 25z" />
    <glyph glyph-name="lcommaaccent" unicode="&#x13c;" horiz-adv-x="248" 
d="M67 695h115v-695h-115v695zM69 -49h114l-103 -157l-63 25z" />
    <glyph glyph-name="Lcaron" unicode="&#x13d;" horiz-adv-x="568" 
d="M78 650h122v-543h360v-107h-482v650zM324 702l99 -22l-52 -195h-68z" />
    <glyph glyph-name="lcaron" unicode="&#x13e;" horiz-adv-x="283" 
d="M67 695h115v-695h-115v695zM242 702l99 -22l-52 -195h-68z" />
    <glyph glyph-name="Ldot" unicode="&#x13f;" horiz-adv-x="568" 
d="M78 650h122v-543h360v-107h-482v650zM421 292q-30 0 -49.5 19.5t-19.5 48.5t19.5 48.5t49.5 19.5q29 0 49 -19.5t20 -48.5t-20 -48.5t-49 -19.5z" />
    <glyph glyph-name="ldot" unicode="&#x140;" horiz-adv-x="386" 
d="M67 695h115v-695h-115v695zM318 248q-29 0 -49 19.5t-20 48.5t20 48.5t49 19.5q30 0 49.5 -19.5t19.5 -48.5t-19.5 -48.5t-49.5 -19.5z" />
    <glyph glyph-name="Lslash" unicode="&#x141;" horiz-adv-x="605" 
d="M115 255l-78 -25v107l78 25v288h122v-249l187 60v-108l-187 -60v-186h360v-107h-482v255z" />
    <glyph glyph-name="lslash" unicode="&#x142;" horiz-adv-x="283" 
d="M84 259l-68 -33v101l68 34v334h115v-277l68 34v-102l-68 -33v-317h-115v259z" />
    <glyph glyph-name="Nacute" unicode="&#x143;" horiz-adv-x="724" 
d="M78 650h115l332 -399v399h121v-657h-49l-398 472v-465h-121v650zM399 864l97 -42l-104 -123h-75z" />
    <glyph glyph-name="nacute" unicode="&#x144;" horiz-adv-x="533" 
d="M67 484h115v-51q22 26 58 43t81 17q71 0 112 -35.5t41 -90.5v-367h-115v333q0 33 -21.5 45.5t-56.5 12.5q-23 0 -41 -5.5t-31 -13t-20 -15.5t-7 -14v-343h-115v484zM322 769l98 -45l-108 -171h-76z" />
    <glyph glyph-name="Ncommaaccent" unicode="&#x145;" horiz-adv-x="724" 
d="M78 650h115l332 -399v399h121v-657h-49l-398 472v-465h-121v650zM314 -49h114l-103 -157l-63 25z" />
    <glyph glyph-name="ncommaaccent" unicode="&#x146;" horiz-adv-x="533" 
d="M67 484h115v-51q22 26 58 43t81 17q71 0 112 -35.5t41 -90.5v-367h-115v333q0 33 -21.5 45.5t-56.5 12.5q-23 0 -41 -5.5t-31 -13t-20 -15.5t-7 -14v-343h-115v484zM221 -49h114l-103 -157l-63 25z" />
    <glyph glyph-name="Ncaron" unicode="&#x147;" horiz-adv-x="724" 
d="M78 650h115l332 -399v399h121v-657h-49l-398 472v-465h-121v650zM199 864h75l87 -82l87 82h75l-121 -165h-82z" />
    <glyph glyph-name="ncaron" unicode="&#x148;" horiz-adv-x="533" 
d="M67 484h115v-51q22 26 58 43t81 17q71 0 112 -35.5t41 -90.5v-367h-115v333q0 33 -21.5 45.5t-56.5 12.5q-23 0 -41 -5.5t-31 -13t-20 -15.5t-7 -14v-343h-115v484zM111 757h76l87 -111l87 111h76l-121 -204h-84z" />
    <glyph glyph-name="Eng" unicode="&#x14a;" horiz-adv-x="724" 
d="M78 650h115l332 -399v399h121v-627q0 -91 -53 -137.5t-144 -46.5q-51 0 -89 14.5t-64 35.5l52 95q17 -15 41.5 -26.5t55.5 -11.5q38 0 59.5 20.5t21.5 65.5v43l-327 390v-465h-121v650z" />
    <glyph glyph-name="eng" unicode="&#x14b;" horiz-adv-x="533" 
d="M263 -64q10 -5 22 -8.5t26 -3.5q48 0 48 48v361q0 33 -21.5 45.5t-56.5 12.5q-23 0 -41 -5.5t-31 -13t-20 -15.5t-7 -14v-343h-115v484h115v-51q22 26 58 43t81 17q71 0 112 -35.5t41 -90.5v-396q0 -69 -38 -107.5t-110 -38.5q-29 0 -52.5 5.5t-41.5 13.5z" />
    <glyph glyph-name="Omacron" unicode="&#x14c;" horiz-adv-x="779" 
d="M389 -9q-74 0 -136 25t-106.5 69.5t-69 105.5t-24.5 133t25 133.5t69.5 106t106.5 70t136 25.5t136 -25t106.5 -69.5t69 -105.5t24.5 -133t-25 -133.5t-69.5 -106t-106.5 -70t-136 -25.5zM390 100q48 0 87 16.5t66.5 46.5t42.5 71.5t15 90.5t-15 90.5t-42.5 71.5
t-66.5 46.5t-87 16.5t-87 -16.5t-67 -46.5t-43 -71.5t-15 -90.5t15 -90.5t42.5 -71.5t67 -46.5t87.5 -16.5zM230 813h320v-88h-320v88z" />
    <glyph glyph-name="omacron" unicode="&#x14d;" horiz-adv-x="583" 
d="M291 -9q-57 0 -104.5 18.5t-81.5 52t-53 79.5t-19 101t19 101t53 79.5t81.5 52t104.5 18.5q58 0 105.5 -18.5t81.5 -52t52.5 -79.5t18.5 -101t-19 -101t-53 -79.5t-81.5 -52t-104.5 -18.5zM291 91q65 0 102 41.5t37 109.5t-37 109.5t-102 41.5q-64 0 -101.5 -41.5
t-37.5 -109.5t37.5 -109.5t101.5 -41.5zM131 661h320v-83h-320v83z" />
    <glyph glyph-name="Obreve" unicode="&#x14e;" horiz-adv-x="779" 
d="M389 -9q-74 0 -136 25t-106.5 69.5t-69 105.5t-24.5 133t25 133.5t69.5 106t106.5 70t136 25.5t136 -25t106.5 -69.5t69 -105.5t24.5 -133t-25 -133.5t-69.5 -106t-106.5 -70t-136 -25.5zM390 100q48 0 87 16.5t66.5 46.5t42.5 71.5t15 90.5t-15 90.5t-42.5 71.5
t-66.5 46.5t-87 16.5t-87 -16.5t-67 -46.5t-43 -71.5t-15 -90.5t15 -90.5t42.5 -71.5t67 -46.5t87.5 -16.5zM390 690q-39 0 -68 12.5t-48.5 33t-31 46.5t-15.5 54h66q6 -24 28 -43t69 -19t69 19t28 43h66q-4 -28 -15.5 -54t-31 -46.5t-48.5 -33t-68 -12.5z" />
    <glyph glyph-name="obreve" unicode="&#x14f;" horiz-adv-x="583" 
d="M291 -9q-57 0 -104.5 18.5t-81.5 52t-53 79.5t-19 101t19 101t53 79.5t81.5 52t104.5 18.5q58 0 105.5 -18.5t81.5 -52t52.5 -79.5t18.5 -101t-19 -101t-53 -79.5t-81.5 -52t-104.5 -18.5zM291 91q65 0 102 41.5t37 109.5t-37 109.5t-102 41.5q-64 0 -101.5 -41.5
t-37.5 -109.5t37.5 -109.5t101.5 -41.5zM291 550q-39 0 -68 14t-48.5 37.5t-31 54t-15.5 62.5h66q3 -14 10 -29t18.5 -27t28.5 -19.5t40 -7.5t40 7.5t28.5 19.5t18.5 27t10 29h66q-4 -32 -15.5 -62.5t-31 -54t-48.5 -37.5t-68 -14z" />
    <glyph glyph-name="Ohungarumlaut" unicode="&#x150;" horiz-adv-x="779" 
d="M389 -9q-74 0 -136 25t-106.5 69.5t-69 105.5t-24.5 133t25 133.5t69.5 106t106.5 70t136 25.5t136 -25t106.5 -69.5t69 -105.5t24.5 -133t-25 -133.5t-69.5 -106t-106.5 -70t-136 -25.5zM390 100q48 0 87 16.5t66.5 46.5t42.5 71.5t15 90.5t-15 90.5t-42.5 71.5
t-66.5 46.5t-87 16.5t-87 -16.5t-67 -46.5t-43 -71.5t-15 -90.5t15 -90.5t42.5 -71.5t67 -46.5t87.5 -16.5zM349 864l90 -40l-95 -125h-75zM511 864l91 -40l-96 -125h-74z" />
    <glyph glyph-name="ohungarumlaut" unicode="&#x151;" horiz-adv-x="583" 
d="M291 -9q-57 0 -104.5 18.5t-81.5 52t-53 79.5t-19 101t19 101t53 79.5t81.5 52t104.5 18.5q58 0 105.5 -18.5t81.5 -52t52.5 -79.5t18.5 -101t-19 -101t-53 -79.5t-81.5 -52t-104.5 -18.5zM291 91q65 0 102 41.5t37 109.5t-37 109.5t-102 41.5q-64 0 -101.5 -41.5
t-37.5 -109.5t37.5 -109.5t101.5 -41.5zM252 769l95 -45l-105 -171h-79zM425 769l95 -45l-105 -171h-79z" />
    <glyph glyph-name="OE" unicode="&#x152;" horiz-adv-x="1103" 
d="M377 -9q-71 0 -130 25t-102.5 69.5t-67.5 105.5t-24 133t24.5 133t67.5 106t102.5 70.5t129.5 25.5q75 0 133 -28t96 -77v96h432v-105h-317v-168h233v-101h-233v-171h364v-105h-479v96q-38 -48 -96.5 -76.5t-132.5 -28.5zM388 100q48 0 87.5 16.5t67.5 46.5t43 71.5
t15 90.5t-15 90.5t-43 71.5t-67.5 46.5t-87.5 16.5t-86.5 -16.5t-66 -46.5t-42.5 -71.5t-15 -90.5t15 -90.5t42.5 -71.5t66 -46.5t86.5 -16.5z" />
    <glyph glyph-name="oe" unicode="&#x153;" horiz-adv-x="927" 
d="M286 -9q-57 0 -103.5 18.5t-80 52t-51.5 79.5t-18 101q0 54 18 100t51.5 79.5t80 52.5t103.5 19q69 0 120 -27.5t82 -75.5q28 47 74 75t109 28q59 0 101.5 -21.5t69.5 -59t39.5 -89t11.5 -111.5h-345q5 -57 40.5 -92.5t98.5 -35.5q42 0 72.5 15t50.5 37l67 -66
q-35 -38 -84 -58.5t-109 -20.5q-69 0 -118.5 27t-78.5 74q-31 -47 -81.5 -74t-119.5 -27zM291 91q65 0 102 41.5t37 109.5t-37 109.5t-102 41.5q-64 0 -101.5 -41.5t-37.5 -109.5t37.5 -109.5t101.5 -41.5zM775 292q-4 47 -28.5 77.5t-78.5 30.5q-48 0 -79.5 -30t-39.5 -78
h226z" />
    <glyph glyph-name="Racute" unicode="&#x154;" horiz-adv-x="639" 
d="M78 650h213q126 0 190.5 -52t64.5 -146q0 -38 -12 -66.5t-32.5 -50.5t-47.5 -36.5t-58 -23.5l246 -275h-156l-222 254h-64v-254h-122v650zM274 355q28 0 54.5 4t47 15t32.5 30.5t12 49.5q0 48 -31 70.5t-98 22.5h-91v-192h74zM318 864l97 -42l-104 -123h-75z" />
    <glyph glyph-name="racute" unicode="&#x155;" horiz-adv-x="389" 
d="M67 484h115v-69q20 32 50 55t77 23q23 0 44 -5t39 -13l-33 -110q-35 16 -74 16q-25 0 -44.5 -7.5t-32.5 -19t-19.5 -23.5t-6.5 -21v-310h-115v484zM261 769l98 -45l-108 -171h-76z" />
    <glyph glyph-name="Rcommaaccent" unicode="&#x156;" horiz-adv-x="639" 
d="M78 650h213q126 0 190.5 -52t64.5 -146q0 -38 -12 -66.5t-32.5 -50.5t-47.5 -36.5t-58 -23.5l246 -275h-156l-222 254h-64v-254h-122v650zM274 355q28 0 54.5 4t47 15t32.5 30.5t12 49.5q0 48 -31 70.5t-98 22.5h-91v-192h74zM265 -49h114l-103 -157l-63 25z" />
    <glyph glyph-name="rcommaaccent" unicode="&#x157;" horiz-adv-x="389" 
d="M67 484h115v-69q20 32 50 55t77 23q23 0 44 -5t39 -13l-33 -110q-35 16 -74 16q-25 0 -44.5 -7.5t-32.5 -19t-19.5 -23.5t-6.5 -21v-310h-115v484zM93 -49h114l-103 -157l-63 25z" />
    <glyph glyph-name="Rcaron" unicode="&#x158;" horiz-adv-x="639" 
d="M78 650h213q126 0 190.5 -52t64.5 -146q0 -38 -12 -66.5t-32.5 -50.5t-47.5 -36.5t-58 -23.5l246 -275h-156l-222 254h-64v-254h-122v650zM274 355q28 0 54.5 4t47 15t32.5 30.5t12 49.5q0 48 -31 70.5t-98 22.5h-91v-192h74zM127 864h75l87 -82l87 82h75l-121 -165h-82z
" />
    <glyph glyph-name="rcaron" unicode="&#x159;" horiz-adv-x="389" 
d="M67 484h115v-69q20 32 50 55t77 23q23 0 44 -5t39 -13l-33 -110q-35 16 -74 16q-25 0 -44.5 -7.5t-32.5 -19t-19.5 -23.5t-6.5 -21v-310h-115v484zM58 757h76l87 -111l87 111h76l-121 -204h-84z" />
    <glyph glyph-name="Sacute" unicode="&#x15a;" horiz-adv-x="547" 
d="M46 141q14 -6 35 -14t47 -15t55.5 -12t61.5 -5q29 0 54 4.5t43 14.5t28.5 26.5t10.5 40.5q0 25 -13.5 42t-35 29.5t-49.5 22.5t-57 21q-30 11 -59 26t-52 36t-37 50.5t-14 70.5q0 43 15.5 76.5t44 56.5t68.5 35t88 12t91.5 -7t84.5 -20v-108q-41 14 -85 22.5t-87 8.5
q-101 0 -101 -70q0 -21 11.5 -35.5t30 -25.5t42 -20t48.5 -19q33 -13 66 -28t60 -37.5t43.5 -55t16.5 -80.5q0 -47 -18.5 -83t-51.5 -60.5t-79 -37t-101 -12.5q-70 0 -123.5 14.5t-81.5 27.5v108zM319 864l97 -42l-104 -123h-75z" />
    <glyph glyph-name="sacute" unicode="&#x15b;" horiz-adv-x="468" 
d="M46 120q11 -5 28.5 -11t38.5 -11.5t44.5 -9t47.5 -3.5q46 0 74.5 13t28.5 45q0 26 -19 39q-16 11 -41 16t-53 10.5t-56 14.5t-49 28q-17 15 -28.5 38.5t-11.5 58.5q0 38 15 65.5t41 45t60.5 26t74.5 8.5q81 0 155 -21v-100q-40 13 -79 20t-74 7q-40 0 -59 -13t-19 -35
q0 -19 13 -30q13 -12 36.5 -17t51 -10.5t56 -13.5t51.5 -26q22 -16 36.5 -41.5t14.5 -66.5q0 -38 -15.5 -67t-43 -48.5t-66.5 -29.5t-87 -10q-51 0 -97 10t-69 20v99zM284 769l98 -45l-108 -171h-76z" />
    <glyph glyph-name="Scircumflex" unicode="&#x15c;" horiz-adv-x="547" 
d="M46 141q14 -6 35 -14t47 -15t55.5 -12t61.5 -5q29 0 54 4.5t43 14.5t28.5 26.5t10.5 40.5q0 25 -13.5 42t-35 29.5t-49.5 22.5t-57 21q-30 11 -59 26t-52 36t-37 50.5t-14 70.5q0 43 15.5 76.5t44 56.5t68.5 35t88 12t91.5 -7t84.5 -20v-108q-41 14 -85 22.5t-87 8.5
q-101 0 -101 -70q0 -21 11.5 -35.5t30 -25.5t42 -20t48.5 -19q33 -13 66 -28t60 -37.5t43.5 -55t16.5 -80.5q0 -47 -18.5 -83t-51.5 -60.5t-79 -37t-101 -12.5q-70 0 -123.5 14.5t-81.5 27.5v108zM232 864h82l121 -165h-75l-87 82l-87 -82h-75z" />
    <glyph glyph-name="scircumflex" unicode="&#x15d;" horiz-adv-x="468" 
d="M46 120q11 -5 28.5 -11t38.5 -11.5t44.5 -9t47.5 -3.5q46 0 74.5 13t28.5 45q0 26 -19 39q-16 11 -41 16t-53 10.5t-56 14.5t-49 28q-17 15 -28.5 38.5t-11.5 58.5q0 38 15 65.5t41 45t60.5 26t74.5 8.5q81 0 155 -21v-100q-40 13 -79 20t-74 7q-40 0 -59 -13t-19 -35
q0 -19 13 -30q13 -12 36.5 -17t51 -10.5t56 -13.5t51.5 -26q22 -16 36.5 -41.5t14.5 -66.5q0 -38 -15.5 -67t-43 -48.5t-66.5 -29.5t-87 -10q-51 0 -97 10t-69 20v99zM193 757h84l121 -204h-76l-87 110l-87 -110h-76z" />
    <glyph glyph-name="Scedilla" unicode="&#x15e;" horiz-adv-x="547" 
d="M160 -100q15 -5 34.5 -8.5t41.5 -3.5q30 0 41.5 6t11.5 17q0 17 -23 23t-71 8l31 53q-60 2 -108 15.5t-72 25.5v108q14 -6 35 -14t47 -15t55.5 -11.5t61.5 -4.5q29 0 54 4.5t43 14.5t28.5 26t10.5 40q0 25 -13.5 42t-35 29.5t-49.5 22.5t-57 21q-30 11 -59 25.5t-52 35.5
t-37 50t-14 70q0 42 15.5 75.5t44 56.5t68.5 35t88 12t91.5 -7t84.5 -19v-109q-41 14 -85 22.5t-87 8.5q-50 0 -75.5 -18t-25.5 -51q0 -21 11.5 -35.5t30 -25.5t42 -20t48.5 -19q33 -13 66 -27.5t60 -37t43.5 -54.5t16.5 -80q0 -43 -15 -76.5t-42.5 -57.5t-66 -38t-84.5 -18
l-13 -22q41 -4 68 -22.5t27 -50.5q0 -38 -35.5 -57.5t-100.5 -19.5q-29 0 -55.5 4t-44.5 11z" />
    <glyph glyph-name="scedilla" unicode="&#x15f;" horiz-adv-x="468" 
d="M123 -100q15 -5 34.5 -8.5t41.5 -3.5q30 0 41.5 6t11.5 17q0 17 -23 23t-71 8l31 52q-21 1 -42 4.5t-40 7.5t-35 9t-26 9v99q11 -5 28.5 -11t38.5 -11.5t44.5 -9t47.5 -3.5q46 0 74.5 13t28.5 45q0 25 -19 39q-16 11 -41 15.5t-53 10t-56 14t-49 27.5q-17 16 -28.5 39
t-11.5 58q0 37 15 64.5t41 45t60.5 26t74.5 8.5q81 0 155 -21v-99q-40 12 -79 19t-74 7q-40 0 -59 -12.5t-19 -34.5q0 -19 13 -30q13 -12 36.5 -17t51 -10t56 -13t51.5 -26q22 -16 36.5 -41.5t14.5 -65.5q0 -67 -45 -105.5t-123 -46.5l-13 -22q41 -4 68 -22.5t27 -50.5
q0 -38 -35.5 -57.5t-100.5 -19.5q-29 0 -55.5 4t-44.5 11z" />
    <glyph glyph-name="Scaron" unicode="&#x160;" horiz-adv-x="547" 
d="M46 141q14 -6 35 -14t47 -15t55.5 -12t61.5 -5q29 0 54 4.5t43 14.5t28.5 26.5t10.5 40.5q0 25 -13.5 42t-35 29.5t-49.5 22.5t-57 21q-30 11 -59 26t-52 36t-37 50.5t-14 70.5q0 43 15.5 76.5t44 56.5t68.5 35t88 12t91.5 -7t84.5 -20v-108q-41 14 -85 22.5t-87 8.5
q-101 0 -101 -70q0 -21 11.5 -35.5t30 -25.5t42 -20t48.5 -19q33 -13 66 -28t60 -37.5t43.5 -55t16.5 -80.5q0 -47 -18.5 -83t-51.5 -60.5t-79 -37t-101 -12.5q-70 0 -123.5 14.5t-81.5 27.5v108zM114 864h75l87 -82l87 82h75l-121 -165h-82z" />
    <glyph glyph-name="scaron" unicode="&#x161;" horiz-adv-x="468" 
d="M46 120q11 -5 28.5 -11t38.5 -11.5t44.5 -9t47.5 -3.5q46 0 74.5 13t28.5 45q0 26 -19 39q-16 11 -41 16t-53 10.5t-56 14.5t-49 28q-17 15 -28.5 38.5t-11.5 58.5q0 38 15 65.5t41 45t60.5 26t74.5 8.5q81 0 155 -21v-100q-40 13 -79 20t-74 7q-40 0 -59 -13t-19 -35
q0 -19 13 -30q13 -12 36.5 -17t51 -10.5t56 -13.5t51.5 -26q22 -16 36.5 -41.5t14.5 -66.5q0 -38 -15.5 -67t-43 -48.5t-66.5 -29.5t-87 -10q-51 0 -97 10t-69 20v99zM72 757h76l87 -111l87 111h76l-121 -204h-84z" />
    <glyph glyph-name="uni0162" unicode="&#x162;" horiz-adv-x="642" 
d="M211 -107q15 -5 34.5 -8.5t41.5 -3.5q31 0 42 6t11 17q0 17 -22.5 23t-70.5 10l37 63h-24v543h-250v107h622v-107h-250v-543h-31l-18 -29q43 -5 68 -24t25 -51q0 -38 -35.5 -58t-101.5 -20q-29 0 -55 4t-43 11z" />
    <glyph glyph-name="uni0163" unicode="&#x163;" horiz-adv-x="351" 
d="M95 -107q14 -5 33.5 -8.5t41.5 -3.5q31 0 42.5 6t11.5 17q0 17 -23 23t-71 10l37 63q-76 23 -76 112v275h-66v97h66v128h115v-128h112v-97h-112v-260q0 -20 13 -28t32 -8q16 0 31.5 4.5t26.5 10.5l29 -91q-21 -10 -48 -17t-62 -7l-12 -20q43 -5 68 -24t25 -51
q0 -38 -35.5 -58t-101.5 -20q-28 0 -54.5 4t-43.5 11z" />
    <glyph glyph-name="Tcaron" unicode="&#x164;" horiz-adv-x="642" 
d="M260 543h-250v107h622v-107h-250v-543h-122v543zM159 864h75l87 -82l87 82h75l-121 -165h-82z" />
    <glyph glyph-name="tcaron" unicode="&#x165;" horiz-adv-x="354" 
d="M91 387h-66v97h66v128h115v-128h112v-97h-112v-260q0 -20 13 -28t32 -8q16 0 31.5 4.5t26.5 10.5l29 -91q-21 -10 -48.5 -17t-61.5 -7q-63 0 -100 30t-37 91v275zM271 744l99 -22l-52 -195h-68z" />
    <glyph glyph-name="Tbar" unicode="&#x166;" horiz-adv-x="642" 
d="M260 268h-132v106h132v169h-250v107h622v-107h-250v-169h131v-106h-131v-268h-122v268z" />
    <glyph glyph-name="tbar" unicode="&#x167;" horiz-adv-x="358" 
d="M96 219h-66v80h66v96h-66v89h66v128h115v-128h112v-89h-112v-96h103v-80h-103v-92q0 -20 13 -28t32 -8q16 0 31.5 4.5t26.5 10.5l29 -91q-21 -10 -48.5 -17t-61.5 -7q-63 0 -100 30t-37 91v107z" />
    <glyph glyph-name="Utilde" unicode="&#x168;" horiz-adv-x="713" 
d="M73 650h122v-413q0 -28 6.5 -53t24.5 -43.5t49.5 -29.5t81.5 -11q49 0 80.5 11t49.5 29.5t24.5 43.5t6.5 53v413h122v-425q0 -113 -74 -173.5t-211 -60.5t-209.5 60t-72.5 174v425zM195 695q3 137 96 137q24 0 44 -8.5t37 -19t31.5 -19t26.5 -8.5q17 0 24.5 11.5
t11.5 42.5h64q-3 -137 -96 -137q-24 0 -44 8.5t-37 18.5t-31.5 18.5t-26.5 8.5q-17 0 -24.5 -11.5t-11.5 -41.5h-64z" />
    <glyph glyph-name="utilde" unicode="&#x169;" horiz-adv-x="533" 
d="M59 484h115v-323q0 -68 78 -68q43 0 71 20t28 57v314h115v-484h-115v58q-21 -30 -55.5 -48.5t-82.5 -18.5q-69 0 -111.5 38t-42.5 112v343zM102 554q5 148 96 148q24 0 44 -9.5t37 -21t31 -21t27 -9.5q17 0 24.5 13.5t11.5 46.5h64q-5 -148 -96 -148q-24 0 -44 9.5
t-37 20.5t-31 20.5t-27 9.5q-17 0 -24.5 -13.5t-10.5 -45.5h-65z" />
    <glyph glyph-name="Umacron" unicode="&#x16a;" horiz-adv-x="713" 
d="M73 650h122v-413q0 -28 6.5 -53t24.5 -43.5t49.5 -29.5t81.5 -11q49 0 80.5 11t49.5 29.5t24.5 43.5t6.5 53v413h122v-425q0 -113 -74 -173.5t-211 -60.5t-209.5 60t-72.5 174v425zM197 813h320v-88h-320v88z" />
    <glyph glyph-name="umacron" unicode="&#x16b;" horiz-adv-x="533" 
d="M59 484h115v-323q0 -68 78 -68q43 0 71 20t28 57v314h115v-484h-115v58q-21 -30 -55.5 -48.5t-82.5 -18.5q-69 0 -111.5 38t-42.5 112v343zM107 661h320v-83h-320v83z" />
    <glyph glyph-name="Ubreve" unicode="&#x16c;" horiz-adv-x="713" 
d="M73 650h122v-413q0 -28 6.5 -53t24.5 -43.5t49.5 -29.5t81.5 -11q49 0 80.5 11t49.5 29.5t24.5 43.5t6.5 53v413h122v-425q0 -113 -74 -173.5t-211 -60.5t-209.5 60t-72.5 174v425zM357 690q-39 0 -68 12.5t-48.5 33t-31 46.5t-15.5 54h66q6 -24 28 -43t69 -19t69 19
t28 43h66q-4 -28 -15.5 -54t-31 -46.5t-48.5 -33t-68 -12.5z" />
    <glyph glyph-name="ubreve" unicode="&#x16d;" horiz-adv-x="533" 
d="M59 484h115v-323q0 -68 78 -68q43 0 71 20t28 57v314h115v-484h-115v58q-21 -30 -55.5 -48.5t-82.5 -18.5q-69 0 -111.5 38t-42.5 112v343zM267 550q-39 0 -68 14t-48.5 37.5t-31 54t-15.5 62.5h66q3 -14 10 -29t18.5 -27t28.5 -19.5t40 -7.5t40 7.5t28.5 19.5t18.5 27
t10 29h66q-4 -32 -15.5 -62.5t-31 -54t-48.5 -37.5t-68 -14z" />
    <glyph glyph-name="Uring" unicode="&#x16e;" horiz-adv-x="713" 
d="M73 650h122v-413q0 -28 6.5 -53t24.5 -43.5t49.5 -29.5t81.5 -11q49 0 80.5 11t49.5 29.5t24.5 43.5t6.5 53v413h122v-425q0 -113 -74 -173.5t-211 -60.5t-209.5 60t-72.5 174v425zM357 690q-57 0 -87.5 25.5t-30.5 63.5t30.5 63t87.5 25t87.5 -25t30.5 -63t-30.5 -63.5
t-87.5 -25.5zM357 742q47 0 47 37q0 35 -47 35t-47 -35q0 -37 47 -37z" />
    <glyph glyph-name="uring" unicode="&#x16f;" horiz-adv-x="533" 
d="M59 484h115v-323q0 -68 78 -68q43 0 71 20t28 57v314h115v-484h-115v58q-21 -30 -55.5 -48.5t-82.5 -18.5q-69 0 -111.5 38t-42.5 112v343zM267 544q-52 0 -85 30t-33 78t33 78t85 30t85 -30t33 -78t-33 -78t-85 -30zM267 601q22 0 34.5 14t12.5 37q0 24 -12.5 38
t-34.5 14t-34.5 -14t-12.5 -38q0 -23 12.5 -37t34.5 -14z" />
    <glyph glyph-name="Uhungarumlaut" unicode="&#x170;" horiz-adv-x="713" 
d="M73 650h122v-413q0 -28 6.5 -53t24.5 -43.5t49.5 -29.5t81.5 -11q49 0 80.5 11t49.5 29.5t24.5 43.5t6.5 53v413h122v-425q0 -113 -74 -173.5t-211 -60.5t-209.5 60t-72.5 174v425zM314 864l90 -40l-95 -125h-75zM476 864l91 -40l-96 -125h-74z" />
    <glyph glyph-name="uhungarumlaut" unicode="&#x171;" horiz-adv-x="533" 
d="M59 484h115v-323q0 -68 78 -68q43 0 71 20t28 57v314h115v-484h-115v58q-21 -30 -55.5 -48.5t-82.5 -18.5q-69 0 -111.5 38t-42.5 112v343zM219 769l95 -45l-105 -171h-79zM392 769l95 -45l-105 -171h-79z" />
    <glyph glyph-name="Uogonek" unicode="&#x172;" horiz-adv-x="713" 
d="M73 650h122v-413q0 -28 6.5 -53t24.5 -43.5t49.5 -29.5t81.5 -11q49 0 80.5 11t49.5 29.5t24.5 43.5t6.5 53v413h122v-425q0 -73 -30.5 -121t-87.5 -77q-21 -11 -43 -19t-40.5 -17t-30 -21t-11.5 -31q0 -22 17 -32t44 -10q21 0 38 3.5t28 7.5l22 -66q-17 -6 -43.5 -11.5
t-60.5 -5.5q-60 0 -96.5 22.5t-36.5 67.5q0 26 13 44.5t30 31.5q-135 1 -207 61t-72 173v425z" />
    <glyph glyph-name="uogonek" unicode="&#x173;" horiz-adv-x="533" 
d="M59 484h115v-323q0 -68 78 -68q43 0 71 20t28 57v314h115v-484q-40 -5 -64.5 -20.5t-24.5 -40.5q0 -22 17 -32t44 -10q21 0 38 3.5t28 7.5l21 -66q-16 -6 -42.5 -11.5t-60.5 -5.5q-60 0 -96.5 23t-36.5 68q0 31 18.5 52.5t43.5 32.5v57q-21 -30 -55.5 -48.5t-82.5 -18.5
q-69 0 -111.5 38t-42.5 112v343z" />
    <glyph glyph-name="Wcircumflex" unicode="&#x174;" horiz-adv-x="839" 
d="M-3 650h136l125 -390l113 390h98l118 -393l124 393h131l-233 -656h-53l-136 451l-133 -451h-54zM379 864h82l121 -165h-75l-87 82l-87 -82h-75z" />
    <glyph glyph-name="wcircumflex" unicode="&#x175;" horiz-adv-x="735" 
d="M-3 484h129l103 -280l93 280h97l90 -279l104 279h125l-209 -490h-51l-110 327l-111 -327h-51zM325 757h84l121 -204h-76l-87 110l-87 -110h-76z" />
    <glyph glyph-name="Ycircumflex" unicode="&#x176;" horiz-adv-x="617" 
d="M248 285l-252 365h144l170 -251l170 251h141l-251 -365v-285h-122v285zM268 864h82l121 -165h-75l-87 82l-87 -82h-75z" />
    <glyph glyph-name="ycircumflex" unicode="&#x177;" horiz-adv-x="496" 
d="M54 -57q14 -8 32 -13t35 -5q26 0 40 13t25 40l9 27l-198 479h129l125 -335l122 335h126l-210 -543q-14 -36 -31.5 -58.5t-38 -35t-42.5 -17.5t-46 -5q-35 0 -63 8t-48 19zM206 757h84l121 -204h-76l-87 110l-87 -110h-76z" />
    <glyph glyph-name="Ydieresis" unicode="&#x178;" horiz-adv-x="617" 
d="M248 285l-252 365h144l170 -251l170 251h141l-251 -365v-285h-122v285zM211 702q-28 0 -46.5 18t-18.5 46t18.5 46t46.5 18t46.5 -18t18.5 -46t-18.5 -46t-46.5 -18zM407 702q-28 0 -46.5 18t-18.5 46t18.5 46t46.5 18t46.5 -18t18.5 -46t-18.5 -46t-46.5 -18z" />
    <glyph glyph-name="Zacute" unicode="&#x179;" horiz-adv-x="586" 
d="M11 25l362 518h-341v107h539v-25l-362 -518h370v-107h-568v25zM330 864l97 -42l-104 -123h-75z" />
    <glyph glyph-name="zacute" unicode="&#x17a;" horiz-adv-x="466" 
d="M27 22l230 365h-228v97h402v-22l-230 -365h243v-97h-417v22zM271 769l98 -45l-108 -171h-76z" />
    <glyph glyph-name="Zdotaccent" unicode="&#x17b;" horiz-adv-x="586" 
d="M11 25l362 518h-341v107h539v-25l-362 -518h370v-107h-568v25zM292 701q-31 0 -51.5 17.5t-20.5 46.5t20.5 47t51.5 18t51.5 -18t20.5 -47t-20.5 -46.5t-51.5 -17.5z" />
    <glyph glyph-name="zdotaccent" unicode="&#x17c;" horiz-adv-x="466" 
d="M27 22l230 365h-228v97h402v-22l-230 -365h243v-97h-417v22zM229 556q-30 0 -50 17.5t-20 46.5t20 47t50 18t50 -18t20 -47t-20 -46.5t-50 -17.5z" />
    <glyph glyph-name="Zcaron" unicode="&#x17d;" horiz-adv-x="586" 
d="M11 25l362 518h-341v107h539v-25l-362 -518h370v-107h-568v25zM132 864h75l87 -82l87 82h75l-121 -165h-82z" />
    <glyph glyph-name="zcaron" unicode="&#x17e;" horiz-adv-x="466" 
d="M27 22l230 365h-228v97h402v-22l-230 -365h243v-97h-417v22zM71 757h76l87 -111l87 111h76l-121 -204h-84z" />
    <glyph glyph-name="uni0191" unicode="&#x191;" horiz-adv-x="443" 
d="M113 294h-81v97h101l31 160q15 75 56 114t110 39q35 0 64 -8.5t53 -22.5l-38 -85q-17 9 -32.5 13.5t-32.5 4.5q-26 0 -43 -16t-26 -63l-27 -136h99v-97h-118l-91 -460h-115z" />
    <glyph glyph-name="florin" unicode="&#x192;" horiz-adv-x="443" 
d="M113 294h-81v97h101l31 160q15 75 56 114t110 39q35 0 64 -8.5t53 -22.5l-38 -85q-17 9 -32.5 13.5t-32.5 4.5q-26 0 -43 -16t-26 -63l-27 -136h99v-97h-118l-91 -460h-115z" />
    <glyph glyph-name="Aringacute" unicode="&#x1fa;" horiz-adv-x="687" 
d="M277 650h127l285 -650h-133l-81 189h-266l-80 -189h-132zM436 291l-94 223l-95 -223h189zM342 690q-57 0 -87.5 25.5t-30.5 63.5t30.5 63t87.5 25q16 0 30 -2.5t23 -6.5l47 82l93 -42l-87 -78q6 -8 9 -19t3 -22q0 -38 -30.5 -63.5t-87.5 -25.5zM342 742q47 0 47 37
q0 35 -47 35t-47 -35q0 -37 47 -37z" />
    <glyph glyph-name="aringacute" unicode="&#x1fb;" horiz-adv-x="488" 
d="M188 -9q-32 0 -59.5 10.5t-47.5 29.5t-31 45.5t-11 58.5q0 84 70 122t205 38v53q0 26 -12.5 37.5t-42.5 11.5q-32 0 -76 -10t-100 -33l-31 90q41 16 74 25.5t60 14.5t48.5 7t39.5 2q81 0 118 -33t37 -96v-364h-115v59q-17 -26 -46.5 -47t-79.5 -21zM220 79q18 0 34.5 5.5
t30 15t21.5 22.5t8 28v71q-34 -1 -63 -5t-50.5 -13.5t-33.5 -25t-12 -39.5q0 -28 17 -43.5t48 -15.5zM249 544q-53 0 -85.5 28t-32.5 73t32.5 73t85.5 28q27 0 49 -11l47 96l94 -42l-87 -92q14 -23 14 -52q0 -45 -32.5 -73t-84.5 -28zM249 599q22 0 34.5 12.5t12.5 33.5
t-12.5 33.5t-34.5 12.5q-23 0 -35 -12.5t-12 -33.5t12 -33.5t35 -12.5z" />
    <glyph glyph-name="AEacute" unicode="&#x1fc;" horiz-adv-x="956" 
d="M322 650h510v-105h-318l45 -168h240v-101h-216l46 -171h314v-105h-410l-49 189h-261l-92 -189h-134zM460 291l-65 254l-124 -254h189zM593 864l97 -42l-104 -123h-75z" />
    <glyph glyph-name="aeacute" unicode="&#x1fd;" horiz-adv-x="811" 
d="M195 -9q-71 0 -113.5 40t-42.5 104q0 84 70 122t205 38v53q0 26 -12.5 37.5t-42.5 11.5q-32 0 -76 -10t-100 -33l-31 90q41 16 74 25.5t59.5 14.5t48 7t39.5 2q52 0 83.5 -17.5t45.5 -47.5q28 30 67 47.5t90 17.5q58 0 99.5 -22t68 -60t39 -89.5t11.5 -109.5h-345
q5 -57 40.5 -92.5t98.5 -35.5q42 0 72.5 15t50.5 37l67 -66q-35 -38 -84.5 -58.5t-110.5 -20.5q-60 0 -108 19.5t-82 54.5q-30 -30 -77.5 -52t-103.5 -22zM221 79q31 0 61 13.5t52 39.5q-8 20 -13 42t-6 47q-34 -1 -63.5 -5t-51 -13.5t-33.5 -25t-12 -39.5q0 -28 17 -43.5
t49 -15.5zM659 292q-4 47 -28.5 77.5t-78.5 30.5q-48 0 -79.5 -30t-39.5 -78h226zM459 769l98 -45l-108 -171h-76z" />
    <glyph glyph-name="Oslashacute" unicode="&#x1fe;" horiz-adv-x="789" 
d="M72 35l62 70q-36 43 -56 98.5t-20 120.5q0 72 25 133.5t69.5 106t106.5 70t136 25.5q110 0 190 -54l64 72l68 -62l-62 -70q36 -43 56 -98.5t20 -120.5q0 -72 -25 -133.5t-69.5 -106t-106.5 -70t-136 -25.5q-110 0 -190 54l-63 -72zM507 519q-23 15 -51.5 23.5t-60.5 8.5
q-48 0 -87.5 -17t-67.5 -47t-43 -71.5t-15 -90.5q0 -76 35 -129zM282 131q23 -15 51.5 -23.5t61.5 -8.5q48 0 87.5 16.5t67 46.5t43 71.5t15.5 91.5q0 37 -9.5 70t-26.5 59zM437 864l97 -42l-104 -123h-75z" />
    <glyph glyph-name="oslashacute" unicode="&#x1ff;" horiz-adv-x="585" 
d="M344 769l98 -45l-108 -171h-76zM32 20l57 60q-26 32 -40 73t-14 89q0 55 19 101t53 79.5t81.5 52t104.5 18.5q87 0 149 -42l60 63l51 -50l-57 -60q26 -32 40.5 -73t14.5 -89q0 -55 -19 -101t-53 -79.5t-81.5 -52t-104.5 -18.5q-88 0 -150 42l-59 -63zM368 374
q-15 9 -34 14.5t-41 5.5q-65 0 -102.5 -42t-37.5 -110q0 -45 17 -77zM217 110q32 -20 76 -20q64 0 102 41.5t38 110.5q0 45 -18 77z" />
    <glyph glyph-name="uni0218" unicode="&#x218;" horiz-adv-x="547" 
d="M46 141q14 -6 35 -14t47 -15t55.5 -12t61.5 -5q29 0 54 4.5t43 14.5t28.5 26.5t10.5 40.5q0 25 -13.5 42t-35 29.5t-49.5 22.5t-57 21q-30 11 -59 26t-52 36t-37 50.5t-14 70.5q0 43 15.5 76.5t44 56.5t68.5 35t88 12t91.5 -7t84.5 -20v-108q-41 14 -85 22.5t-87 8.5
q-101 0 -101 -70q0 -21 11.5 -35.5t30 -25.5t42 -20t48.5 -19q33 -13 66 -28t60 -37.5t43.5 -55t16.5 -80.5q0 -47 -18.5 -83t-51.5 -60.5t-79 -37t-101 -12.5q-70 0 -123.5 14.5t-81.5 27.5v108zM212 -49h114l-103 -157l-63 25z" />
    <glyph glyph-name="uni0219" unicode="&#x219;" horiz-adv-x="468" 
d="M46 120q11 -5 28.5 -11t38.5 -11.5t44.5 -9t47.5 -3.5q46 0 74.5 13t28.5 45q0 26 -19 39q-16 11 -41 16t-53 10.5t-56 14.5t-49 28q-17 15 -28.5 38.5t-11.5 58.5q0 38 15 65.5t41 45t60.5 26t74.5 8.5q81 0 155 -21v-100q-40 13 -79 20t-74 7q-40 0 -59 -13t-19 -35
q0 -19 13 -30q13 -12 36.5 -17t51 -10.5t56 -13.5t51.5 -26q22 -16 36.5 -41.5t14.5 -66.5q0 -38 -15.5 -67t-43 -48.5t-66.5 -29.5t-87 -10q-51 0 -97 10t-69 20v99zM173 -49h114l-103 -157l-63 25z" />
    <glyph glyph-name="uni021A" unicode="&#x21a;" horiz-adv-x="642" 
d="M260 543h-250v107h622v-107h-250v-543h-122v543zM265 -49h114l-103 -157l-63 25z" />
    <glyph glyph-name="uni021B" unicode="&#x21b;" horiz-adv-x="351" 
d="M91 387h-66v97h66v128h115v-128h112v-97h-112v-260q0 -20 13 -28t32 -8q16 0 31.5 4.5t26.5 10.5l29 -91q-21 -10 -48.5 -17t-61.5 -7q-63 0 -100 30t-37 91v275zM157 -49h114l-103 -157l-63 25z" />
    <glyph glyph-name="circumflex" unicode="&#x2c6;" horiz-adv-x="460" 
d="M188 757h84l121 -204h-76l-87 110l-87 -110h-76z" />
    <glyph glyph-name="caron" unicode="&#x2c7;" horiz-adv-x="460" 
d="M67 757h76l87 -111l87 111h76l-121 -204h-84z" />
    <glyph glyph-name="breve" unicode="&#x2d8;" horiz-adv-x="460" 
d="M230 550q-39 0 -68 14t-48.5 37.5t-31 54t-15.5 62.5h66q3 -14 10 -29t18.5 -27t28.5 -19.5t40 -7.5t40 7.5t28.5 19.5t18.5 27t10 29h66q-4 -32 -15.5 -62.5t-31 -54t-48.5 -37.5t-68 -14z" />
    <glyph glyph-name="dotaccent" unicode="&#x2d9;" horiz-adv-x="460" 
d="M230 559q-30 0 -50 17.5t-20 46.5t20 47t50 18t50 -18t20 -47t-20 -46.5t-50 -17.5z" />
    <glyph glyph-name="ring" unicode="&#x2da;" horiz-adv-x="460" 
d="M230 544q-52 0 -85 30t-33 78t33 78t85 30t85 -30t33 -78t-33 -78t-85 -30zM230 601q22 0 34.5 14t12.5 37q0 24 -12.5 38t-34.5 14t-34.5 -14t-12.5 -38q0 -23 12.5 -37t34.5 -14z" />
    <glyph glyph-name="ogonek" unicode="&#x2db;" horiz-adv-x="460" 
d="M272 -175q-60 0 -96.5 23.5t-36.5 71.5q0 24 10.5 42.5t26.5 32.5t35 24t36 16l43 -15q-33 -20 -48 -38t-15 -40q0 -23 17 -34t44 -11q21 0 38 3.5t28 7.5l22 -66q-17 -6 -43.5 -11.5t-60.5 -5.5z" />
    <glyph glyph-name="tilde" unicode="&#x2dc;" horiz-adv-x="460" 
d="M63 554q5 148 96 148q24 0 44 -9.5t37 -21t31 -21t27 -9.5q17 0 24.5 13.5t11.5 46.5h64q-5 -148 -96 -148q-24 0 -44 9.5t-37 20.5t-31 20.5t-27 9.5q-17 0 -24.5 -13.5t-10.5 -45.5h-65z" />
    <glyph glyph-name="hungarumlaut" unicode="&#x2dd;" horiz-adv-x="460" 
d="M150 769l95 -45l-105 -171h-79zM323 769l95 -45l-105 -171h-79z" />
    <glyph glyph-name="uni0315" unicode="&#x315;" horiz-adv-x="460" 
d="M190 702l99 -22l-52 -195h-68z" />
    <glyph glyph-name="uni0326" unicode="&#x326;" horiz-adv-x="460" 
d="M183 -49h114l-103 -157l-63 25z" />
    <glyph glyph-name="Delta" unicode="&#x394;" horiz-adv-x="715" 
d="M11 25l280 625h127l285 -625v-25h-692v25zM538 106l-182 412l-181 -412h363z" />
    <glyph glyph-name="Mu" unicode="&#x39c;" horiz-adv-x="540" 
d="M67 484h115v-323q0 -68 77 -68q43 0 71.5 20t28.5 57v314h115v-484h-113v59q-20 -31 -48.5 -48.5t-60.5 -17.5q-48 0 -72 26v-185h-113v650z" />
    <glyph glyph-name="uni03A9" unicode="&#x3a9;" horiz-adv-x="764" 
d="M53 103h126q-51 50 -83.5 113.5t-32.5 144.5q0 65 22.5 120t64 94.5t100.5 61.5t132 22q72 0 131 -22t101 -61.5t64.5 -94.5t22.5 -120q0 -81 -34 -144.5t-84 -113.5h128v-103h-274v46q66 60 104.5 134t38.5 155q0 106 -52 159.5t-146 53.5t-146 -53.5t-52 -159.5
q0 -81 38.5 -155t104.5 -134v-46h-274v103z" />
    <glyph glyph-name="mu" unicode="&#x3bc;" horiz-adv-x="540" 
d="M67 484h115v-323q0 -68 77 -68q43 0 71.5 20t28.5 57v314h115v-484h-113v59q-20 -31 -48.5 -48.5t-60.5 -17.5q-48 0 -72 26v-185h-113v650z" />
    <glyph glyph-name="pi" unicode="&#x3c0;" horiz-adv-x="578" 
d="M93 387h-68v97h528v-97h-68v-387h-114v387h-164v-387h-114v387z" />
    <glyph glyph-name="Wgrave" unicode="&#x1e80;" horiz-adv-x="839" 
d="M-3 650h136l125 -390l113 390h98l118 -393l124 393h131l-233 -656h-53l-136 451l-133 -451h-54zM278 822l97 42l82 -165h-75z" />
    <glyph glyph-name="wgrave" unicode="&#x1e81;" horiz-adv-x="735" 
d="M-3 484h129l103 -280l93 280h97l90 -279l104 279h125l-209 -490h-51l-110 327l-111 -327h-51zM223 724l98 45l86 -216h-76z" />
    <glyph glyph-name="Wacute" unicode="&#x1e82;" horiz-adv-x="839" 
d="M-3 650h136l125 -390l113 390h98l118 -393l124 393h131l-233 -656h-53l-136 451l-133 -451h-54zM466 864l97 -42l-104 -123h-75z" />
    <glyph glyph-name="wacute" unicode="&#x1e83;" horiz-adv-x="735" 
d="M-3 484h129l103 -280l93 280h97l90 -279l104 279h125l-209 -490h-51l-110 327l-111 -327h-51zM422 769l98 -45l-108 -171h-76z" />
    <glyph glyph-name="Wdieresis" unicode="&#x1e84;" horiz-adv-x="839" 
d="M-3 650h136l125 -390l113 390h98l118 -393l124 393h131l-233 -656h-53l-136 451l-133 -451h-54zM322 702q-28 0 -46.5 18t-18.5 46t18.5 46t46.5 18t46.5 -18t18.5 -46t-18.5 -46t-46.5 -18zM518 702q-28 0 -46.5 18t-18.5 46t18.5 46t46.5 18t46.5 -18t18.5 -46
t-18.5 -46t-46.5 -18z" />
    <glyph glyph-name="wdieresis" unicode="&#x1e85;" horiz-adv-x="735" 
d="M-3 484h129l103 -280l93 280h97l90 -279l104 279h125l-209 -490h-51l-110 327l-111 -327h-51zM269 558q-28 0 -46.5 18t-18.5 46t18.5 46t46.5 18t46.5 -18t18.5 -46t-18.5 -46t-46.5 -18zM465 558q-28 0 -46.5 18t-18.5 46t18.5 46t46.5 18t46.5 -18t18.5 -46t-18.5 -46
t-46.5 -18z" />
    <glyph glyph-name="Ygrave" unicode="&#x1ef2;" horiz-adv-x="617" 
d="M248 285l-252 365h144l170 -251l170 251h141l-251 -365v-285h-122v285zM171 822l97 42l82 -165h-75z" />
    <glyph glyph-name="ygrave" unicode="&#x1ef3;" horiz-adv-x="496" 
d="M54 -57q14 -8 32 -13t35 -5q26 0 40 13t25 40l9 27l-198 479h129l125 -335l122 335h126l-210 -543q-14 -36 -31.5 -58.5t-38 -35t-42.5 -17.5t-46 -5q-35 0 -63 8t-48 19zM108 724l98 45l86 -216h-76z" />
    <glyph glyph-name="uni2000" unicode="&#x2000;" horiz-adv-x="470" 
 />
    <glyph glyph-name="uni2001" unicode="&#x2001;" horiz-adv-x="940" 
 />
    <glyph glyph-name="uni2002" unicode="&#x2002;" horiz-adv-x="470" 
 />
    <glyph glyph-name="uni2003" unicode="&#x2003;" horiz-adv-x="940" 
 />
    <glyph glyph-name="uni2004" unicode="&#x2004;" horiz-adv-x="313" 
 />
    <glyph glyph-name="uni2005" unicode="&#x2005;" horiz-adv-x="235" 
 />
    <glyph glyph-name="uni2006" unicode="&#x2006;" horiz-adv-x="156" 
 />
    <glyph glyph-name="uni2007" unicode="&#x2007;" horiz-adv-x="156" 
 />
    <glyph glyph-name="uni2008" unicode="&#x2008;" horiz-adv-x="117" 
 />
    <glyph glyph-name="uni2009" unicode="&#x2009;" horiz-adv-x="188" 
 />
    <glyph glyph-name="uni200A" unicode="&#x200a;" horiz-adv-x="52" 
 />
    <glyph glyph-name="uni2010" unicode="&#x2010;" horiz-adv-x="369" 
d="M40 324h289v-103h-289v103z" />
    <glyph glyph-name="uni2011" unicode="&#x2011;" horiz-adv-x="369" 
d="M40 324h289v-103h-289v103z" />
    <glyph glyph-name="figuredash" unicode="&#x2012;" horiz-adv-x="369" 
d="M40 324h289v-103h-289v103z" />
    <glyph glyph-name="endash" unicode="&#x2013;" 
d="M56 321h468v-94h-468v94z" />
    <glyph glyph-name="emdash" unicode="&#x2014;" horiz-adv-x="693" 
d="M30 321h633v-94h-633v94z" />
    <glyph glyph-name="quoteleft" unicode="&#x2018;" horiz-adv-x="298" 
d="M174 322q-43 23 -74.5 62.5t-31.5 93.5q0 52 26 93t73 88l63 -57q-24 -28 -38 -52t-14 -52q0 -30 16.5 -49t45.5 -39z" />
    <glyph glyph-name="quoteright" unicode="&#x2019;" horiz-adv-x="298" 
d="M68 376q24 29 38 53t14 52q0 30 -16.5 49t-45.5 38l66 88q43 -22 74.5 -61.5t31.5 -93.5q0 -53 -25.5 -93.5t-73.5 -87.5z" />
    <glyph glyph-name="quotesinglbase" unicode="&#x201a;" horiz-adv-x="298" 
d="M68 -128q24 29 38 53t14 52q0 30 -16.5 49t-45.5 38l66 88q43 -22 74.5 -61.5t31.5 -93.5q0 -53 -25.5 -93.5t-73.5 -87.5z" />
    <glyph glyph-name="quotedblleft" unicode="&#x201c;" horiz-adv-x="537" 
d="M174 322q-43 23 -74.5 62.5t-31.5 93.5q0 52 26 93t73 88l63 -57q-24 -28 -38 -52t-14 -52q0 -30 16.5 -49t45.5 -39zM413 322q-43 23 -74.5 62.5t-31.5 93.5q0 52 26 93t73 88l63 -57q-24 -28 -38 -52t-14 -52q0 -30 16.5 -49t45.5 -39z" />
    <glyph glyph-name="quotedblright" unicode="&#x201d;" horiz-adv-x="537" 
d="M68 376q24 29 38 53t14 52q0 30 -16.5 49t-45.5 38l66 88q43 -22 74.5 -61.5t31.5 -93.5q0 -53 -25.5 -93.5t-73.5 -87.5zM307 376q24 29 38 53t14 52q0 30 -16.5 49t-45.5 38l66 88q43 -22 74.5 -61.5t31.5 -93.5q0 -53 -25.5 -93.5t-73.5 -87.5z" />
    <glyph glyph-name="quotedblbase" unicode="&#x201e;" horiz-adv-x="537" 
d="M68 -128q24 29 38 53t14 52q0 30 -16.5 49t-45.5 38l66 88q43 -22 74.5 -61.5t31.5 -93.5q0 -53 -25.5 -93.5t-73.5 -87.5zM307 -128q24 29 38 53t14 52q0 30 -16.5 49t-45.5 38l66 88q43 -22 74.5 -61.5t31.5 -93.5q0 -53 -25.5 -93.5t-73.5 -87.5z" />
    <glyph glyph-name="dagger" unicode="&#x2020;" horiz-adv-x="463" 
d="M187 355l10 91l-131 -11v83l131 -10l-11 142h91l-10 -142l131 10v-83l-131 11l10 -91l-16 -245h-59z" />
    <glyph glyph-name="daggerdbl" unicode="&#x2021;" horiz-adv-x="463" 
d="M197 142l-131 -10v83l130 -11l-9 121l9 121l-130 -11v83l131 -10l-11 142h91l-10 -142l131 10v-83l-131 11l10 -121l-10 -121l131 11v-83l-131 10l10 -142h-91z" />
    <glyph glyph-name="bullet" unicode="&#x2022;" horiz-adv-x="531" 
d="M265 120q-39 0 -71.5 13.5t-56 37.5t-37 56.5t-13.5 71.5t13.5 72t37 56.5t56 37t71.5 13.5t72 -13.5t56.5 -37t37 -56.5t13.5 -72t-13.5 -71.5t-37 -56.5t-56.5 -37.5t-72 -13.5z" />
    <glyph glyph-name="ellipsis" unicode="&#x2026;" horiz-adv-x="878" 
d="M146 -6q-32 0 -53.5 21t-21.5 52q0 32 21.5 53t53.5 21t53.5 -21t21.5 -53q0 -31 -21.5 -52t-53.5 -21zM439 -6q-32 0 -53.5 21t-21.5 52q0 32 21.5 53t53.5 21t53.5 -21t21.5 -53q0 -31 -21.5 -52t-53.5 -21zM732 -6q-32 0 -53.5 21t-21.5 52q0 32 21.5 53t53.5 21
t53.5 -21t21.5 -53q0 -31 -21.5 -52t-53.5 -21z" />
    <glyph glyph-name="uni202F" unicode="&#x202f;" horiz-adv-x="188" 
 />
    <glyph glyph-name="perthousand" unicode="&#x2030;" horiz-adv-x="1095" 
d="M550 650l50 -34l-401 -616l-50 34zM173 319q-64 0 -103 38.5t-39 130.5t39 130t103 38q31 0 57.5 -9t45 -29t29 -52t10.5 -78t-10.5 -78t-29 -52.5t-45 -29.5t-57.5 -9zM173 393q13 0 23 4t17 14.5t10.5 29t3.5 47.5t-3.5 47.5t-10.5 29t-17 14.5t-23 4t-23.5 -4
t-17.5 -14.5t-10.5 -29t-3.5 -47.5t3.5 -47.5t10.5 -29t17.5 -14.5t23.5 -4zM576 -6q-64 0 -103 38.5t-39 130.5t39 130t103 38q31 0 57.5 -9t45 -29t29 -52t10.5 -78t-10.5 -78t-29 -52.5t-45 -29.5t-57.5 -9zM576 68q13 0 23 4t17 14.5t10.5 29t3.5 47.5t-3.5 47.5
t-10.5 29t-17 14.5t-23 4t-23.5 -4t-17.5 -14.5t-10.5 -29t-3.5 -47.5t3.5 -47.5t10.5 -29t17.5 -14.5t23.5 -4zM922 -6q-64 0 -103 38.5t-39 130.5t39 130t103 38q31 0 57.5 -9t45 -29t29 -52t10.5 -78t-10.5 -78t-29 -52.5t-45 -29.5t-57.5 -9zM922 68q13 0 23 4t17 14.5
t10.5 29t3.5 47.5t-3.5 47.5t-10.5 29t-17 14.5t-23 4t-23.5 -4t-17.5 -14.5t-10.5 -29t-3.5 -47.5t3.5 -47.5t10.5 -29t17.5 -14.5t23.5 -4z" />
    <glyph glyph-name="guilsinglleft" unicode="&#x2039;" horiz-adv-x="331" 
d="M72 231v22l132 198l71 -43l-83 -166l83 -166l-71 -43z" />
    <glyph glyph-name="guilsinglright" unicode="&#x203a;" horiz-adv-x="331" 
d="M56 76l83 166l-83 166l70 43l133 -198v-22l-133 -198z" />
    <glyph glyph-name="fraction" unicode="&#x2044;" horiz-adv-x="89" 
d="M220 650l50 -34l-401 -616l-50 34z" />
    <glyph glyph-name="uni205F" unicode="&#x205f;" horiz-adv-x="235" 
 />
    <glyph glyph-name="zero.superior" unicode="&#x2070;" horiz-adv-x="405" 
d="M202 319q-37 0 -67 11t-51.5 35t-33 62.5t-11.5 92.5t11.5 92t33 61.5t51.5 34.5t67 11t67.5 -11t52 -34.5t33 -61.5t11.5 -92t-11.5 -92.5t-33 -62.5t-52 -35t-67.5 -11zM202 395q18 0 32 6t23 20t14 38.5t5 60.5q0 72 -19 98t-55 26q-35 0 -54 -26t-19 -98
q0 -36 5 -60.5t14 -38.5t22.5 -20t31.5 -6z" />
    <glyph glyph-name="four.superior" unicode="&#x2074;" horiz-adv-x="385" 
d="M226 489v111l-96 -111h96zM12 447l231 268h67v-224h69v-68h-69v-98h-86v98h-212v24z" />
    <glyph glyph-name="five.superior" unicode="&#x2075;" horiz-adv-x="336" 
d="M48 426q14 -15 36 -24.5t51 -9.5q34 0 53 15t19 40q0 31 -36 46.5t-128 17.5l54 202h208v-75h-147l-20 -70q159 -13 159 -122q0 -26 -10.5 -49t-31 -40t-49 -27.5t-64.5 -10.5q-48 0 -81.5 13.5t-54.5 35.5z" />
    <glyph glyph-name="six.superior" unicode="&#x2076;" horiz-adv-x="381" 
d="M192 388q35 0 53.5 19t18.5 45q0 28 -18 43.5t-56 15.5q-32 0 -50 -12t-18 -38q0 -35 19 -54t51 -19zM192 319q-75 0 -115.5 42.5t-40.5 114.5q0 85 56 147t156 96l33 -69q-45 -16 -87 -39t-64 -55q15 8 36 14.5t50 6.5q27 0 51.5 -8t43 -23t29 -38t10.5 -53t-11.5 -55
t-32.5 -43t-50 -28t-64 -10z" />
    <glyph glyph-name="seven.superior" unicode="&#x2077;" horiz-adv-x="320" 
d="M194 636h-186v77h312v-18l-190 -370h-96z" />
    <glyph glyph-name="eight.superior" unicode="&#x2078;" horiz-adv-x="382" 
d="M189 319q-70 0 -111 30.5t-41 80.5q0 32 20 55t52 37q-28 14 -46.5 35t-18.5 55q0 48 39.5 77.5t105.5 29.5q69 0 109.5 -29.5t40.5 -75.5q0 -29 -18.5 -50.5t-44.5 -34.5q29 -14 49 -35.5t20 -56.5q0 -29 -12 -51t-33 -37t-49.5 -22.5t-61.5 -7.5zM190 387
q28 0 47.5 11.5t19.5 35.5q0 23 -22.5 35t-52.5 23q-26 -9 -42 -23.5t-16 -34.5q0 -23 18.5 -35t47.5 -12zM202 556q20 8 35.5 21.5t15.5 33.5t-17.5 30.5t-46.5 10.5q-26 0 -42.5 -10.5t-16.5 -28.5q0 -23 21.5 -34.5t50.5 -22.5z" />
    <glyph glyph-name="nine.superior" unicode="&#x2079;" horiz-adv-x="381" 
d="M191 528q32 0 50.5 11.5t18.5 38.5q0 35 -19 53.5t-51 18.5q-35 0 -53.5 -19t-18.5 -45q0 -27 17.5 -42.5t55.5 -15.5zM101 387q22 8 44.5 17.5t43 21.5t37.5 26t28 31q-16 -9 -37.5 -15.5t-50.5 -6.5q-27 0 -51.5 8t-43 23.5t-29 38.5t-10.5 53q0 29 11.5 54t32.5 43
t50 28t64 10q75 0 115.5 -42.5t40.5 -114.5q0 -85 -56 -147t-156 -96z" />
    <glyph glyph-name="plus.superior" unicode="&#x207a;" horiz-adv-x="350" 
d="M140 459h-110v71h110v110h71v-110h109v-71h-109v-110h-71v110z" />
    <glyph glyph-name="minus.superior" unicode="&#x207b;" horiz-adv-x="350" 
d="M30 530h290v-71h-290v71z" />
    <glyph glyph-name="equal.superior" unicode="&#x207c;" horiz-adv-x="350" 
d="M33 471h284v-69h-284v69zM33 588h284v-69h-284v69z" />
    <glyph glyph-name="parenleft.superior" unicode="&#x207d;" horiz-adv-x="255" 
d="M199 261q-31 20 -60.5 45.5t-53 57.5t-37.5 70.5t-14 85.5t14 85.5t37.5 70t53 57t60.5 45.5l42 -56q-51 -35 -87 -84.5t-36 -117.5t36 -117.5t87 -85.5z" />
    <glyph glyph-name="parenright.superior" unicode="&#x207e;" horiz-adv-x="255" 
d="M12 317q25 18 47.5 39t39 46t26 54.5t9.5 63.5t-9.5 63.5t-26 54t-39 45.5t-47.5 39l41 56q31 -20 61 -45.5t53.5 -57t37.5 -70t14 -85.5t-14 -85.5t-37.5 -70.5t-53.5 -57.5t-61 -45.5z" />
    <glyph glyph-name="n.superior" unicode="&#x207f;" horiz-adv-x="370" 
d="M44 650h90v-36q15 20 40.5 31t55.5 11q47 0 74.5 -24t27.5 -61v-246h-90v220q0 18 -11.5 25t-33.5 7q-28 0 -45.5 -10.5t-17.5 -17.5v-224h-90v325z" />
    <glyph glyph-name="zero.inferior" unicode="&#x2080;" horiz-adv-x="405" 
d="M202 -69q-37 0 -67 11t-51.5 35t-33 62.5t-11.5 92.5t11.5 92t33 61.5t51.5 34.5t67 11t67.5 -11t52 -34.5t33 -61.5t11.5 -92t-11.5 -92.5t-33 -62.5t-52 -35t-67.5 -11zM202 7q18 0 32 6t23 20t14 38.5t5 60.5q0 72 -19 98t-55 26q-35 0 -54 -26t-19 -98q0 -36 5 -60.5
t14 -38.5t22.5 -20t31.5 -6z" />
    <glyph glyph-name="one.inferior" unicode="&#x2081;" horiz-adv-x="281" 
d="M124 247h-95v78h185v-388h-90v310z" />
    <glyph glyph-name="two.inferior" unicode="&#x2082;" horiz-adv-x="346" 
d="M31 -34q35 29 69 58q34 28 60.5 56t42.5 56.5t16 58.5q0 27 -15.5 43.5t-44.5 16.5q-28 0 -48 -16t-34 -39l-60 46q8 15 21 30t31.5 27t41.5 20t52 8q38 0 65.5 -10.5t45 -28t26 -39.5t8.5 -46q0 -29 -11.5 -56t-29.5 -51.5t-41.5 -47t-47.5 -42.5h136v-73h-283v29z" />
    <glyph glyph-name="three.inferior" unicode="&#x2083;" horiz-adv-x="332" 
d="M51 39q14 -18 37 -27t49 -9q32 0 52.5 13t20.5 36q0 26 -23.5 40t-85.5 12v64q58 -1 79.5 14t21.5 37q0 17 -15 28.5t-41 11.5q-27 0 -48 -10t-40 -27l-45 55q26 25 60 39.5t83 14.5q28 0 52.5 -6.5t43 -19.5t29 -32t10.5 -44q0 -37 -21.5 -58t-53.5 -32q38 -8 61 -31
t23 -61q0 -24 -11 -45t-31 -36.5t-48.5 -25t-64.5 -9.5q-48 0 -81 13.5t-54 36.5z" />
    <glyph glyph-name="four.inferior" unicode="&#x2084;" horiz-adv-x="385" 
d="M226 101v111l-96 -111h96zM12 59l231 268h67v-224h69v-68h-69v-98h-86v98h-212v24z" />
    <glyph glyph-name="five.inferior" unicode="&#x2085;" horiz-adv-x="336" 
d="M48 38q14 -15 36 -24.5t51 -9.5q34 0 53 15t19 40q0 31 -36 46.5t-128 17.5l54 202h208v-75h-147l-20 -70q159 -13 159 -122q0 -26 -10.5 -49t-31 -40t-49 -27.5t-64.5 -10.5q-48 0 -81.5 13.5t-54.5 35.5z" />
    <glyph glyph-name="six.inferior" unicode="&#x2086;" horiz-adv-x="381" 
d="M192 0q35 0 53.5 19t18.5 45q0 28 -18 43.5t-56 15.5q-32 0 -50 -12t-18 -38q0 -35 19 -54t51 -19zM192 -69q-75 0 -115.5 42.5t-40.5 114.5q0 85 56 147t156 96l33 -69q-45 -16 -87 -39t-64 -55q15 8 36 14.5t50 6.5q27 0 51.5 -8t43 -23t29 -38t10.5 -53t-11.5 -55
t-32.5 -43t-50 -28t-64 -10z" />
    <glyph glyph-name="seven.inferior" unicode="&#x2087;" horiz-adv-x="320" 
d="M194 248h-186v77h312v-18l-190 -370h-96z" />
    <glyph glyph-name="eight.inferior" unicode="&#x2088;" horiz-adv-x="382" 
d="M189 -69q-70 0 -111 30.5t-41 80.5q0 32 20 55t52 37q-28 14 -46.5 35t-18.5 55q0 48 39.5 77.5t105.5 29.5q69 0 109.5 -29.5t40.5 -75.5q0 -29 -18.5 -50.5t-44.5 -34.5q29 -14 49 -35.5t20 -56.5q0 -29 -12 -51t-33 -37t-49.5 -22.5t-61.5 -7.5zM190 -1
q28 0 47.5 11.5t19.5 35.5q0 23 -22.5 35t-52.5 23q-26 -9 -42 -23.5t-16 -34.5q0 -23 18.5 -35t47.5 -12zM202 168q20 8 35.5 21.5t15.5 33.5t-17.5 30.5t-46.5 10.5q-26 0 -42.5 -10.5t-16.5 -28.5q0 -23 21.5 -34.5t50.5 -22.5z" />
    <glyph glyph-name="nine.inferior" unicode="&#x2089;" horiz-adv-x="381" 
d="M191 140q32 0 50.5 11.5t18.5 38.5q0 35 -19 53.5t-51 18.5q-35 0 -53.5 -19t-18.5 -45q0 -27 17.5 -42.5t55.5 -15.5zM101 -1q22 8 44.5 17.5t43 21.5t37.5 26t28 31q-16 -9 -37.5 -15.5t-50.5 -6.5q-27 0 -51.5 8t-43 23.5t-29 38.5t-10.5 53q0 29 11.5 54t32.5 43
t50 28t64 10q75 0 115.5 -42.5t40.5 -114.5q0 -85 -56 -147t-156 -96z" />
    <glyph glyph-name="plus.inferior" unicode="&#x208a;" horiz-adv-x="350" 
d="M140 71h-110v71h110v110h71v-110h109v-71h-109v-110h-71v110z" />
    <glyph glyph-name="minus.inferior" unicode="&#x208b;" horiz-adv-x="350" 
d="M30 142h290v-71h-290v71z" />
    <glyph glyph-name="equal.inferior" unicode="&#x208c;" horiz-adv-x="350" 
d="M33 83h284v-69h-284v69zM33 200h284v-69h-284v69z" />
    <glyph glyph-name="parenleft.inferior" unicode="&#x208d;" horiz-adv-x="255" 
d="M199 -127q-31 20 -60.5 45.5t-53 57.5t-37.5 70.5t-14 85.5t14 85.5t37.5 70t53 57t60.5 45.5l42 -56q-51 -35 -87 -84.5t-36 -117.5t36 -117.5t87 -85.5z" />
    <glyph glyph-name="parenright.inferior" unicode="&#x208e;" horiz-adv-x="255" 
d="M12 -71q25 18 47.5 39t39 46t26 54.5t9.5 63.5t-9.5 63.5t-26 54t-39 45.5t-47.5 39l41 56q31 -20 61 -45.5t53.5 -57t37.5 -70t14 -85.5t-14 -85.5t-37.5 -70.5t-53.5 -57.5t-61 -45.5z" />
    <glyph glyph-name="Euro" unicode="&#x20ac;" horiz-adv-x="612" 
d="M30 291h77q-3 33 0 71h-77v77h88q11 47 32 87.5t53 70t75.5 46t98.5 16.5q67 0 115.5 -25t81.5 -65l-76 -71q-20 23 -48.5 41t-72.5 18q-60 0 -93.5 -33.5t-47.5 -84.5h192v-77h-205q-4 -34 0 -71h205v-77h-192q14 -53 50 -87t104 -34q42 0 70.5 16.5t48.5 39.5l76 -71
q-35 -41 -84.5 -64t-115.5 -23q-59 0 -104 17t-78 47t-54.5 70.5t-31.5 88.5h-87v77z" />
    <glyph glyph-name="afii61289" unicode="&#x2113;" horiz-adv-x="531" 
d="M31 219q24 9 48.5 19.5t49.5 24.5v233q0 47 10 85.5t31 65.5t53.5 42t77.5 15q35 0 65 -11.5t51.5 -33.5t34 -52.5t12.5 -68.5q0 -48 -16.5 -92t-46 -83.5t-70 -75t-89.5 -65.5q1 -40 7.5 -65.5t18.5 -40t30 -20t41 -5.5q35 0 65.5 13t52.5 30l50 -85q-29 -23 -76 -40.5
t-101 -17.5q-78 0 -130 41.5t-65 132.5q-33 -17 -70 -31zM242 329q54 41 87.5 91t33.5 111q0 76 -55 76q-32 0 -49 -25.5t-17 -82.5v-170z" />
    <glyph glyph-name="afii61352" unicode="&#x2116;" horiz-adv-x="1113" 
d="M78 650h115l301 -394v394h121v-657h-50l-366 466v-459h-121v650zM735 265h322v-74h-322v74zM896 319q-40 0 -72.5 12.5t-55.5 35t-35.5 53.5t-12.5 68t12.5 67.5t36 53t56 35t71.5 12.5t71.5 -12.5t56 -35t36 -53t12.5 -67.5t-12.5 -68t-36 -53.5t-56 -35t-71.5 -12.5z
M896 396q38 0 61.5 25.5t23.5 66.5q0 40 -23.5 65.5t-61.5 25.5t-61.5 -25.5t-23.5 -65.5q0 -41 23.5 -66.5t61.5 -25.5z" />
    <glyph glyph-name="uni2117" unicode="&#x2117;" horiz-adv-x="866" 
d="M433 -9q-70 0 -131 26t-106.5 71t-71.5 106t-26 131t26 131t71.5 106t106.5 71t131 26t131 -26t106.5 -71t71.5 -106t26 -131t-26 -131t-71.5 -106t-106.5 -71t-131 -26zM433 35q61 0 114 22.5t92 61.5t61.5 92t22.5 114t-22.5 114t-61.5 92t-92 61.5t-114 22.5
t-114 -22.5t-92 -61.5t-61.5 -92t-22.5 -114t22.5 -114t61.5 -92t92 -61.5t114 -22.5zM307 509h135q73 0 115 -33.5t42 -92.5q0 -58 -42 -91.5t-115 -33.5h-38v-114h-97v365zM449 336q27 0 38.5 12.5t11.5 33.5t-11.5 33.5t-38.5 12.5h-45v-92h45z" />
    <glyph glyph-name="trademark" unicode="&#x2122;" horiz-adv-x="915" 
d="M176 576h-134v74h346v-74h-133v-286h-79v286zM445 650h116l79 -197l79 197h116l6 -360h-78l-2 271l-107 -254h-29l-106 254l-2 -271h-78z" />
    <glyph glyph-name="estimated" unicode="&#x212e;" horiz-adv-x="792" 
d="M201 127q31 -46 84 -71.5t115 -25.5q64 0 112 25.5t82 73.5h91q-98 -137 -290 -137q-66 0 -127 22.5t-107.5 65.5t-74 105t-27.5 142q0 79 27.5 140.5t74.5 104t108.5 64.5t129.5 22q84 0 147.5 -30t105 -79.5t61.5 -112t19 -127.5h-531v-182zM594 349v175
q-31 43 -82 69.5t-114 26.5q-64 0 -115 -26.5t-82 -69.5v-175h393z" />
    <glyph glyph-name="onethird" unicode="&#x2153;" horiz-adv-x="715" 
d="M506 650l50 -34l-401 -616l-50 34zM118 574h-77v76h165v-325h-88v249zM463 92q12 -14 31 -21.5t41 -7.5q25 0 40 9t15 26q0 18 -18 28.5t-68 8.5v62q47 -1 63 9.5t16 26.5q0 12 -10 20.5t-32 8.5q-21 0 -38.5 -8.5t-33.5 -21.5l-41 53q25 22 54 34t70 12q51 0 85 -22.5
t34 -64.5q0 -32 -18 -48.5t-45 -26.5q32 -8 50.5 -27t18.5 -50q0 -40 -35.5 -69t-99.5 -29q-42 0 -70.5 11.5t-46.5 29.5z" />
    <glyph glyph-name="twothirds" unicode="&#x2154;" horiz-adv-x="790" 
d="M581 650l50 -34l-401 -616l-50 34zM42 353q30 25 58 49q28 23 49 45.5t34 44.5t13 45q0 20 -11 32t-32 12q-23 0 -39 -12.5t-27 -32.5l-57 48q15 26 47 49t81 23q33 0 57 -9t39 -23.5t22.5 -33.5t7.5 -39q0 -24 -9 -45t-23 -40t-32 -36.5t-37 -32.5h105v-72h-246v28z
M538 92q12 -14 31 -21.5t41 -7.5q25 0 40 9t15 26q0 18 -18 28.5t-68 8.5v62q47 -1 63 9.5t16 26.5q0 12 -10 20.5t-32 8.5q-21 0 -38.5 -8.5t-33.5 -21.5l-41 53q25 22 54 34t70 12q51 0 85 -22.5t34 -64.5q0 -32 -18 -48.5t-45 -26.5q32 -8 50.5 -27t18.5 -50
q0 -40 -35.5 -69t-99.5 -29q-42 0 -70.5 11.5t-46.5 29.5z" />
    <glyph glyph-name="onefifth" unicode="&#x2155;" horiz-adv-x="688" 
d="M506 650l50 -34l-401 -616l-50 34zM118 574h-77v76h165v-325h-88v249zM421 91q12 -12 30.5 -19.5t41.5 -7.5q55 0 55 40q0 22 -29.5 34.5t-105.5 14.5l45 172h183v-73h-125l-13 -47q69 -7 100.5 -32.5t31.5 -70.5t-35 -76.5t-98 -31.5q-42 0 -71.5 11t-47.5 29z" />
    <glyph glyph-name="twofifths" unicode="&#x2156;" horiz-adv-x="763" 
d="M581 650l50 -34l-401 -616l-50 34zM42 353q30 25 58 49q28 23 49 45.5t34 44.5t13 45q0 20 -11 32t-32 12q-23 0 -39 -12.5t-27 -32.5l-57 48q15 26 47 49t81 23q33 0 57 -9t39 -23.5t22.5 -33.5t7.5 -39q0 -24 -9 -45t-23 -40t-32 -36.5t-37 -32.5h105v-72h-246v28z
M496 91q12 -12 30.5 -19.5t41.5 -7.5q55 0 55 40q0 22 -29.5 34.5t-105.5 14.5l45 172h183v-73h-125l-13 -47q69 -7 100.5 -32.5t31.5 -70.5t-35 -76.5t-98 -31.5q-42 0 -71.5 11t-47.5 29z" />
    <glyph glyph-name="threefifths" unicode="&#x2157;" horiz-adv-x="736" 
d="M555 650l50 -34l-401 -616l-50 34zM468 91q12 -12 30.5 -19.5t41.5 -7.5q55 0 55 40q0 22 -29.5 34.5t-105.5 14.5l45 172h183v-73h-125l-13 -47q69 -7 100.5 -32.5t31.5 -70.5t-35 -76.5t-98 -31.5q-42 0 -71.5 11t-47.5 29zM78 417q12 -14 31 -21.5t41 -7.5q25 0 40 9
t15 26q0 18 -18 28.5t-68 8.5v62q47 -1 63 9.5t16 26.5q0 12 -10 20.5t-32 8.5q-21 0 -38.5 -8.5t-33.5 -21.5l-41 53q25 22 54 34t70 12q51 0 85 -22.5t34 -64.5q0 -32 -18 -48.5t-45 -26.5q32 -8 50.5 -27t18.5 -50q0 -40 -35.5 -69t-99.5 -29q-42 0 -70.5 11.5
t-46.5 29.5z" />
    <glyph glyph-name="fourfifths" unicode="&#x2158;" horiz-adv-x="776" 
d="M594 650l50 -34l-401 -616l-50 34zM509 91q12 -12 30.5 -19.5t41.5 -7.5q55 0 55 40q0 22 -29.5 34.5t-105.5 14.5l45 172h183v-73h-125l-13 -47q69 -7 100.5 -32.5t31.5 -70.5t-35 -76.5t-98 -31.5q-42 0 -71.5 11t-47.5 29zM206 463v88l-73 -88h73zM30 425l184 227h72
v-187h56v-64h-56v-76h-82v76h-174v24z" />
    <glyph glyph-name="onesixth" unicode="&#x2159;" horiz-adv-x="667" 
d="M506 650l50 -34l-401 -616l-50 34zM118 574h-77v76h165v-325h-88v249zM499 60q26 0 38.5 13.5t12.5 33.5q0 41 -49 41q-28 0 -40 -8.5t-12 -27.5q0 -52 50 -52zM499 -6q-65 0 -99.5 37t-34.5 99q0 72 49 124t137 77l31 -69q-18 -5 -37.5 -11.5t-37.5 -15.5t-32.5 -19.5
t-23.5 -23.5q30 19 74 19q21 0 41 -6t35.5 -19t24.5 -32t9 -44q0 -50 -37.5 -83t-98.5 -33z" />
    <glyph glyph-name="fivesixths" unicode="&#x215a;" horiz-adv-x="698" 
d="M537 650l50 -34l-401 -616l-50 34zM529 60q26 0 38.5 13.5t12.5 33.5q0 41 -49 41q-28 0 -40 -8.5t-12 -27.5q0 -52 50 -52zM529 -6q-65 0 -99.5 37t-34.5 99q0 72 49 124t137 77l31 -69q-18 -5 -37.5 -11.5t-37.5 -15.5t-32.5 -19.5t-23.5 -23.5q30 19 74 19q21 0 41 -6
t35.5 -19t24.5 -32t9 -44q0 -50 -37.5 -83t-98.5 -33zM70 416q12 -12 30.5 -19.5t41.5 -7.5q55 0 55 40q0 22 -29.5 34.5t-105.5 14.5l45 172h183v-73h-125l-13 -47q69 -7 100.5 -32.5t31.5 -70.5t-35 -76.5t-98 -31.5q-42 0 -71.5 11t-47.5 29z" />
    <glyph glyph-name="oneeighth" unicode="&#x215b;" horiz-adv-x="703" 
d="M506 650l50 -34l-401 -616l-50 34zM118 574h-77v76h165v-325h-88v249zM534 -6q-60 0 -96.5 27t-36.5 69q0 24 15.5 43t41.5 32q-22 11 -36.5 28.5t-14.5 44.5q0 42 35 67.5t92 25.5q60 0 95.5 -25.5t35.5 -65.5q0 -23 -14.5 -40.5t-34.5 -28.5q23 -11 39 -28.5t16 -46.5
q0 -25 -11 -44t-29.5 -32t-43.5 -19.5t-53 -6.5zM535 58q22 0 35.5 8.5t13.5 25.5t-16.5 26.5t-41.5 17.5q-40 -16 -40 -43q0 -16 13 -25.5t36 -9.5zM545 198q15 6 26 15.5t11 23.5q0 15 -13.5 22.5t-33.5 7.5q-43 0 -43 -28q0 -16 14.5 -24.5t38.5 -16.5z" />
    <glyph glyph-name="threeeighths" unicode="&#x215c;" horiz-adv-x="752" 
d="M555 650l50 -34l-401 -616l-50 34zM582 -6q-60 0 -96.5 27t-36.5 69q0 24 15.5 43t41.5 32q-22 11 -36.5 28.5t-14.5 44.5q0 42 35 67.5t92 25.5q60 0 95.5 -25.5t35.5 -65.5q0 -23 -14.5 -40.5t-34.5 -28.5q23 -11 39 -28.5t16 -46.5q0 -25 -11 -44t-29.5 -32
t-43.5 -19.5t-53 -6.5zM583 58q22 0 35.5 8.5t13.5 25.5t-16.5 26.5t-41.5 17.5q-40 -16 -40 -43q0 -16 13 -25.5t36 -9.5zM593 198q15 6 26 15.5t11 23.5q0 15 -13.5 22.5t-33.5 7.5q-43 0 -43 -28q0 -16 14.5 -24.5t38.5 -16.5zM78 417q12 -14 31 -21.5t41 -7.5q25 0 40 9
t15 26q0 18 -18 28.5t-68 8.5v62q47 -1 63 9.5t16 26.5q0 12 -10 20.5t-32 8.5q-21 0 -38.5 -8.5t-33.5 -21.5l-41 53q25 22 54 34t70 12q51 0 85 -22.5t34 -64.5q0 -32 -18 -48.5t-45 -26.5q32 -8 50.5 -27t18.5 -50q0 -40 -35.5 -69t-99.5 -29q-42 0 -70.5 11.5
t-46.5 29.5z" />
    <glyph glyph-name="fiveeighths" unicode="&#x215d;" horiz-adv-x="734" 
d="M537 650l50 -34l-401 -616l-50 34zM70 416q12 -12 30.5 -19.5t41.5 -7.5q55 0 55 40q0 22 -29.5 34.5t-105.5 14.5l45 172h183v-73h-125l-13 -47q69 -7 100.5 -32.5t31.5 -70.5t-35 -76.5t-98 -31.5q-42 0 -71.5 11t-47.5 29zM565 -6q-60 0 -96.5 27t-36.5 69
q0 24 15.5 43t41.5 32q-22 11 -36.5 28.5t-14.5 44.5q0 42 35 67.5t92 25.5q60 0 95.5 -25.5t35.5 -65.5q0 -23 -14.5 -40.5t-34.5 -28.5q23 -11 39 -28.5t16 -46.5q0 -25 -11 -44t-29.5 -32t-43.5 -19.5t-53 -6.5zM566 58q22 0 35.5 8.5t13.5 25.5t-16.5 26.5t-41.5 17.5
q-40 -16 -40 -43q0 -16 13 -25.5t36 -9.5zM576 198q15 6 26 15.5t11 23.5q0 15 -13.5 22.5t-33.5 7.5q-43 0 -43 -28q0 -16 14.5 -24.5t38.5 -16.5z" />
    <glyph glyph-name="seveneighths" unicode="&#x215e;" horiz-adv-x="673" 
d="M476 650l50 -34l-401 -616l-50 34zM503 -6q-60 0 -96.5 27t-36.5 69q0 24 15.5 43t41.5 32q-22 11 -36.5 28.5t-14.5 44.5q0 42 35 67.5t92 25.5q60 0 95.5 -25.5t35.5 -65.5q0 -23 -14.5 -40.5t-34.5 -28.5q23 -11 39 -28.5t16 -46.5q0 -25 -11 -44t-29.5 -32
t-43.5 -19.5t-53 -6.5zM504 58q22 0 35.5 8.5t13.5 25.5t-16.5 26.5t-41.5 17.5q-40 -16 -40 -43q0 -16 13 -25.5t36 -9.5zM514 198q15 6 26 15.5t11 23.5q0 15 -13.5 22.5t-33.5 7.5q-43 0 -43 -28q0 -16 14.5 -24.5t38.5 -16.5zM192 574h-143v76h265v-18l-154 -307h-94z
" />
    <glyph glyph-name="arrowleft" unicode="&#x2190;" horiz-adv-x="781" 
d="M369 611l74 -74l-191 -184h436v-104h-436l191 -184l-74 -73l-309 309z" />
    <glyph glyph-name="arrowup" unicode="&#x2191;" horiz-adv-x="781" 
d="M338 436l-184 -191l-73 74l309 309l310 -309l-73 -74l-184 191v-436h-105v436z" />
    <glyph glyph-name="arrowright" unicode="&#x2192;" horiz-adv-x="781" 
d="M93 353h436l-192 184l74 74l310 -310l-310 -309l-74 73l192 184h-436v104z" />
    <glyph glyph-name="arrowdown" unicode="&#x2193;" horiz-adv-x="781" 
d="M154 405l184 -191v436h105v-436l184 191l73 -74l-310 -309l-309 309z" />
    <glyph glyph-name="uni2196" unicode="&#x2196;" horiz-adv-x="781" 
d="M155 543h458v-104l-286 6l329 -329l-74 -74l-329 329l6 -286h-104v458z" />
    <glyph glyph-name="uni2197" unicode="&#x2197;" horiz-adv-x="781" 
d="M125 116l328 329l-285 -6v104h458v-458h-104l5 286l-328 -329z" />
    <glyph glyph-name="uni2198" unicode="&#x2198;" horiz-adv-x="781" 
d="M168 174l285 -5l-328 328l74 74l328 -328l-5 285h104v-458h-458v104z" />
    <glyph glyph-name="uni2199" unicode="&#x2199;" horiz-adv-x="781" 
d="M155 528h104l-6 -285l329 328l74 -74l-329 -328l286 5v-104h-458v458z" />
    <glyph glyph-name="partialdiff" unicode="&#x2202;" horiz-adv-x="606" 
d="M265 -9q-51 0 -91.5 16t-69.5 43.5t-44.5 65.5t-15.5 82q0 54 24 99.5t72.5 78t121 50t170.5 16.5q-5 33 -16 62.5t-30.5 52t-49 35.5t-72.5 13q-49 0 -89.5 -13t-75.5 -30l-41 87q41 22 95.5 38.5t114.5 16.5q72 0 126 -24.5t89 -70t52.5 -110t17.5 -143.5
q0 -176 -76 -270.5t-212 -94.5zM271 91q36 0 66 14t52 43.5t34.5 76.5t13.5 113v13q-75 0 -127 -11t-85 -31.5t-48 -48.5t-15 -61q0 -48 27.5 -78t81.5 -30z" />
    <glyph glyph-name="product" unicode="&#x220f;" horiz-adv-x="714" 
d="M100 650h515v-816h-121v707h-274v-707h-120v816z" />
    <glyph glyph-name="summation" unicode="&#x2211;" horiz-adv-x="592" 
d="M11 -142l284 400l-264 367v25h532v-107h-332l197 -275v-22l-216 -305h373v-107h-574v24z" />
    <glyph glyph-name="minus" unicode="&#x2212;" 
d="M56 321h468v-94h-468v94z" />
    <glyph glyph-name="radical" unicode="&#x221a;" horiz-adv-x="628" 
d="M142 278h-105v94h175l85 -214l189 537h118l-264 -695h-80z" />
    <glyph glyph-name="infinity" unicode="&#x221e;" horiz-adv-x="736" 
d="M199 83q-32 0 -58.5 14t-45.5 39.5t-29.5 60t-10.5 76.5t10.5 76.5t29.5 60t45.5 39.5t58.5 14q52 0 90 -31t78 -94q41 63 80 94t90 31q32 0 58.5 -14t45.5 -39.5t29.5 -60t10.5 -76.5t-10.5 -76.5t-29.5 -60t-45.5 -39.5t-58.5 -14q-52 0 -90 31t-78 94q-41 -63 -80 -94
t-90 -31zM210 177q29 0 56 26t54 69q-27 42 -54 69.5t-56 27.5q-30 0 -47.5 -27t-17.5 -69t17.5 -69t47.5 -27zM416 274q27 -42 54 -69.5t56 -27.5q30 0 47.5 27t17.5 69t-17.5 69t-47.5 27q-29 0 -56 -26t-54 -69z" />
    <glyph glyph-name="integral" unicode="&#x222b;" horiz-adv-x="382" 
d="M41 -60q11 -6 26 -10t31 -4q23 0 36.5 12t13.5 42q0 51 -4 128t-9 159t-9 158t-4 126q0 76 39.5 114.5t108.5 38.5q32 0 58 -6.5t46 -15.5l-30 -93q-12 5 -26.5 9.5t-30.5 4.5q-23 0 -36.5 -12.5t-13.5 -41.5q0 -34 2 -80.5t5 -99t6 -107.5t6 -107.5t5 -98t2 -78.5
q0 -76 -39.5 -114.5t-108.5 -38.5q-33 0 -59 6t-46 16z" />
    <glyph glyph-name="approxequal" unicode="&#x2248;" 
d="M62 423q14 11 40 22t68 11q36 0 66 -9t58 -19.5t56.5 -19t60.5 -8.5q36 0 61 10t42 22l4 -2v-89q-14 -11 -40 -22t-68 -11q-36 0 -66 8.5t-58 19t-56.5 19.5t-60.5 9q-36 0 -61 -10t-42 -22l-4 2v89zM62 231q14 11 40 22t68 11q36 0 66 -9t58 -19.5t56.5 -19t60.5 -8.5
q36 0 61 10t42 22l4 -2v-88q-14 -11 -40 -22t-68 -11q-36 0 -66 8.5t-58 19t-56.5 19.5t-60.5 9q-36 0 -61 -10t-42 -22l-4 2v88z" />
    <glyph glyph-name="notequal" unicode="&#x2260;" 
d="M213 133h-151v91h175l27 100h-202v92h226l36 132h78l-35 -132h151v-92h-176l-27 -100h203v-91h-226l-36 -133h-78z" />
    <glyph glyph-name="lessequal" unicode="&#x2264;" 
d="M62 90h456v-90h-456v90zM65 352l400 200l40 -93l-273 -126l273 -126l-40 -92l-400 199v38z" />
    <glyph glyph-name="greaterequal" unicode="&#x2265;" 
d="M62 90h456v-90h-456v90zM75 207l273 126l-273 126l40 93l400 -200v-38l-400 -199z" />
    <glyph glyph-name="blank" unicode="&#x2423;" horiz-adv-x="0" 
 />
    <glyph glyph-name="lozenge" unicode="&#x25ca;" 
d="M57 329l216 330h34l216 -330l-216 -329h-34zM403 329l-113 178l-113 -178l113 -178z" />
    <glyph glyph-name="uni25FC" unicode="&#x25fc;" horiz-adv-x="485" 
d="M0 485h485v-485h-485v485z" />
    <glyph glyph-name="comma.inferior" unicode="&#xf6e1;" horiz-adv-x="162" 
d="M28 -133q17 19 25.5 33.5t8.5 29.5t-11 26t-30 24l50 66q29 -16 51 -42t22 -62q0 -34 -17 -61t-49 -59z" />
    <glyph glyph-name="comma.superior" unicode="&#xf6e2;" horiz-adv-x="162" 
d="M28 255q17 19 25.5 33.5t8.5 29.5t-11 26t-30 24l50 66q29 -16 51 -42t22 -62q0 -34 -17 -61t-49 -59z" />
    <glyph glyph-name="period.inferior" unicode="&#xf6e7;" horiz-adv-x="162" 
d="M81 -68q-23 0 -38 14.5t-15 37.5t15 38t38 15t38 -15t15 -38t-15 -37.5t-38 -14.5z" />
    <glyph glyph-name="period.superior" unicode="&#xf6e8;" horiz-adv-x="162" 
d="M81 320q-23 0 -38 14.5t-15 37.5t15 38t38 15t38 -15t15 -38t-15 -37.5t-38 -14.5z" />
    <glyph glyph-name="f_i" unicode="&#xfb01;" horiz-adv-x="590" 
d="M97 387h-72v97h72v56q0 78 43.5 121t118.5 43q34 0 58.5 -6.5t45.5 -16.5l-26 -91q-17 8 -31 12t-32 4q-26 0 -44 -16t-18 -58v-48h103v-97h-103v-387h-115v387zM409 484h115v-484h-115v484zM466 555q-30 0 -50 18t-20 47t20 47t50 18q31 0 50.5 -18t19.5 -47t-19.5 -47
t-50.5 -18z" />
    <glyph glyph-name="f_l" unicode="&#xfb02;" horiz-adv-x="590" 
d="M97 387h-72v97h72v56q0 78 43.5 121t118.5 43q34 0 58.5 -6.5t45.5 -16.5l-26 -91q-17 8 -31 12t-32 4q-26 0 -44 -16t-18 -58v-48h103v-97h-103v-387h-115v387zM409 693h115v-695h-115v695z" />
    <glyph glyph-name="space.wide" horiz-adv-x="280" 
 />
    <glyph glyph-name="F_I.cap" horiz-adv-x="811" 
d="M78 650h437v-106h-315v-183h231v-106h-231v-255h-122v650zM611 650h122v-650h-122v650z" />
    <glyph glyph-name="F_L.cap" horiz-adv-x="1101" 
d="M78 650h437v-106h-315v-183h231v-106h-231v-255h-122v650zM611 650h122v-543h360v-107h-482v650z" />
    <glyph glyph-name="S_S.cap" horiz-adv-x="1094" 
d="M46 141q14 -6 35 -14t47 -15t55.5 -12t61.5 -5q29 0 54 4.5t43 14.5t28.5 26.5t10.5 40.5q0 25 -13.5 42t-35 29.5t-49.5 22.5t-57 21q-30 11 -59 26t-52 36t-37 50.5t-14 70.5q0 43 15.5 76.5t44 56.5t68.5 35t88 12t91.5 -7t84.5 -20v-108q-41 14 -85 22.5t-87 8.5
q-101 0 -101 -70q0 -21 11.5 -35.5t30 -25.5t42 -20t48.5 -19q33 -13 66 -28t60 -37.5t43.5 -55t16.5 -80.5q0 -47 -18.5 -83t-51.5 -60.5t-79 -37t-101 -12.5q-70 0 -123.5 14.5t-81.5 27.5v108zM593 141q14 -6 35 -14t47 -15t55.5 -12t61.5 -5q29 0 54 4.5t43 14.5
t28.5 26.5t10.5 40.5q0 25 -13.5 42t-35 29.5t-49.5 22.5t-57 21q-30 11 -59 26t-52 36t-37 50.5t-14 70.5q0 43 15.5 76.5t44 56.5t68.5 35t88 12t91.5 -7t84.5 -20v-108q-41 14 -85 22.5t-87 8.5q-101 0 -101 -70q0 -21 11.5 -35.5t30 -25.5t42 -20t48.5 -19
q33 -13 66 -28t60 -37.5t43.5 -55t16.5 -80.5q0 -47 -18.5 -83t-51.5 -60.5t-79 -37t-101 -12.5q-70 0 -123.5 14.5t-81.5 27.5v108z" />
    <glyph glyph-name="i.dot" horiz-adv-x="248" 
d="M67 484h115v-484h-115v484zM124 555q-30 0 -50 18t-20 47t20 47t50 18q31 0 50.5 -18t19.5 -47t-19.5 -47t-50.5 -18z" />
    <glyph glyph-name="A.small" horiz-adv-x="602" 
d="M236 548h124l244 -548h-130l-64 148h-222l-62 -148h-129zM374 243l-75 179l-75 -179h150z" />
    <glyph glyph-name="B.small" horiz-adv-x="565" 
d="M78 548h213q100 0 152 -35t52 -103q0 -44 -23.5 -75t-62.5 -50q49 -14 76.5 -46t27.5 -81q0 -79 -63.5 -118.5t-175.5 -39.5h-196v548zM269 96q69 0 95.5 19.5t26.5 52.5q0 65 -89 65h-107v-137h74zM283 322q44 0 67 19.5t23 52.5q0 32 -22.5 44.5t-72.5 12.5h-83v-129
h88z" />
    <glyph glyph-name="C.small" horiz-adv-x="586" 
d="M531 23q-43 -17 -86 -24t-86 -7q-71 0 -127.5 21t-96.5 58.5t-61 89t-21 111.5q0 61 21.5 113t61 90t95.5 59.5t126 21.5q42 0 84.5 -7t88.5 -24v-107q-41 15 -77 24t-84 9t-84 -13.5t-60 -36.5t-36.5 -55.5t-12.5 -69.5q0 -39 12 -72t36.5 -56.5t61.5 -37t86 -13.5
q46 0 83 8.5t76 24.5v-107z" />
    <glyph glyph-name="D.small" horiz-adv-x="649" 
d="M78 548h198q79 0 135.5 -16.5t95.5 -48.5q89 -72 89 -202q0 -62 -22 -114.5t-64 -90.5q-40 -35 -98 -55.5t-138 -20.5h-196v548zM277 101q54 0 89.5 12.5t58.5 33.5q26 24 38 57.5t12 72.5q0 42 -12 75t-39 55q-23 19 -58.5 29t-88.5 10h-81v-345h81z" />
    <glyph glyph-name="E.small" horiz-adv-x="520" 
d="M78 548h385v-100h-268v-126h196v-93h-196v-130h307v-99h-424v548z" />
    <glyph glyph-name="F.small" horiz-adv-x="482" 
d="M78 548h386v-101h-268v-139h196v-100h-196v-208h-118v548z" />
    <glyph glyph-name="G.small" horiz-adv-x="633" 
d="M371 -8q-75 0 -134 21t-100 58t-62.5 88.5t-21.5 112.5q0 62 21.5 114.5t63 90t101 58.5t135.5 21q48 0 95 -7t94 -24v-105q-44 15 -86.5 24t-96.5 9q-51 0 -89.5 -13t-64.5 -36.5t-39 -56t-13 -72.5q0 -82 51 -132t153 -50q35 0 68 6v113h-97v91h207v-280
q-45 -16 -94.5 -23.5t-90.5 -7.5z" />
    <glyph glyph-name="H.small" horiz-adv-x="639" 
d="M78 548h118v-220h247v220h118v-548h-118v223h-247v-223h-118v548z" />
    <glyph glyph-name="I.small" horiz-adv-x="274" 
d="M78 548h118v-548h-118v548z" />
    <glyph glyph-name="J.small" horiz-adv-x="437" 
d="M64 137q21 -19 46.5 -29.5t60.5 -10.5q29 0 51.5 11t22.5 39v401h118v-420q0 -33 -14 -58.5t-38.5 -42.5t-58.5 -26t-73 -9q-62 0 -103.5 16t-65.5 38z" />
    <glyph glyph-name="K.small" horiz-adv-x="566" 
d="M78 548h118v-238l205 238h143l-238 -266l260 -282h-149l-203 219h-18v-219h-118v548z" />
    <glyph glyph-name="L.small" horiz-adv-x="511" 
d="M78 548h118v-445h307v-103h-425v548z" />
    <glyph glyph-name="M.small" horiz-adv-x="766" 
d="M86 548h167l129 -311l128 311h167l13 -548h-119l-8 411l-161 -386h-41l-161 386l-6 -411h-118z" />
    <glyph glyph-name="N.small" horiz-adv-x="651" 
d="M78 548h107l270 -314v314h118v-554h-48l-329 377v-371h-118v548z" />
    <glyph glyph-name="O.small" horiz-adv-x="687" 
d="M343 -8q-64 0 -117.5 21t-91.5 58.5t-59.5 89t-21.5 112.5t21.5 112.5t60 89.5t92 59.5t117.5 21.5t117.5 -21t91.5 -58.5t59.5 -89t21.5 -112.5t-21.5 -112.5t-60 -89.5t-92 -59.5t-117.5 -21.5zM344 97q39 0 70 13t53 36.5t34 56t12 71.5t-12 71.5t-34 56t-53.5 36.5
t-69.5 13q-39 0 -70.5 -13t-53.5 -36.5t-34 -56t-12 -71.5t12 -71.5t34.5 -56t53.5 -36.5t70 -13z" />
    <glyph glyph-name="P.small" horiz-adv-x="538" 
d="M78 548h192q109 0 168 -48t59 -133q0 -83 -59 -132t-168 -49h-74v-186h-118v548zM273 282q55 0 79 22t24 62q0 39 -24 61t-79 22h-77v-167h77z" />
    <glyph glyph-name="Q.small" horiz-adv-x="687" 
d="M278 -1q-51 9 -92.5 33.5t-71 60t-45.5 81.5t-16 99q0 61 21.5 112.5t60 89.5t92 59.5t117.5 21.5t117.5 -21t91.5 -58.5t59.5 -89t21.5 -112.5q0 -49 -14 -92t-40 -78t-62.5 -60t-81.5 -38l123 -66l-69 -88zM344 96q38 0 69.5 13t53.5 37t34 56.5t12 71.5t-12 71.5
t-34 56t-53.5 36.5t-69.5 13q-39 0 -70.5 -13t-53.5 -36.5t-34 -56t-12 -71.5t12 -71.5t34 -56.5t53.5 -37t70.5 -13z" />
    <glyph glyph-name="R.small" horiz-adv-x="572" 
d="M78 548h188q110 0 167.5 -45.5t57.5 -126.5q0 -31 -10 -55t-27 -42t-39 -30.5t-46 -19.5l205 -229h-145l-183 208h-50v-208h-118v548zM253 302q21 0 42 2.5t37.5 11t26.5 23t10 38.5q0 35 -24 53t-78 18h-71v-146h57z" />
    <glyph glyph-name="S.small" horiz-adv-x="491" 
d="M46 132q13 -6 32 -13t42.5 -13t50 -10.5t54.5 -4.5q45 0 74.5 14t29.5 50q0 18 -10.5 31t-27.5 22.5t-39 17.5t-46 17q-26 9 -51.5 21.5t-46 30.5t-33.5 43.5t-13 60.5q0 37 14 66t39 49.5t60 31t77 10.5q43 0 80.5 -6.5t74.5 -17.5v-103q-37 12 -75.5 20t-75.5 8
q-78 0 -78 -52q0 -16 9.5 -27t25.5 -19.5t36 -16t41 -15.5q27 -11 54.5 -23.5t50 -31.5t36.5 -46.5t14 -68.5q0 -40 -16 -71t-44.5 -52t-68 -31.5t-87.5 -10.5q-63 0 -111 13t-72 24v103z" />
    <glyph glyph-name="T.small" horiz-adv-x="557" 
d="M219 445h-209v103h537v-103h-210v-445h-118v445z" />
    <glyph glyph-name="U.small" horiz-adv-x="644" 
d="M73 548h118v-346q0 -20 5.5 -39t19.5 -33.5t39.5 -23.5t66.5 -9q40 0 66 9t40 23.5t19.5 33.5t5.5 39v346h118v-355q0 -98 -66 -149.5t-184 -51.5t-183 51t-65 150v355z" />
    <glyph glyph-name="V.small" horiz-adv-x="552" 
d="M-3 548h134l146 -353l147 353h131l-252 -553h-53z" />
    <glyph glyph-name="W.small" horiz-adv-x="728" 
d="M-3 548h133l99 -307l90 307h91l95 -309l99 309h127l-203 -553h-52l-112 361l-109 -361h-52z" />
    <glyph glyph-name="X.small" horiz-adv-x="553" 
d="M202 277l-194 271h142l128 -186l128 186h138l-194 -271l202 -277h-142l-136 193l-136 -193h-136z" />
    <glyph glyph-name="Y.small" horiz-adv-x="544" 
d="M213 238l-217 310h138l139 -204l137 204h138l-217 -310v-238h-118v238z" />
    <glyph glyph-name="Z.small" horiz-adv-x="512" 
d="M11 24l299 421h-281v103h470v-24l-300 -421h306v-103h-494v24z" />
    <glyph glyph-name="Agrave.small" horiz-adv-x="602" 
d="M153 771l98 45l86 -216h-76zM236 548h124l244 -548h-130l-64 148h-222l-62 -148h-129zM374 243l-75 179l-75 -179h150z" />
    <glyph glyph-name="Aacute.small" horiz-adv-x="602" 
d="M347 816l98 -45l-108 -171h-76zM236 548h124l244 -548h-130l-64 148h-222l-62 -148h-129zM374 243l-75 179l-75 -179h150z" />
    <glyph glyph-name="Acircumflex.small" horiz-adv-x="602" 
d="M236 548h124l244 -548h-130l-64 148h-222l-62 -148h-129zM374 243l-75 179l-75 -179h150zM257 804h84l121 -204h-76l-87 110l-87 -110h-76z" />
    <glyph glyph-name="Atilde.small" horiz-adv-x="602" 
d="M132 601q5 148 96 148q24 0 44 -9.5t37 -21t31 -21t27 -9.5q17 0 24.5 13.5t11.5 46.5h64q-5 -148 -96 -148q-24 0 -44 9.5t-37 20.5t-31 20.5t-27 9.5q-17 0 -24.5 -13.5t-10.5 -45.5h-65zM236 548h124l244 -548h-130l-64 148h-222l-62 -148h-129zM374 243l-75 179
l-75 -179h150z" />
    <glyph glyph-name="Adieresis.small" horiz-adv-x="602" 
d="M236 548h124l244 -548h-130l-64 148h-222l-62 -148h-129zM374 243l-75 179l-75 -179h150zM201 607q-28 0 -46.5 18t-18.5 46t18.5 46t46.5 18t46.5 -18t18.5 -46t-18.5 -46t-46.5 -18zM397 607q-28 0 -46.5 18t-18.5 46t18.5 46t46.5 18t46.5 -18t18.5 -46t-18.5 -46
t-46.5 -18z" />
    <glyph glyph-name="Amacron.small" horiz-adv-x="602" 
d="M138 708h320v-83h-320v83zM236 548h124l244 -548h-130l-64 148h-222l-62 -148h-129zM374 243l-75 179l-75 -179h150z" />
    <glyph glyph-name="Abreve.small" horiz-adv-x="602" 
d="M299 597q-39 0 -68 14t-48.5 37.5t-31 54t-15.5 62.5h66q3 -14 10 -29t18.5 -27t28.5 -19.5t40 -7.5t40 7.5t28.5 19.5t18.5 27t10 29h66q-4 -32 -15.5 -62.5t-31 -54t-48.5 -37.5t-68 -14zM236 548h124l244 -548h-130l-64 148h-222l-62 -148h-129zM374 243l-75 179
l-75 -179h150z" />
    <glyph glyph-name="Aring.small" horiz-adv-x="602" 
d="M299 591q-52 0 -85 30t-33 78t33 78t85 30t85 -30t33 -78t-33 -78t-85 -30zM299 648q22 0 34.5 14t12.5 37q0 24 -12.5 38t-34.5 14t-34.5 -14t-12.5 -38q0 -23 12.5 -37t34.5 -14zM236 548h124l244 -548h-130l-64 148h-222l-62 -148h-129zM374 243l-75 179l-75 -179h150
z" />
    <glyph glyph-name="Aringacute.small" horiz-adv-x="602" 
d="M236 548h124l244 -548h-130l-64 148h-222l-62 -148h-129zM374 243l-75 179l-75 -179h150zM299 592q-52 0 -85 28t-33 73t33 72.5t85 27.5q27 0 49 -11l48 97l93 -43l-87 -92q15 -23 15 -51q0 -45 -33 -73t-85 -28zM299 647q22 0 34.5 12t12.5 34q0 21 -12.5 33t-34.5 12
t-34.5 -12t-12.5 -33q0 -22 12.5 -34t34.5 -12z" />
    <glyph glyph-name="Aogonek.small" horiz-adv-x="602" 
d="M236 548h124l244 -548h-23q-35 0 -58.5 -5.5t-38 -14.5t-21 -20t-6.5 -21q0 -22 17 -32t45 -10q20 0 37 3.5t28 7.5l22 -66q-17 -6 -43.5 -11.5t-60.5 -5.5q-60 0 -96.5 23t-36.5 71q0 21 8 38t21.5 30.5t30 23.5t34.5 15l-53 122h-222l-62 -148h-129zM374 243l-75 179
l-75 -179h150z" />
    <glyph glyph-name="AE.small" horiz-adv-x="856" 
d="M281 548h467v-100h-285l33 -126h222v-93h-204l34 -130h295v-99h-389l-37 148h-216l-75 -148h-129zM398 243l-48 205l-104 -205h152z" />
    <glyph glyph-name="AEacute.small" horiz-adv-x="856" 
d="M531 816l98 -45l-108 -171h-76zM281 548h467v-100h-285l33 -126h222v-93h-204l34 -130h295v-99h-389l-37 148h-216l-75 -148h-129zM398 243l-48 205l-104 -205h152z" />
    <glyph glyph-name="Cacute.small" horiz-adv-x="586" 
d="M398 816l98 -45l-108 -171h-76zM531 23q-43 -17 -86 -24t-86 -7q-71 0 -127.5 21t-96.5 58.5t-61 89t-21 111.5q0 61 21.5 113t61 90t95.5 59.5t126 21.5q42 0 84.5 -7t88.5 -24v-107q-41 15 -77 24t-84 9t-84 -13.5t-60 -36.5t-36.5 -55.5t-12.5 -69.5q0 -39 12 -72
t36.5 -56.5t61.5 -37t86 -13.5q46 0 83 8.5t76 24.5v-107z" />
    <glyph glyph-name="Ccircumflex.small" horiz-adv-x="586" 
d="M531 23q-43 -17 -86 -24t-86 -7q-71 0 -127.5 21t-96.5 58.5t-61 89t-21 111.5q0 61 21.5 113t61 90t95.5 59.5t126 21.5q42 0 84.5 -7t88.5 -24v-107q-41 15 -77 24t-84 9t-84 -13.5t-60 -36.5t-36.5 -55.5t-12.5 -69.5q0 -39 12 -72t36.5 -56.5t61.5 -37t86 -13.5
q46 0 83 8.5t76 24.5v-107zM298 804h84l121 -204h-76l-87 110l-87 -110h-76z" />
    <glyph glyph-name="Ccaron.small" horiz-adv-x="586" 
d="M182 804h76l87 -111l87 111h76l-121 -204h-84zM531 23q-43 -17 -86 -24t-86 -7q-71 0 -127.5 21t-96.5 58.5t-61 89t-21 111.5q0 61 21.5 113t61 90t95.5 59.5t126 21.5q42 0 84.5 -7t88.5 -24v-107q-41 15 -77 24t-84 9t-84 -13.5t-60 -36.5t-36.5 -55.5t-12.5 -69.5
q0 -39 12 -72t36.5 -56.5t61.5 -37t86 -13.5q46 0 83 8.5t76 24.5v-107z" />
    <glyph glyph-name="Cdotaccent.small" horiz-adv-x="586" 
d="M531 23q-43 -17 -86 -24t-86 -7q-71 0 -127.5 21t-96.5 58.5t-61 89t-21 111.5q0 61 21.5 113t61 90t95.5 59.5t126 21.5q42 0 84.5 -7t88.5 -24v-107q-41 15 -77 24t-84 9t-84 -13.5t-60 -36.5t-36.5 -55.5t-12.5 -69.5q0 -39 12 -72t36.5 -56.5t61.5 -37t86 -13.5
q46 0 83 8.5t76 24.5v-107zM346 609q-30 0 -50 17.5t-20 46.5t20 47t50 18t50 -18t20 -47t-20 -46.5t-50 -17.5z" />
    <glyph glyph-name="Ccedilla.small" horiz-adv-x="586" 
d="M233 -100q15 -5 34.5 -8.5t41.5 -3.5q31 0 42 6t11 17q0 17 -23 23t-71 8l33 57q-58 8 -104 32t-78 60t-49 82.5t-17 99.5q0 61 21.5 112.5t61 89.5t95.5 59.5t126 21.5q42 0 84.5 -7t88.5 -24v-107q-41 16 -77 24.5t-84 8.5t-84 -13t-60 -36.5t-36.5 -55.5t-12.5 -69
q0 -39 12 -71.5t36.5 -56t61.5 -37t86 -13.5q46 0 83 9t76 24v-106q-41 -16 -82.5 -23t-83.5 -8l-12 -20q41 -4 68 -22.5t27 -50.5q0 -38 -35.5 -57.5t-100.5 -19.5q-29 0 -55.5 4t-44.5 11z" />
    <glyph glyph-name="Dcaron.small" horiz-adv-x="649" 
d="M147 804h76l87 -111l87 111h76l-121 -204h-84zM78 548h198q79 0 135.5 -16.5t95.5 -48.5q89 -72 89 -202q0 -62 -22 -114.5t-64 -90.5q-40 -35 -98 -55.5t-138 -20.5h-196v548zM277 101q54 0 89.5 12.5t58.5 33.5q26 24 38 57.5t12 72.5q0 42 -12 75t-39 55
q-23 19 -58.5 29t-88.5 10h-81v-345h81z" />
    <glyph glyph-name="Dcroat.small" horiz-adv-x="684" 
d="M113 227h-78v97h78v224h198q78 0 135 -16.5t95 -48.5q90 -72 90 -202q0 -62 -22 -114.5t-65 -90.5q-40 -35 -97.5 -55.5t-138.5 -20.5h-195v227zM311 100q54 0 90 12t59 34q26 23 37.5 57.5t11.5 73.5q0 42 -11.5 75.5t-38.5 56.5q-23 19 -58.5 29t-89.5 10h-80v-125h129
v-95h-129v-128h80z" />
    <glyph glyph-name="Egrave.small" horiz-adv-x="520" 
d="M135 771l98 45l86 -216h-76zM78 548h385v-100h-268v-126h196v-93h-196v-130h307v-99h-424v548z" />
    <glyph glyph-name="Eacute.small" horiz-adv-x="520" 
d="M317 816l98 -45l-108 -171h-76zM78 548h385v-100h-268v-126h196v-93h-196v-130h307v-99h-424v548z" />
    <glyph glyph-name="Ecircumflex.small" horiz-adv-x="520" 
d="M78 548h385v-100h-268v-126h196v-93h-196v-130h307v-99h-424v548zM229 804h84l121 -204h-76l-87 110l-87 -110h-76z" />
    <glyph glyph-name="Ecaron.small" horiz-adv-x="520" 
d="M106 804h76l87 -111l87 111h76l-121 -204h-84zM78 548h385v-100h-268v-126h196v-93h-196v-130h307v-99h-424v548z" />
    <glyph glyph-name="Edieresis.small" horiz-adv-x="520" 
d="M78 548h385v-100h-268v-126h196v-93h-196v-130h307v-99h-424v548zM174 607q-28 0 -46.5 18t-18.5 46t18.5 46t46.5 18t46.5 -18t18.5 -46t-18.5 -46t-46.5 -18zM370 607q-28 0 -46.5 18t-18.5 46t18.5 46t46.5 18t46.5 -18t18.5 -46t-18.5 -46t-46.5 -18z" />
    <glyph glyph-name="Emacron.small" horiz-adv-x="520" 
d="M111 708h320v-83h-320v83zM78 548h385v-100h-268v-126h196v-93h-196v-130h307v-99h-424v548z" />
    <glyph glyph-name="Ebreve.small" horiz-adv-x="520" 
d="M271 597q-39 0 -68 14t-48.5 37.5t-31 54t-15.5 62.5h66q3 -14 10 -29t18.5 -27t28.5 -19.5t40 -7.5t40 7.5t28.5 19.5t18.5 27t10 29h66q-4 -32 -15.5 -62.5t-31 -54t-48.5 -37.5t-68 -14zM78 548h385v-100h-268v-126h196v-93h-196v-130h307v-99h-424v548z" />
    <glyph glyph-name="Edotaccent.small" horiz-adv-x="520" 
d="M78 548h385v-100h-268v-126h196v-93h-196v-130h307v-99h-424v548zM271 608q-30 0 -50 17.5t-20 46.5t20 47t50 18t50 -18t20 -47t-20 -46.5t-50 -17.5z" />
    <glyph glyph-name="Eogonek.small" horiz-adv-x="520" 
d="M78 548h385v-100h-268v-126h196v-93h-196v-130h307v-99h-52q-41 0 -66 -17.5t-25 -43.5q0 -22 16.5 -32t44.5 -10q21 0 38 3.5t28 7.5l21 -66q-16 -6 -42.5 -11.5t-61.5 -5.5q-60 0 -96.5 23t-36.5 68q0 29 17.5 51t39.5 33h-249v548z" />
    <glyph glyph-name="F_I.small" horiz-adv-x="756" 
d="M78 548h386v-101h-268v-139h196v-100h-196v-208h-118v548zM560 548h118v-548h-118v548z" />
    <glyph glyph-name="F_L.small" horiz-adv-x="992" 
d="M78 548h386v-101h-268v-139h196v-100h-196v-208h-118v548zM560 548h118v-445h307v-103h-425v548z" />
    <glyph glyph-name="Gcircumflex.small" horiz-adv-x="633" 
d="M371 -8q-75 0 -134 21t-100 58t-62.5 88.5t-21.5 112.5q0 62 21.5 114.5t63 90t101 58.5t135.5 21q48 0 95 -7t94 -24v-105q-44 15 -86.5 24t-96.5 9q-51 0 -89.5 -13t-64.5 -36.5t-39 -56t-13 -72.5q0 -82 51 -132t153 -50q35 0 68 6v113h-97v91h207v-280
q-45 -16 -94.5 -23.5t-90.5 -7.5zM303 804h84l121 -204h-76l-87 110l-87 -110h-76z" />
    <glyph glyph-name="Gbreve.small" horiz-adv-x="633" 
d="M344 597q-39 0 -68 14t-48.5 37.5t-31 54t-15.5 62.5h66q3 -14 10 -29t18.5 -27t28.5 -19.5t40 -7.5t40 7.5t28.5 19.5t18.5 27t10 29h66q-4 -32 -15.5 -62.5t-31 -54t-48.5 -37.5t-68 -14zM371 -8q-75 0 -134 21t-100 58t-62.5 88.5t-21.5 112.5q0 62 21.5 114.5t63 90
t101 58.5t135.5 21q48 0 95 -7t94 -24v-105q-44 15 -86.5 24t-96.5 9q-51 0 -89.5 -13t-64.5 -36.5t-39 -56t-13 -72.5q0 -82 51 -132t153 -50q35 0 68 6v113h-97v91h207v-280q-45 -16 -94.5 -23.5t-90.5 -7.5z" />
    <glyph glyph-name="Gdotaccent.small" horiz-adv-x="633" 
d="M371 -8q-75 0 -134 21t-100 58t-62.5 88.5t-21.5 112.5q0 62 21.5 114.5t63 90t101 58.5t135.5 21q48 0 95 -7t94 -24v-105q-44 15 -86.5 24t-96.5 9q-51 0 -89.5 -13t-64.5 -36.5t-39 -56t-13 -72.5q0 -82 51 -132t153 -50q35 0 68 6v113h-97v91h207v-280
q-45 -16 -94.5 -23.5t-90.5 -7.5zM350 609q-30 0 -50 17.5t-20 46.5t20 47t50 18t50 -18t20 -47t-20 -46.5t-50 -17.5z" />
    <glyph glyph-name="Gcommaaccent.small" horiz-adv-x="633" 
d="M371 -8q-75 0 -134 21t-100 58t-62.5 88.5t-21.5 112.5q0 62 21.5 114.5t63 90t101 58.5t135.5 21q48 0 95 -7t94 -24v-105q-44 15 -86.5 24t-96.5 9q-51 0 -89.5 -13t-64.5 -36.5t-39 -56t-13 -72.5q0 -82 51 -132t153 -50q35 0 68 6v113h-97v91h207v-280
q-45 -16 -94.5 -23.5t-90.5 -7.5zM290 -49h114l-103 -157l-63 25z" />
    <glyph glyph-name="Hcircumflex.small" horiz-adv-x="639" 
d="M78 548h118v-220h247v220h118v-548h-118v223h-247v-223h-118v548zM276 804h84l121 -204h-76l-87 110l-87 -110h-76z" />
    <glyph glyph-name="Hbar.small" horiz-adv-x="708" 
d="M113 383h-78v95h78v70h117v-70h248v70h118v-70h78v-95h-78v-383h-118v211h-248v-211h-117v383zM478 313v70h-248v-70h248z" />
    <glyph glyph-name="Igrave.small" horiz-adv-x="274" 
d="M78 548h118v-548h-118v548zM2 772l98 45l86 -217h-76z" />
    <glyph glyph-name="Iacute.small" horiz-adv-x="274" 
d="M78 548h118v-548h-118v548zM174 817l98 -45l-107 -172h-77z" />
    <glyph glyph-name="Icircumflex.small" horiz-adv-x="274" 
d="M78 548h118v-548h-118v548zM95 804h84l102 -204h-75l-69 111l-69 -111h-75z" />
    <glyph glyph-name="Itilde.small" horiz-adv-x="274" 
d="M78 548h118v-548h-118v548zM-4 601q2 148 80 148q20 0 37.5 -9.5t32 -20.5t26.5 -20.5t22 -9.5q14 0 19 18t6 41h59q-2 -148 -81 -148q-20 0 -37 9.5t-32 21t-27 21t-21 9.5q-14 0 -19.5 -18.5t-6.5 -41.5h-58z" />
    <glyph glyph-name="Idieresis.small" horiz-adv-x="274" 
d="M78 548h118v-548h-118v548zM57 599q-28 0 -45.5 18t-17.5 46t17.5 46t45.5 18t45 -18t17 -46t-17 -46t-45 -18zM217 599q-28 0 -45 18t-17 46t17 46t45 18t45.5 -18t17.5 -46t-17.5 -46t-45.5 -18z" />
    <glyph glyph-name="Imacron.small" horiz-adv-x="274" 
d="M78 548h118v-548h-118v548zM8 709h258v-84h-258v84z" />
    <glyph glyph-name="Ibreve.small" horiz-adv-x="274" 
d="M78 548h118v-548h-118v548zM137 598q-33 0 -57.5 13t-41.5 35.5t-26 53t-12 65.5h60q3 -15 8 -29.5t14 -26.5t22.5 -19t32.5 -7t32.5 7t22.5 19t14 26.5t8 29.5h60q-3 -35 -12 -65.5t-26 -53t-41.5 -35.5t-57.5 -13z" />
    <glyph glyph-name="Idotaccent.small" horiz-adv-x="274" 
d="M78 548h118v-548h-118v548zM137 608q-30 0 -50 17.5t-20 46.5t20 47t50 18t50 -18t20 -47t-20 -46.5t-50 -17.5z" />
    <glyph glyph-name="Iogonek.small" horiz-adv-x="274" 
d="M146 -175q-60 0 -96.5 23t-36.5 69q0 33 19.5 58t45.5 37v536h118v-548q-47 0 -71 -17.5t-24 -43.5q0 -22 17 -32t44 -10q21 0 38 3.5t28 7.5l22 -66q-17 -6 -43.5 -11.5t-60.5 -5.5z" />
    <glyph glyph-name="dotlessi.small" horiz-adv-x="274" 
d="M78 548h118v-548h-118v548z" />
    <glyph glyph-name="IJ.small" horiz-adv-x="711" 
d="M78 548h118v-548h-118v548zM338 137q21 -19 46.5 -29.5t60.5 -10.5q29 0 51.5 11t22.5 39v401h118v-420q0 -33 -14 -58.5t-38.5 -42.5t-58.5 -26t-73 -9q-62 0 -103.5 16t-65.5 38z" />
    <glyph glyph-name="Jcircumflex.small" horiz-adv-x="437" 
d="M64 137q21 -19 46.5 -29.5t60.5 -10.5q29 0 51.5 11t22.5 39v401h118v-420q0 -33 -14 -58.5t-38.5 -42.5t-58.5 -26t-73 -9q-62 0 -103.5 16t-65.5 38zM261 804h85l102 -204h-76l-68 111l-69 -111h-75z" />
    <glyph glyph-name="Kcommaaccent.small" horiz-adv-x="566" 
d="M78 548h118v-238l205 238h143l-238 -266l260 -282h-149l-203 219h-18v-219h-118v548zM244 -49h114l-103 -157l-63 25z" />
    <glyph glyph-name="Lacute.small" horiz-adv-x="511" 
d="M174 816l98 -45l-108 -171h-76zM78 548h118v-445h307v-103h-425v548z" />
    <glyph glyph-name="Lcaron.small" horiz-adv-x="511" 
d="M78 548h118v-445h307v-103h-425v548zM318 610l99 -22l-52 -195h-68z" />
    <glyph glyph-name="Lcommaaccent.small" horiz-adv-x="511" 
d="M78 548h118v-445h307v-103h-425v548zM234 -49h114l-103 -157l-63 25z" />
    <glyph glyph-name="Lslash.small" horiz-adv-x="545" 
d="M113 216l-78 -25v105l78 25v227h118v-190l159 50v-105l-159 -51v-149h306v-103h-424v216z" />
    <glyph glyph-name="Ldot.small" horiz-adv-x="511" 
d="M78 548h118v-445h307v-103h-425v548zM390 244q-30 0 -50 19.5t-20 48.5t20 48.5t50 19.5q29 0 49 -19.5t20 -48.5t-20 -48.5t-49 -19.5z" />
    <glyph glyph-name="Nacute.small" horiz-adv-x="651" 
d="M364 816l98 -45l-108 -171h-76zM78 548h107l270 -314v314h118v-554h-48l-329 377v-371h-118v548z" />
    <glyph glyph-name="Ncaron.small" horiz-adv-x="651" 
d="M163 804h76l87 -111l87 111h76l-121 -204h-84zM78 548h107l270 -314v314h118v-554h-48l-329 377v-371h-118v548z" />
    <glyph glyph-name="Ntilde.small" horiz-adv-x="651" 
d="M164 601q5 148 96 148q24 0 44 -9.5t37 -21t31 -21t27 -9.5q17 0 24.5 13.5t11.5 46.5h64q-5 -148 -96 -148q-24 0 -44 9.5t-37 20.5t-31 20.5t-27 9.5q-17 0 -24.5 -13.5t-10.5 -45.5h-65zM78 548h107l270 -314v314h118v-554h-48l-329 377v-371h-118v548z" />
    <glyph glyph-name="Ncommaaccent.small" horiz-adv-x="651" 
d="M78 548h107l270 -314v314h118v-554h-48l-329 377v-371h-118v548zM273 -49h114l-103 -157l-63 25z" />
    <glyph glyph-name="Ograve.small" horiz-adv-x="687" 
d="M201 771l98 45l86 -216h-76zM343 -8q-64 0 -117.5 21t-91.5 58.5t-59.5 89t-21.5 112.5t21.5 112.5t60 89.5t92 59.5t117.5 21.5t117.5 -21t91.5 -58.5t59.5 -89t21.5 -112.5t-21.5 -112.5t-60 -89.5t-92 -59.5t-117.5 -21.5zM344 97q39 0 70 13t53 36.5t34 56t12 71.5
t-12 71.5t-34 56t-53.5 36.5t-69.5 13q-39 0 -70.5 -13t-53.5 -36.5t-34 -56t-12 -71.5t12 -71.5t34.5 -56t53.5 -36.5t70 -13z" />
    <glyph glyph-name="Oacute.small" horiz-adv-x="687" 
d="M394 816l98 -45l-108 -171h-76zM343 -8q-64 0 -117.5 21t-91.5 58.5t-59.5 89t-21.5 112.5t21.5 112.5t60 89.5t92 59.5t117.5 21.5t117.5 -21t91.5 -58.5t59.5 -89t21.5 -112.5t-21.5 -112.5t-60 -89.5t-92 -59.5t-117.5 -21.5zM344 97q39 0 70 13t53 36.5t34 56
t12 71.5t-12 71.5t-34 56t-53.5 36.5t-69.5 13q-39 0 -70.5 -13t-53.5 -36.5t-34 -56t-12 -71.5t12 -71.5t34.5 -56t53.5 -36.5t70 -13z" />
    <glyph glyph-name="Ocircumflex.small" horiz-adv-x="687" 
d="M343 -8q-64 0 -117.5 21t-91.5 58.5t-59.5 89t-21.5 112.5t21.5 112.5t60 89.5t92 59.5t117.5 21.5t117.5 -21t91.5 -58.5t59.5 -89t21.5 -112.5t-21.5 -112.5t-60 -89.5t-92 -59.5t-117.5 -21.5zM344 97q39 0 70 13t53 36.5t34 56t12 71.5t-12 71.5t-34 56t-53.5 36.5
t-69.5 13q-39 0 -70.5 -13t-53.5 -36.5t-34 -56t-12 -71.5t12 -71.5t34.5 -56t53.5 -36.5t70 -13zM303 804h84l121 -204h-76l-87 110l-87 -110h-76z" />
    <glyph glyph-name="Otilde.small" horiz-adv-x="687" 
d="M181 601q5 148 96 148q24 0 44 -9.5t37 -21t31 -21t27 -9.5q17 0 24.5 13.5t11.5 46.5h64q-5 -148 -96 -148q-24 0 -44 9.5t-37 20.5t-31 20.5t-27 9.5q-17 0 -24.5 -13.5t-10.5 -45.5h-65zM343 -8q-64 0 -117.5 21t-91.5 58.5t-59.5 89t-21.5 112.5t21.5 112.5t60 89.5
t92 59.5t117.5 21.5t117.5 -21t91.5 -58.5t59.5 -89t21.5 -112.5t-21.5 -112.5t-60 -89.5t-92 -59.5t-117.5 -21.5zM344 97q39 0 70 13t53 36.5t34 56t12 71.5t-12 71.5t-34 56t-53.5 36.5t-69.5 13q-39 0 -70.5 -13t-53.5 -36.5t-34 -56t-12 -71.5t12 -71.5t34.5 -56
t53.5 -36.5t70 -13z" />
    <glyph glyph-name="Odieresis.small" horiz-adv-x="687" 
d="M343 -8q-64 0 -117.5 21t-91.5 58.5t-59.5 89t-21.5 112.5t21.5 112.5t60 89.5t92 59.5t117.5 21.5t117.5 -21t91.5 -58.5t59.5 -89t21.5 -112.5t-21.5 -112.5t-60 -89.5t-92 -59.5t-117.5 -21.5zM344 97q39 0 70 13t53 36.5t34 56t12 71.5t-12 71.5t-34 56t-53.5 36.5
t-69.5 13q-39 0 -70.5 -13t-53.5 -36.5t-34 -56t-12 -71.5t12 -71.5t34.5 -56t53.5 -36.5t70 -13zM247 607q-28 0 -46.5 18t-18.5 46t18.5 46t46.5 18t46.5 -18t18.5 -46t-18.5 -46t-46.5 -18zM443 607q-28 0 -46.5 18t-18.5 46t18.5 46t46.5 18t46.5 -18t18.5 -46
t-18.5 -46t-46.5 -18z" />
    <glyph glyph-name="Omacron.small" horiz-adv-x="687" 
d="M186 708h320v-83h-320v83zM343 -8q-64 0 -117.5 21t-91.5 58.5t-59.5 89t-21.5 112.5t21.5 112.5t60 89.5t92 59.5t117.5 21.5t117.5 -21t91.5 -58.5t59.5 -89t21.5 -112.5t-21.5 -112.5t-60 -89.5t-92 -59.5t-117.5 -21.5zM344 97q39 0 70 13t53 36.5t34 56t12 71.5
t-12 71.5t-34 56t-53.5 36.5t-69.5 13q-39 0 -70.5 -13t-53.5 -36.5t-34 -56t-12 -71.5t12 -71.5t34.5 -56t53.5 -36.5t70 -13z" />
    <glyph glyph-name="Obreve.small" horiz-adv-x="687" 
d="M345 597q-39 0 -68 14t-48.5 37.5t-31 54t-15.5 62.5h66q3 -14 10 -29t18.5 -27t28.5 -19.5t40 -7.5t40 7.5t28.5 19.5t18.5 27t10 29h66q-4 -32 -15.5 -62.5t-31 -54t-48.5 -37.5t-68 -14zM343 -8q-64 0 -117.5 21t-91.5 58.5t-59.5 89t-21.5 112.5t21.5 112.5t60 89.5
t92 59.5t117.5 21.5t117.5 -21t91.5 -58.5t59.5 -89t21.5 -112.5t-21.5 -112.5t-60 -89.5t-92 -59.5t-117.5 -21.5zM344 97q39 0 70 13t53 36.5t34 56t12 71.5t-12 71.5t-34 56t-53.5 36.5t-69.5 13q-39 0 -70.5 -13t-53.5 -36.5t-34 -56t-12 -71.5t12 -71.5t34.5 -56
t53.5 -36.5t70 -13z" />
    <glyph glyph-name="Ohungarumlaut.small" horiz-adv-x="687" 
d="M343 -8q-64 0 -117.5 21t-91.5 58.5t-59.5 89t-21.5 112.5t21.5 112.5t60 89.5t92 59.5t117.5 21.5t117.5 -21t91.5 -58.5t59.5 -89t21.5 -112.5t-21.5 -112.5t-60 -89.5t-92 -59.5t-117.5 -21.5zM344 97q39 0 70 13t53 36.5t34 56t12 71.5t-12 71.5t-34 56t-53.5 36.5
t-69.5 13q-39 0 -70.5 -13t-53.5 -36.5t-34 -56t-12 -71.5t12 -71.5t34.5 -56t53.5 -36.5t70 -13zM311 816l95 -45l-105 -171h-79zM484 816l95 -45l-105 -171h-79z" />
    <glyph glyph-name="Oslash.small" horiz-adv-x="690" 
d="M58 29l60 62q-30 36 -47 82t-17 100q0 61 21.5 112.5t60.5 89.5t92.5 59.5t117.5 21.5q50 0 92.5 -13t77.5 -36l62 64l54 -52l-60 -63q30 -36 47 -81.5t17 -99.5q0 -61 -21.5 -112.5t-60.5 -89.5t-92.5 -59.5t-117.5 -21.5q-50 0 -93 12.5t-78 35.5l-61 -63zM439 427
q-41 25 -94 25q-39 0 -70.5 -13t-54 -37t-34.5 -56.5t-12 -71.5q0 -56 26 -99zM251 121q40 -26 94 -26q39 0 70.5 13t54 37t34.5 57t12 72q0 57 -26 98z" />
    <glyph glyph-name="Oslashacute.small" horiz-adv-x="690" 
d="M395 816l98 -45l-108 -171h-76zM58 29l60 62q-30 36 -47 82t-17 100q0 61 21.5 112.5t60.5 89.5t92.5 59.5t117.5 21.5q50 0 92.5 -13t77.5 -36l62 64l54 -52l-60 -63q30 -36 47 -81.5t17 -99.5q0 -61 -21.5 -112.5t-60.5 -89.5t-92.5 -59.5t-117.5 -21.5q-50 0 -93 12.5
t-78 35.5l-61 -63zM439 427q-41 25 -94 25q-39 0 -70.5 -13t-54 -37t-34.5 -56.5t-12 -71.5q0 -56 26 -99zM251 121q40 -26 94 -26q39 0 70.5 13t54 37t34.5 57t12 72q0 57 -26 98z" />
    <glyph glyph-name="OE.small" horiz-adv-x="955" 
d="M330 -8q-61 0 -112 21.5t-87.5 59t-57 89t-20.5 111.5t20.5 111.5t57.5 90t88 60t111 21.5q63 0 110.5 -21.5t79.5 -55.5v69h378v-100h-268v-126h196v-93h-196v-130h307v-99h-417v70q-32 -35 -79.5 -56.5t-110.5 -21.5zM343 97q39 0 70 13t53.5 36.5t34.5 56t12 71.5
t-12 71.5t-34.5 56t-53.5 36.5t-70 13t-70 -13t-53 -36.5t-34 -56t-12 -71.5t12 -71.5t34 -56t53 -36.5t70 -13z" />
    <glyph glyph-name="Racute.small" horiz-adv-x="572" 
d="M310 816l98 -45l-108 -171h-76zM78 548h188q110 0 167.5 -45.5t57.5 -126.5q0 -31 -10 -55t-27 -42t-39 -30.5t-46 -19.5l205 -229h-145l-183 208h-50v-208h-118v548zM253 302q21 0 42 2.5t37.5 11t26.5 23t10 38.5q0 35 -24 53t-78 18h-71v-146h57z" />
    <glyph glyph-name="Rcaron.small" horiz-adv-x="572" 
d="M115 804h76l87 -111l87 111h76l-121 -204h-84zM78 548h188q110 0 167.5 -45.5t57.5 -126.5q0 -31 -10 -55t-27 -42t-39 -30.5t-46 -19.5l205 -229h-145l-183 208h-50v-208h-118v548zM253 302q21 0 42 2.5t37.5 11t26.5 23t10 38.5q0 35 -24 53t-78 18h-71v-146h57z" />
    <glyph glyph-name="Rcommaaccent.small" horiz-adv-x="572" 
d="M78 548h188q110 0 167.5 -45.5t57.5 -126.5q0 -31 -10 -55t-27 -42t-39 -30.5t-46 -19.5l205 -229h-145l-183 208h-50v-208h-118v548zM253 302q21 0 42 2.5t37.5 11t26.5 23t10 38.5q0 35 -24 53t-78 18h-71v-146h57zM240 -49h114l-103 -157l-63 25z" />
    <glyph glyph-name="Sacute.small" horiz-adv-x="491" 
d="M296 816l98 -45l-108 -171h-76zM46 132q13 -6 32 -13t42.5 -13t50 -10.5t54.5 -4.5q45 0 74.5 14t29.5 50q0 18 -10.5 31t-27.5 22.5t-39 17.5t-46 17q-26 9 -51.5 21.5t-46 30.5t-33.5 43.5t-13 60.5q0 37 14 66t39 49.5t60 31t77 10.5q43 0 80.5 -6.5t74.5 -17.5v-103
q-37 12 -75.5 20t-75.5 8q-78 0 -78 -52q0 -16 9.5 -27t25.5 -19.5t36 -16t41 -15.5q27 -11 54.5 -23.5t50 -31.5t36.5 -46.5t14 -68.5q0 -40 -16 -71t-44.5 -52t-68 -31.5t-87.5 -10.5q-63 0 -111 13t-72 24v103z" />
    <glyph glyph-name="Scircumflex.small" horiz-adv-x="491" 
d="M46 132q13 -6 32 -13t42.5 -13t50 -10.5t54.5 -4.5q45 0 74.5 14t29.5 50q0 18 -10.5 31t-27.5 22.5t-39 17.5t-46 17q-26 9 -51.5 21.5t-46 30.5t-33.5 43.5t-13 60.5q0 37 14 66t39 49.5t60 31t77 10.5q43 0 80.5 -6.5t74.5 -17.5v-103q-37 12 -75.5 20t-75.5 8
q-78 0 -78 -52q0 -16 9.5 -27t25.5 -19.5t36 -16t41 -15.5q27 -11 54.5 -23.5t50 -31.5t36.5 -46.5t14 -68.5q0 -40 -16 -71t-44.5 -52t-68 -31.5t-87.5 -10.5q-63 0 -111 13t-72 24v103zM203 804h84l121 -204h-76l-87 110l-87 -110h-76z" />
    <glyph glyph-name="Scaron.small" horiz-adv-x="491" 
d="M86 804h76l87 -111l87 111h76l-121 -204h-84zM46 132q13 -6 32 -13t42.5 -13t50 -10.5t54.5 -4.5q45 0 74.5 14t29.5 50q0 18 -10.5 31t-27.5 22.5t-39 17.5t-46 17q-26 9 -51.5 21.5t-46 30.5t-33.5 43.5t-13 60.5q0 37 14 66t39 49.5t60 31t77 10.5q43 0 80.5 -6.5
t74.5 -17.5v-103q-37 12 -75.5 20t-75.5 8q-78 0 -78 -52q0 -16 9.5 -27t25.5 -19.5t36 -16t41 -15.5q27 -11 54.5 -23.5t50 -31.5t36.5 -46.5t14 -68.5q0 -40 -16 -71t-44.5 -52t-68 -31.5t-87.5 -10.5q-63 0 -111 13t-72 24v103z" />
    <glyph glyph-name="Scedilla.small" horiz-adv-x="491" 
d="M133 -100q15 -5 34.5 -8.5t41.5 -3.5q31 0 42 6t11 17q0 17 -23 23t-71 8l32 54q-50 2 -91.5 14t-62.5 22v103q13 -6 32 -13t42.5 -13.5t50 -11t54.5 -4.5q45 0 74.5 14t29.5 51q0 18 -10.5 30.5t-27.5 22t-39 17.5t-46 17q-26 9 -51.5 21t-46 30t-33.5 43.5t-13 60.5
q0 37 14 66t39 49t60 30.5t77 10.5q43 0 80.5 -6.5t74.5 -17.5v-103q-37 13 -75.5 20.5t-75.5 7.5q-78 0 -78 -52q0 -16 9.5 -27t25.5 -19.5t36 -15.5t41 -15q27 -11 54.5 -23.5t50 -31t36.5 -46.5t14 -68q0 -72 -49 -113t-129 -49l-14 -22q41 -4 68 -22.5t27 -50.5
q0 -38 -35.5 -57.5t-100.5 -19.5q-29 0 -55.5 4t-43.5 11z" />
    <glyph glyph-name="uni0218.small" horiz-adv-x="491" 
d="M46 132q13 -6 32 -13t42.5 -13t50 -10.5t54.5 -4.5q45 0 74.5 14t29.5 50q0 18 -10.5 31t-27.5 22.5t-39 17.5t-46 17q-26 9 -51.5 21.5t-46 30.5t-33.5 43.5t-13 60.5q0 37 14 66t39 49.5t60 31t77 10.5q43 0 80.5 -6.5t74.5 -17.5v-103q-37 12 -75.5 20t-75.5 8
q-78 0 -78 -52q0 -16 9.5 -27t25.5 -19.5t36 -16t41 -15.5q27 -11 54.5 -23.5t50 -31.5t36.5 -46.5t14 -68.5q0 -40 -16 -71t-44.5 -52t-68 -31.5t-87.5 -10.5q-63 0 -111 13t-72 24v103zM183 -49h114l-103 -157l-63 25z" />
    <glyph glyph-name="S_S.small" horiz-adv-x="982" 
d="M46 132q13 -6 32 -13t42.5 -13t50 -10.5t54.5 -4.5q45 0 74.5 14t29.5 50q0 18 -10.5 31t-27.5 22.5t-39 17.5t-46 17q-26 9 -51.5 21.5t-46 30.5t-33.5 43.5t-13 60.5q0 37 14 66t39 49.5t60 31t77 10.5q43 0 80.5 -6.5t74.5 -17.5v-103q-37 12 -75.5 20t-75.5 8
q-78 0 -78 -52q0 -16 9.5 -27t25.5 -19.5t36 -16t41 -15.5q27 -11 54.5 -23.5t50 -31.5t36.5 -46.5t14 -68.5q0 -40 -16 -71t-44.5 -52t-68 -31.5t-87.5 -10.5q-63 0 -111 13t-72 24v103zM537 132q13 -6 32 -13t42.5 -13t50 -10.5t54.5 -4.5q45 0 74.5 14t29.5 50
q0 18 -10.5 31t-27.5 22.5t-39 17.5t-46 17q-26 9 -51.5 21.5t-46 30.5t-33.5 43.5t-13 60.5q0 37 14 66t39 49.5t60 31t77 10.5q43 0 80.5 -6.5t74.5 -17.5v-103q-37 12 -75.5 20t-75.5 8q-78 0 -78 -52q0 -16 9.5 -27t25.5 -19.5t36 -16t41 -15.5q27 -11 54.5 -23.5
t50 -31.5t36.5 -46.5t14 -68.5q0 -40 -16 -71t-44.5 -52t-68 -31.5t-87.5 -10.5q-63 0 -111 13t-72 24v103z" />
    <glyph glyph-name="Tcaron.small" horiz-adv-x="557" 
d="M114 804h76l87 -111l87 111h76l-121 -204h-84zM219 445h-209v103h537v-103h-210v-445h-118v445z" />
    <glyph glyph-name="uni0162.small" horiz-adv-x="557" 
d="M169 -107q15 -5 34.5 -8.5t41.5 -3.5q31 0 42 6t11 17q0 17 -22.5 23t-70.5 10l38 63h-24v445h-209v103h537v-103h-210v-445h-28l-18 -29q43 -5 68 -24t25 -51q0 -38 -35.5 -58t-101.5 -20q-28 0 -54.5 4t-43.5 11z" />
    <glyph glyph-name="uni021A.small" horiz-adv-x="557" 
d="M219 445h-209v103h537v-103h-210v-445h-118v445zM222 -49h114l-103 -157l-63 25z" />
    <glyph glyph-name="Tbar.small" horiz-adv-x="557" 
d="M219 211h-100v101h100v133h-209v103h537v-103h-210v-133h101v-101h-101v-211h-118v211z" />
    <glyph glyph-name="Ugrave.small" horiz-adv-x="644" 
d="M181 771l98 45l86 -216h-76zM73 548h118v-346q0 -20 5.5 -39t19.5 -33.5t39.5 -23.5t66.5 -9q40 0 66 9t40 23.5t19.5 33.5t5.5 39v346h118v-355q0 -98 -66 -149.5t-184 -51.5t-183 51t-65 150v355z" />
    <glyph glyph-name="Uacute.small" horiz-adv-x="644" 
d="M369 816l98 -45l-108 -171h-76zM73 548h118v-346q0 -20 5.5 -39t19.5 -33.5t39.5 -23.5t66.5 -9q40 0 66 9t40 23.5t19.5 33.5t5.5 39v346h118v-355q0 -98 -66 -149.5t-184 -51.5t-183 51t-65 150v355z" />
    <glyph glyph-name="Ucircumflex.small" horiz-adv-x="644" 
d="M73 548h118v-346q0 -20 5.5 -39t19.5 -33.5t39.5 -23.5t66.5 -9q40 0 66 9t40 23.5t19.5 33.5t5.5 39v346h118v-355q0 -98 -66 -149.5t-184 -51.5t-183 51t-65 150v355zM280 804h84l121 -204h-76l-87 110l-87 -110h-76z" />
    <glyph glyph-name="Utilde.small" horiz-adv-x="644" 
d="M169 601q5 148 96 148q24 0 44 -9.5t37 -21t31 -21t27 -9.5q17 0 24.5 13.5t11.5 46.5h64q-5 -148 -96 -148q-24 0 -44 9.5t-37 20.5t-31 20.5t-27 9.5q-17 0 -24.5 -13.5t-10.5 -45.5h-65zM73 548h118v-346q0 -20 5.5 -39t19.5 -33.5t39.5 -23.5t66.5 -9q40 0 66 9
t40 23.5t19.5 33.5t5.5 39v346h118v-355q0 -98 -66 -149.5t-184 -51.5t-183 51t-65 150v355z" />
    <glyph glyph-name="Udieresis.small" horiz-adv-x="644" 
d="M73 548h118v-346q0 -20 5.5 -39t19.5 -33.5t39.5 -23.5t66.5 -9q40 0 66 9t40 23.5t19.5 33.5t5.5 39v346h118v-355q0 -98 -66 -149.5t-184 -51.5t-183 51t-65 150v355zM225 607q-28 0 -46.5 18t-18.5 46t18.5 46t46.5 18t46.5 -18t18.5 -46t-18.5 -46t-46.5 -18z
M421 607q-28 0 -46.5 18t-18.5 46t18.5 46t46.5 18t46.5 -18t18.5 -46t-18.5 -46t-46.5 -18z" />
    <glyph glyph-name="Umacron.small" horiz-adv-x="644" 
d="M163 708h320v-83h-320v83zM73 548h118v-346q0 -20 5.5 -39t19.5 -33.5t39.5 -23.5t66.5 -9q40 0 66 9t40 23.5t19.5 33.5t5.5 39v346h118v-355q0 -98 -66 -149.5t-184 -51.5t-183 51t-65 150v355z" />
    <glyph glyph-name="Ubreve.small" horiz-adv-x="644" 
d="M323 597q-39 0 -68 14t-48.5 37.5t-31 54t-15.5 62.5h66q3 -14 10 -29t18.5 -27t28.5 -19.5t40 -7.5t40 7.5t28.5 19.5t18.5 27t10 29h66q-4 -32 -15.5 -62.5t-31 -54t-48.5 -37.5t-68 -14zM73 548h118v-346q0 -20 5.5 -39t19.5 -33.5t39.5 -23.5t66.5 -9q40 0 66 9
t40 23.5t19.5 33.5t5.5 39v346h118v-355q0 -98 -66 -149.5t-184 -51.5t-183 51t-65 150v355z" />
    <glyph glyph-name="Uring.small" horiz-adv-x="644" 
d="M322 591q-52 0 -85 30t-33 78t33 78t85 30t85 -30t33 -78t-33 -78t-85 -30zM322 648q22 0 34.5 14t12.5 37q0 24 -12.5 38t-34.5 14t-34.5 -14t-12.5 -38q0 -23 12.5 -37t34.5 -14zM73 548h118v-346q0 -20 5.5 -39t19.5 -33.5t39.5 -23.5t66.5 -9q40 0 66 9t40 23.5
t19.5 33.5t5.5 39v346h118v-355q0 -98 -66 -149.5t-184 -51.5t-183 51t-65 150v355z" />
    <glyph glyph-name="Uhungarumlaut.small" horiz-adv-x="644" 
d="M73 548h118v-346q0 -20 5.5 -39t19.5 -33.5t39.5 -23.5t66.5 -9q40 0 66 9t40 23.5t19.5 33.5t5.5 39v346h118v-355q0 -98 -66 -149.5t-184 -51.5t-183 51t-65 150v355zM282 816l95 -45l-105 -171h-79zM455 816l95 -45l-105 -171h-79z" />
    <glyph glyph-name="Uogonek.small" horiz-adv-x="644" 
d="M73 548h118v-346q0 -20 5.5 -39t19.5 -33.5t39.5 -23.5t66.5 -9q40 0 66 9t40 23.5t19.5 33.5t5.5 39v346h118v-355q0 -58 -24.5 -99.5t-69.5 -65.5q-21 -12 -43 -20t-40 -17t-30 -21t-12 -31q0 -22 17 -32t45 -10q20 0 37 3.5t28 7.5l22 -66q-17 -6 -43.5 -11.5
t-60.5 -5.5q-60 0 -96.5 22.5t-36.5 67.5q0 26 14 45.5t31 31.5q-112 2 -174 53.5t-62 147.5v355z" />
    <glyph glyph-name="Wgrave.small" horiz-adv-x="728" 
d="M218 771l98 45l86 -216h-76zM-3 548h133l99 -307l90 307h91l95 -309l99 309h127l-203 -553h-52l-112 361l-109 -361h-52z" />
    <glyph glyph-name="Wacute.small" horiz-adv-x="728" 
d="M416 816l98 -45l-108 -171h-76zM-3 548h133l99 -307l90 307h91l95 -309l99 309h127l-203 -553h-52l-112 361l-109 -361h-52z" />
    <glyph glyph-name="Wcircumflex.small" horiz-adv-x="728" 
d="M-3 548h133l99 -307l90 307h91l95 -309l99 309h127l-203 -553h-52l-112 361l-109 -361h-52zM322 804h84l121 -204h-76l-87 110l-87 -110h-76z" />
    <glyph glyph-name="Wdieresis.small" horiz-adv-x="728" 
d="M-3 548h133l99 -307l90 307h91l95 -309l99 309h127l-203 -553h-52l-112 361l-109 -361h-52zM266 605q-28 0 -46.5 18t-18.5 46t18.5 46t46.5 18t46.5 -18t18.5 -46t-18.5 -46t-46.5 -18zM462 605q-28 0 -46.5 18t-18.5 46t18.5 46t46.5 18t46.5 -18t18.5 -46t-18.5 -46
t-46.5 -18z" />
    <glyph glyph-name="Ygrave.small" horiz-adv-x="544" 
d="M131 771l98 45l86 -216h-76zM213 238l-217 310h138l139 -204l137 204h138l-217 -310v-238h-118v238z" />
    <glyph glyph-name="Yacute.small" horiz-adv-x="544" 
d="M318 816l98 -45l-108 -171h-76zM213 238l-217 310h138l139 -204l137 204h138l-217 -310v-238h-118v238z" />
    <glyph glyph-name="Ycircumflex.small" horiz-adv-x="544" 
d="M213 238l-217 310h138l139 -204l137 204h138l-217 -310v-238h-118v238zM231 804h84l121 -204h-76l-87 110l-87 -110h-76z" />
    <glyph glyph-name="Ydieresis.small" horiz-adv-x="544" 
d="M213 238l-217 310h138l139 -204l137 204h138l-217 -310v-238h-118v238zM175 607q-28 0 -46.5 18t-18.5 46t18.5 46t46.5 18t46.5 -18t18.5 -46t-18.5 -46t-46.5 -18zM371 607q-28 0 -46.5 18t-18.5 46t18.5 46t46.5 18t46.5 -18t18.5 -46t-18.5 -46t-46.5 -18z" />
    <glyph glyph-name="Zacute.small" horiz-adv-x="512" 
d="M303 816l98 -45l-108 -171h-76zM11 24l299 421h-281v103h470v-24l-300 -421h306v-103h-494v24z" />
    <glyph glyph-name="Zcaron.small" horiz-adv-x="512" 
d="M98 804h76l87 -111l87 111h76l-121 -204h-84zM11 24l299 421h-281v103h470v-24l-300 -421h306v-103h-494v24z" />
    <glyph glyph-name="Zdotaccent.small" horiz-adv-x="512" 
d="M11 24l299 421h-281v103h470v-24l-300 -421h306v-103h-494v24zM260 608q-30 0 -50 17.5t-20 46.5t20 47t50 18t50 -18t20 -47t-20 -46.5t-50 -17.5z" />
    <glyph glyph-name="Eng.small" horiz-adv-x="651" 
d="M78 548h107l270 -314v314h118v-516q0 -42 -14 -72t-37.5 -49.5t-54.5 -28.5t-66 -9q-40 0 -75.5 11.5t-61.5 31.5l51 88q18 -15 37.5 -21.5t40.5 -6.5q29 0 47 16.5t18 54.5v22l-262 302v-371h-118v548z" />
    <glyph glyph-name="Eth.small" horiz-adv-x="684" 
d="M113 227h-78v97h78v224h198q78 0 135 -16.5t95 -48.5q90 -72 90 -202q0 -62 -22 -114.5t-65 -90.5q-40 -35 -97.5 -55.5t-138.5 -20.5h-195v227zM311 100q54 0 90 12t59 34q26 23 37.5 57.5t11.5 73.5q0 42 -11.5 75.5t-38.5 56.5q-23 19 -58.5 29t-89.5 10h-80v-125h129
v-95h-129v-128h80z" />
    <glyph glyph-name="Thorn.small" horiz-adv-x="538" 
d="M78 548h118v-88h74q109 0 168 -48t59 -133q0 -83 -59 -131.5t-168 -48.5h-74v-99h-118v548zM273 194q55 0 79 22.5t24 61.5t-24 61t-79 22h-77v-167h77z" />
    <glyph glyph-name="a.superior" horiz-adv-x="338" 
d="M210 365q-11 -17 -30.5 -31.5t-54.5 -14.5q-43 0 -71.5 27.5t-28.5 70.5q0 54 48 81t137 26v32q0 12 -6.5 19.5t-26.5 7.5q-19 0 -49.5 -5.5t-71.5 -21.5l-22 68q51 19 89.5 25.5t69.5 6.5q58 0 82.5 -23t24.5 -66v-242h-90v40zM210 469q-44 -1 -69.5 -13t-25.5 -36
q0 -33 37 -33q21 0 39.5 12t18.5 30v40z" />
    <glyph glyph-name="b.superior" horiz-adv-x="405" 
d="M44 782h90v-156q17 15 41.5 22.5t48.5 7.5q35 0 63.5 -12t49 -33.5t31.5 -51.5t11 -67t-12.5 -68.5t-35 -55t-54 -36.5t-68.5 -13t-63.5 12t-43.5 30l-39 -38h-19v459zM199 395q43 0 66 27t23 69q0 39 -21.5 63.5t-66.5 24.5q-31 0 -49 -9t-18 -17v-109q0 -24 18 -36.5
t48 -12.5z" />
    <glyph glyph-name="c.superior" horiz-adv-x="348" 
d="M202 319q-39 0 -71.5 12t-55.5 34t-36 53t-13 68t12.5 68.5t35.5 54t55.5 35t72.5 12.5q45 0 77.5 -16t55.5 -44l-61 -50q-12 14 -29 23t-41 9q-39 0 -63 -24t-24 -64t24 -66.5t66 -26.5q24 0 42.5 9t30.5 23l59 -49q-23 -29 -56.5 -45t-80.5 -16z" />
    <glyph glyph-name="d.superior" horiz-adv-x="409" 
d="M177 319q-34 0 -61.5 13t-47.5 35.5t-31 53t-11 66.5q0 37 12 68t33.5 53.5t50.5 35t63 12.5q56 0 90 -28v154h90v-457h-88v39q-18 -20 -43.5 -32.5t-56.5 -12.5zM201 395q28 0 51.5 14.5t23.5 38.5v93q0 18 -18.5 28t-49.5 10q-42 0 -66.5 -25.5t-24.5 -66.5
q0 -39 21 -65.5t63 -26.5z" />
    <glyph glyph-name="e.superior" horiz-adv-x="373" 
d="M201 319q-79 0 -127 45t-48 122q0 37 12 68.5t34 54t51.5 35t65.5 12.5q43 0 73 -15t49 -41t27.5 -61t7.5 -76h-231q3 -32 27 -52t63 -20q27 0 47 10t34 24l52 -50q-51 -56 -137 -56zM257 521q-1 26 -18 45t-48 19q-30 0 -50.5 -18.5t-24.5 -45.5h141z" />
    <glyph glyph-name="f.superior" horiz-adv-x="243" 
d="M62 576h-47v74h47v27q0 47 27.5 78.5t88.5 31.5q22 0 39.5 -4t35.5 -11l-19 -69q-25 11 -47 11q-18 0 -26.5 -9.5t-8.5 -32.5v-22h68v-74h-68v-251h-90v251z" />
    <glyph glyph-name="g.superior" horiz-adv-x="409" 
d="M69 294q28 -13 55 -18.5t56 -5.5q18 0 35 3t30.5 10t21.5 19t8 30v40q-17 -19 -42.5 -29.5t-55.5 -10.5q-33 0 -60.5 11t-47.5 31.5t-31.5 49.5t-11.5 65q0 37 13 68t35.5 53t53 34t65.5 12q38 0 66 -11t47 -27l37 34h22v-325q0 -31 -13.5 -55t-37.5 -41t-57 -26t-73 -9
q-48 0 -82.5 8.5t-58.5 18.5zM199 406q14 0 28 3.5t25 10.5t17.5 16t6.5 21v85q0 17 -18 27t-50 10q-42 0 -66.5 -25.5t-24.5 -64.5q0 -37 21 -60t61 -23z" />
    <glyph glyph-name="h.superior" horiz-adv-x="370" 
d="M44 782h90v-168q15 20 40.5 31t55.5 11q47 0 74.5 -24t27.5 -61v-246h-90v220q0 18 -11.5 25t-33.5 7q-28 0 -45.5 -10.5t-17.5 -17.5v-224h-90v457z" />
    <glyph glyph-name="i.superior" horiz-adv-x="178" 
d="M44 650h90v-325h-90v325zM89 691q-24 0 -39 12.5t-15 35.5t15 36t39 13t39 -13t15 -36t-15 -35.5t-39 -12.5z" />
    <glyph glyph-name="j.superior" horiz-adv-x="178" 
d="M-24 282q8 -4 17.5 -7t20.5 -3q30 0 30 24v354h90v-351q0 -56 -31 -79.5t-75 -23.5q-25 0 -43 4.5t-32 11.5zM89 691q-24 0 -39 12.5t-15 35.5t15 36t39 13t39 -13t15 -36t-15 -35.5t-39 -12.5z" />
    <glyph glyph-name="k.superior" horiz-adv-x="353" 
d="M44 782h90v-255l108 123h110l-128 -140l131 -185h-109l-98 140h-14v-140h-90v457z" />
    <glyph glyph-name="l.superior" horiz-adv-x="178" 
d="M44 782h90v-457h-90v457z" />
    <glyph glyph-name="m.superior" horiz-adv-x="529" 
d="M44 650h90v-36q15 19 38.5 30.5t49.5 11.5q27 0 49 -11t32 -34q17 20 42.5 32.5t54.5 12.5q37 0 64 -21t27 -63v-247h-90v219q0 33 -36 33q-24 0 -38.5 -10t-14.5 -16v-226h-90v219q0 33 -35 33q-26 0 -39.5 -10t-13.5 -16v-226h-90v325z" />
    <glyph glyph-name="o.superior" horiz-adv-x="404" 
d="M202 319q-39 0 -71.5 12.5t-56 35t-36 53.5t-12.5 68t12.5 67.5t36 53t56 35t71.5 12.5t71.5 -12.5t56 -35t36 -53t12.5 -67.5t-12.5 -68t-36 -53.5t-56 -35t-71.5 -12.5zM202 396q38 0 61.5 25.5t23.5 66.5q0 40 -23.5 65.5t-61.5 25.5t-61.5 -25.5t-23.5 -65.5
q0 -41 23.5 -66.5t61.5 -25.5z" />
    <glyph glyph-name="p.superior" horiz-adv-x="405" 
d="M44 650h90v-25q17 15 41 23t49 8q35 0 63.5 -12t49 -33.5t31.5 -51.5t11 -67q0 -39 -12.5 -70.5t-34.5 -54.5t-51.5 -35.5t-63.5 -12.5q-26 0 -46.5 7t-36.5 19v-142h-90v447zM198 395q44 0 67 27t23 69q0 39 -21.5 63.5t-66.5 24.5q-31 0 -49 -9t-18 -17v-121
q0 -16 17 -26.5t48 -10.5z" />
    <glyph glyph-name="q.superior" horiz-adv-x="409" 
d="M275 358q-18 -18 -43 -28.5t-54 -10.5q-33 0 -61 12t-48 34t-31.5 53t-11.5 68q0 38 12.5 69.5t35 54t53 34.5t66.5 12q40 0 67.5 -11t45.5 -27l37 34h22v-449h-90v155zM201 395q28 0 51.5 14.5t23.5 38.5v93q0 18 -18.5 28t-49.5 10q-42 0 -66.5 -25.5t-24.5 -66.5
q0 -39 21 -65.5t63 -26.5z" />
    <glyph glyph-name="r.superior" horiz-adv-x="271" 
d="M44 650h89v-47q14 23 34.5 38t52.5 15q16 0 29.5 -3.5t25.5 -8.5l-25 -85q-11 5 -24.5 7.5t-26.5 2.5q-31 0 -48 -15t-17 -27v-202h-90v325z" />
    <glyph glyph-name="s.superior" horiz-adv-x="325" 
d="M32 414q26 -11 55 -17.5t60 -6.5q32 0 47 9t15 24q0 13 -13 19.5t-32 10.5t-41.5 9t-41.5 15.5t-32 28.5t-13 50q0 50 36 75t96 25q59 0 110 -14v-76q-26 8 -53.5 13.5t-55.5 5.5q-24 0 -34.5 -7t-10.5 -18q0 -14 12.5 -20.5t32 -11t41.5 -9t41.5 -15t32 -29t12.5 -49.5
q0 -54 -41.5 -80.5t-105.5 -26.5q-33 0 -64 5.5t-53 13.5v76z" />
    <glyph glyph-name="t.superior" horiz-adv-x="245" 
d="M59 576h-46v74h46v92h90v-92h75v-74h-75v-159q0 -12 8.5 -16.5t19.5 -4.5t21.5 3.5t18.5 6.5l22 -70q-16 -7 -36 -12t-46 -5q-42 0 -70 20t-28 65v172z" />
    <glyph glyph-name="u.superior" horiz-adv-x="371" 
d="M39 650h90v-212q0 -20 12.5 -30t34.5 -10q25 0 43 11.5t18 34.5v206h90v-325h-89v40q-14 -20 -38.5 -33t-53.5 -13q-46 0 -76.5 25.5t-30.5 78.5v227z" />
    <glyph glyph-name="v.superior" horiz-adv-x="347" 
d="M-4 650h99l79 -187l79 187h98l-157 -329h-41z" />
    <glyph glyph-name="w.superior" horiz-adv-x="505" 
d="M-4 650h98l68 -168l59 168h70l56 -168l66 168h96l-145 -329h-41l-69 204l-71 -204h-42z" />
    <glyph glyph-name="x.superior" horiz-adv-x="325" 
d="M106 491l-100 159h101l57 -97l57 97h99l-101 -157l106 -168h-101l-63 108l-62 -108h-99z" />
    <glyph glyph-name="y.superior" horiz-adv-x="347" 
d="M36 285q10 -5 22.5 -9t23.5 -4q17 0 26 9t16 26l9 24l-137 319h99l82 -209l77 209h97l-146 -371q-18 -48 -46.5 -65.5t-67.5 -17.5q-27 0 -47 6t-34 13z" />
    <glyph glyph-name="z.superior" horiz-adv-x="323" 
d="M20 343l150 233h-148v74h281v-18l-150 -233h160v-74h-293v18z" />
    <glyph glyph-name="ampersand.small" horiz-adv-x="622" 
d="M234 -8q-42 0 -76 11t-58.5 31t-37.5 48t-13 62q0 53 31 89.5t80 60.5q-32 31 -49 61.5t-17 66.5q0 30 12.5 54.5t36 42.5t56 27.5t72.5 9.5q39 0 71 -9.5t55.5 -26.5t36 -40.5t12.5 -51.5q0 -27 -10.5 -50t-27.5 -42t-39.5 -34.5t-46.5 -27.5l97 -95q27 30 50.5 65
t43.5 70l81 -51q-24 -38 -51.5 -76t-58.5 -70l118 -117h-142l-52 52q-38 -27 -81.5 -43.5t-92.5 -16.5zM245 79q53 0 98 36l-118 118q-26 -12 -45 -31.5t-19 -50.5q0 -30 22.5 -51t61.5 -21zM259 333q12 6 26 13.5t26 17.5t19.5 23t7.5 30q0 25 -18.5 39.5t-47.5 14.5
t-47.5 -14t-18.5 -40q0 -18 11 -36.5t42 -47.5z" />
    <glyph glyph-name="grave.cap" horiz-adv-x="460" 
d="M112 822l97 42l82 -165h-75z" />
    <glyph glyph-name="acute.cap" horiz-adv-x="460" 
d="M251 864l97 -42l-104 -123h-75z" />
    <glyph glyph-name="circumflex.cap" horiz-adv-x="460" 
d="M189 864h82l121 -165h-75l-87 82l-87 -82h-75z" />
    <glyph glyph-name="caron.cap" horiz-adv-x="460" 
d="M68 864h75l87 -82l87 82h75l-121 -165h-82z" />
    <glyph glyph-name="tilde.cap" horiz-adv-x="460" 
d="M63 695q3 137 96 137q24 0 44 -8.5t37 -19t31.5 -19t26.5 -8.5q17 0 24.5 11.5t11.5 42.5h64q-3 -137 -96 -137q-24 0 -44 8.5t-37 18.5t-31.5 18.5t-26.5 8.5q-17 0 -24.5 -11.5t-11.5 -41.5h-64z" />
    <glyph glyph-name="dieresis.cap" horiz-adv-x="460" 
d="M132 702q-28 0 -46.5 18t-18.5 46t18.5 46t46.5 18t46.5 -18t18.5 -46t-18.5 -46t-46.5 -18zM328 702q-28 0 -46.5 18t-18.5 46t18.5 46t46.5 18t46.5 -18t18.5 -46t-18.5 -46t-46.5 -18z" />
    <glyph glyph-name="macron.cap" horiz-adv-x="460" 
d="M70 813h320v-88h-320v88z" />
    <glyph glyph-name="breve.cap" horiz-adv-x="460" 
d="M230 690q-39 0 -68 12.5t-48.5 33t-31 46.5t-15.5 54h66q6 -24 28 -43t69 -19t69 19t28 43h66q-4 -28 -15.5 -54t-31 -46.5t-48.5 -33t-68 -12.5z" />
    <glyph glyph-name="ring.cap" horiz-adv-x="460" 
d="M230 690q-57 0 -87.5 25.5t-30.5 63.5t30.5 63t87.5 25t87.5 -25t30.5 -63t-30.5 -63.5t-87.5 -25.5zM230 742q47 0 47 37q0 35 -47 35t-47 -35q0 -37 47 -37z" />
    <glyph glyph-name="hungarumlaut.cap" horiz-adv-x="460" 
d="M171 864l90 -40l-95 -125h-75zM333 864l91 -40l-96 -125h-74z" />
    <glyph glyph-name="dotaccent.cap" horiz-adv-x="460" 
d="M230 701q-31 0 -51.5 17.5t-20.5 46.5t20.5 47t51.5 18t51.5 -18t20.5 -47t-20.5 -46.5t-51.5 -17.5z" />
    <glyph glyph-name="hyphen.cap" horiz-adv-x="369" 
d="M40 376h289v-103h-289v103z" />
    <glyph glyph-name="hyphen.small" horiz-adv-x="369" 
d="M40 325h289v-103h-289v103z" />
    <glyph glyph-name="exclamdown.cap" horiz-adv-x="285" 
d="M98 463h89l13 -463h-115zM142 521q-31 0 -51.5 18.5t-20.5 48.5t20.5 48.5t51.5 18.5q32 0 52.5 -18.5t20.5 -48.5t-20.5 -48.5t-52.5 -18.5z" />
    <glyph glyph-name="exclam.small" horiz-adv-x="279" 
d="M139 -5q-29 0 -49 17.5t-20 45.5q0 29 20 46.5t49 17.5q30 0 49.5 -17.5t19.5 -46.5q0 -28 -19.5 -45.5t-49.5 -17.5zM83 548h112l-12 -374h-87z" />
    <glyph glyph-name="exclamdown.small" horiz-adv-x="279" 
d="M96 373h87l12 -373h-112zM139 426q-29 0 -49 17t-20 46t20 46.5t49 17.5q30 0 49.5 -17.5t19.5 -46.5t-19.5 -46t-49.5 -17z" />
    <glyph glyph-name="questiondown.cap" horiz-adv-x="424" 
d="M266 -9q-51 0 -95.5 12t-77.5 36.5t-52.5 61t-19.5 84.5q0 43 16 78.5t45 61t68.5 42t87.5 22.5l4 74h88l9 -148q-97 0 -148 -30t-51 -90q0 -52 37.5 -79.5t103.5 -27.5q32 0 59.5 5t47.5 10v-97q-23 -6 -53.5 -10.5t-68.5 -4.5zM286 521q-31 0 -51.5 18.5t-20.5 48.5
t20.5 48.5t51.5 18.5t51.5 -18.5t20.5 -48.5t-20.5 -48.5t-51.5 -18.5z" />
    <glyph glyph-name="question.small" horiz-adv-x="376" 
d="M137 -5q-29 0 -49 17.5t-20 45.5q0 29 20 46.5t49 17.5q30 0 49.5 -17.5t19.5 -46.5q0 -28 -19.5 -45.5t-49.5 -17.5zM87 291q78 0 120 23t42 69q0 41 -29.5 61t-83.5 20q-27 0 -50.5 -4t-40.5 -9v91q20 5 47 9.5t60 4.5q43 0 82 -10t67.5 -30.5t45.5 -51t17 -72.5
q0 -36 -13.5 -64.5t-38 -49t-57.5 -34t-72 -19.5l-3 -51h-86z" />
    <glyph glyph-name="questiondown.small" horiz-adv-x="376" 
d="M233 -9q-44 0 -82.5 10t-67 30.5t-45.5 51t-17 72.5q0 36 13.5 64.5t38 49t57.5 34t72 19.5l3 50h86l7 -116q-78 0 -120 -23t-42 -69q0 -41 29.5 -61t83.5 -20q27 0 50.5 4t40.5 9v-91q-20 -5 -47 -9.5t-60 -4.5zM248 425q-30 0 -49.5 17.5t-19.5 45.5q0 29 19.5 46.5
t49.5 17.5q29 0 49 -17.5t20 -46.5q0 -28 -20 -45.5t-49 -17.5z" />
    <glyph glyph-name="quoteleft.small" horiz-adv-x="298" 
d="M174 219q-43 23 -74.5 62.5t-31.5 93.5q0 52 26 93t73 88l63 -57q-24 -28 -38 -52t-14 -52q0 -30 16.5 -49t45.5 -39z" />
    <glyph glyph-name="quoteright.small" horiz-adv-x="298" 
d="M68 273q24 29 38 53t14 52q0 30 -16.5 49t-45.5 38l66 88q43 -22 74.5 -61.5t31.5 -93.5q0 -53 -25.5 -93.5t-73.5 -87.5z" />
    <glyph glyph-name="quotedblleft.small" horiz-adv-x="537" 
d="M174 219q-43 23 -74.5 62.5t-31.5 93.5q0 52 26 93t73 88l63 -57q-24 -28 -38 -52t-14 -52q0 -30 16.5 -49t45.5 -39zM413 219q-43 23 -74.5 62.5t-31.5 93.5q0 52 26 93t73 88l63 -57q-24 -28 -38 -52t-14 -52q0 -30 16.5 -49t45.5 -39z" />
    <glyph glyph-name="quotedblright.small" horiz-adv-x="537" 
d="M68 273q24 29 38 53t14 52q0 30 -16.5 49t-45.5 38l66 88q43 -22 74.5 -61.5t31.5 -93.5q0 -53 -25.5 -93.5t-73.5 -87.5zM307 273q24 29 38 53t14 52q0 30 -16.5 49t-45.5 38l66 88q43 -22 74.5 -61.5t31.5 -93.5q0 -53 -25.5 -93.5t-73.5 -87.5z" />
    <glyph glyph-name="guilsinglleft.cap" horiz-adv-x="331" 
d="M72 313v22l132 198l71 -43l-83 -166l83 -166l-71 -43z" />
    <glyph glyph-name="guilsinglright.cap" horiz-adv-x="331" 
d="M56 158l83 166l-83 166l70 43l133 -198v-22l-133 -198z" />
    <glyph glyph-name="guilsinglleft.small" horiz-adv-x="331" 
d="M72 263v22l132 198l71 -43l-83 -166l83 -166l-71 -43z" />
    <glyph glyph-name="guilsinglright.small" horiz-adv-x="331" 
d="M56 108l83 166l-83 166l70 43l133 -198v-22l-133 -198z" />
    <glyph glyph-name="guillemotleft.cap" horiz-adv-x="570" 
d="M72 313v22l132 198l71 -43l-83 -166l83 -166l-71 -43zM312 313v22l132 198l71 -43l-83 -166l83 -166l-71 -43z" />
    <glyph glyph-name="guillemotright.cap" horiz-adv-x="570" 
d="M56 158l83 166l-83 166l70 43l133 -198v-22l-133 -198zM296 158l83 166l-83 166l70 43l133 -198v-22l-133 -198z" />
    <glyph glyph-name="guillemotleft.small" horiz-adv-x="570" 
d="M72 263v22l132 198l71 -43l-83 -166l83 -166l-71 -43zM312 263v22l132 198l71 -43l-83 -166l83 -166l-71 -43z" />
    <glyph glyph-name="guillemotright.small" horiz-adv-x="570" 
d="M56 108l83 166l-83 166l70 43l133 -198v-22l-133 -198zM296 108l83 166l-83 166l70 43l133 -198v-22l-133 -198z" />
    <glyph glyph-name="endash.cap" 
d="M56 372h468v-94h-468v94z" />
    <glyph glyph-name="endash.small" 
d="M56 321h468v-94h-468v94z" />
    <glyph glyph-name="emdash.cap" horiz-adv-x="693" 
d="M30 372h633v-94h-633v94z" />
    <glyph glyph-name="emdash.small" horiz-adv-x="693" 
d="M30 321h633v-94h-633v94z" />
    <glyph glyph-name="periodcentered.cap" horiz-adv-x="256" 
d="M128 250q-32 0 -53.5 21t-21.5 53q0 31 21.5 52t53.5 21t53.5 -21t21.5 -52q0 -32 -21.5 -53t-53.5 -21z" />
    <glyph glyph-name="periodcentered.small" horiz-adv-x="256" 
d="M128 199q-32 0 -53.5 21t-21.5 53q0 31 21.5 52t53.5 21t53.5 -21t21.5 -52q0 -32 -21.5 -53t-53.5 -21z" />
    <glyph glyph-name="parenleft.cap" horiz-adv-x="427" 
d="M343 -100q-51 33 -98.5 74.5t-85 93.5t-60 116t-22.5 141t22.5 141t60 116t85 93.5t98.5 74.5l53 -73q-42 -30 -79.5 -66t-65 -79.5t-43.5 -95t-16 -111.5t16 -111.5t43.5 -95t65 -79.5t79.5 -66z" />
    <glyph glyph-name="parenright.cap" horiz-adv-x="427" 
d="M31 -27q42 30 79 66t65 79.5t44 95t16 111.5t-16 111.5t-44 95t-65 79.5t-79 66l52 73q51 -33 99 -74.5t85.5 -93.5t60 -116t22.5 -141t-22.5 -141t-60 -116t-85.5 -93.5t-99 -74.5z" />
    <glyph glyph-name="parenleft.small" horiz-adv-x="376" 
d="M294 -85q-44 28 -85.5 63t-73.5 79t-51.5 98t-19.5 119t19.5 119t51.5 98t73.5 79t85.5 63l51 -71q-36 -25 -66.5 -54.5t-53.5 -65t-36 -77.5t-13 -91t13 -91t36 -78t53.5 -65.5t66.5 -54.5z" />
    <glyph glyph-name="parenright.small" horiz-adv-x="376" 
d="M31 -15q36 25 66.5 54.5t53.5 65.5t36 78t13 91t-13 91t-36 77.5t-53.5 65t-66.5 54.5l51 71q44 -28 85.5 -63t73.5 -79t51.5 -98t19.5 -119t-19.5 -119t-51.5 -98t-73.5 -79t-85.5 -63z" />
    <glyph glyph-name="bracketleft.cap" horiz-adv-x="415" 
d="M84 727h294v-84h-188v-636h188v-84h-294v804z" />
    <glyph glyph-name="bracketright.cap" horiz-adv-x="415" 
d="M37 7h188v636h-188v84h295v-804h-295v84z" />
    <glyph glyph-name="bracketleft.small" horiz-adv-x="380" 
d="M84 612h259v-81h-156v-515h156v-81h-259v677z" />
    <glyph glyph-name="bracketright.small" horiz-adv-x="380" 
d="M37 16h156v515h-156v81h259v-677h-259v81z" />
    <glyph glyph-name="braceleft.cap" horiz-adv-x="463" 
d="M39 370h27q63 0 85.5 26t22.5 88v50q0 44 13 80t40.5 61t70.5 38.5t104 13.5h24v-84h-16q-24 0 -47 -5t-41 -18.5t-29.5 -36.5t-11.5 -59v-49q0 -38 -7 -63.5t-19.5 -43t-31 -27.5t-41.5 -16q23 -6 41.5 -16t31 -27.5t19.5 -43t7 -63.5v-49q0 -36 11.5 -59t29.5 -36.5
t41 -18.5t47 -5h16v-84h-24q-61 0 -104 13.5t-70.5 38.5t-40.5 61t-13 80v50q0 62 -22.5 88t-85.5 26h-27v90z" />
    <glyph glyph-name="braceright.cap" horiz-adv-x="463" 
d="M37 7h16q24 0 47 5t41 18.5t29.5 36.5t11.5 59v49q0 38 7 63.5t20 43t31 27.5t41 16q-23 6 -41 16t-31 27.5t-20 43t-7 63.5v49q0 36 -11.5 59t-29.5 36.5t-41 18.5t-47 5h-16v84h24q61 0 104 -13.5t70.5 -38.5t40.5 -61t13 -80v-50q0 -62 22.5 -88t85.5 -26h27v-90h-27
q-63 0 -85.5 -26t-22.5 -88v-50q0 -89 -53.5 -141t-174.5 -52h-24v84z" />
    <glyph glyph-name="braceleft.small" horiz-adv-x="394" 
d="M24 316h24q27 0 44.5 4.5t28 15t14.5 28.5t4 44v42q0 37 11 67t35 51t61.5 32.5t90.5 11.5h22v-81h-14q-17 0 -35 -3.5t-33 -13t-24.5 -27.5t-9.5 -47v-41q0 -32 -6 -53.5t-17.5 -35.5t-27.5 -22t-35 -14q19 -6 35 -14t27.5 -22t17.5 -35.5t6 -53.5v-41q0 -29 9.5 -47
t24.5 -28t33 -13.5t35 -3.5h14v-81h-22q-53 0 -90.5 11.5t-61.5 32.5t-35 51t-11 67v42q0 53 -19 72.5t-72 19.5h-24v85z" />
    <glyph glyph-name="braceright.small" horiz-adv-x="394" 
d="M37 16h14q17 0 35.5 3.5t33.5 13.5t24.5 28t9.5 47v41q0 32 6 53.5t17 35.5t26.5 22t35.5 14q-20 6 -35.5 14t-26.5 22t-17 35.5t-6 53.5v41q0 29 -9.5 47t-24.5 27.5t-33.5 13t-35.5 3.5h-14v81h22q53 0 90.5 -11.5t61.5 -32.5t35 -51t11 -67v-42q0 -26 4 -44
t14.5 -28.5t28.5 -15t45 -4.5h23v-85h-23q-54 0 -73 -19.5t-19 -72.5v-42q0 -37 -11 -67t-35 -51t-61.5 -32.5t-90.5 -11.5h-22v81z" />
    <glyph glyph-name="at.cap" horiz-adv-x="974" 
d="M448 -57q-84 0 -150.5 25t-112.5 70.5t-70.5 108.5t-24.5 139q0 94 35.5 171t95.5 132.5t139 86t165 30.5q81 0 149 -23t117.5 -65t77.5 -101t28 -130q0 -66 -21.5 -114.5t-55.5 -80t-76.5 -47t-84.5 -15.5q-44 0 -71.5 14t-34.5 42q-23 -22 -56.5 -39t-77.5 -17
q-63 0 -101.5 41.5t-38.5 108.5q0 48 17 91t48 76t73 52.5t93 19.5q39 0 72.5 -12.5t58.5 -32.5l52 35h29l-68 -273q-3 -11 -3 -19q0 -26 35 -26q31 0 59 14.5t49 41t33 63.5t12 82q0 58 -23.5 106t-65.5 82.5t-99.5 53t-125.5 18.5q-75 0 -143 -26.5t-120 -75t-82.5 -116
t-30.5 -148.5q0 -66 20.5 -119.5t59.5 -91t95 -58t127 -20.5q63 0 117 16t97 45l30 -46q-51 -33 -113 -51t-134 -18zM459 224q14 0 29.5 4t30 12.5t25.5 20.5t15 28l23 91q3 13 -2.5 21.5t-15.5 13.5t-22.5 7.5t-23.5 2.5q-32 0 -56 -13t-39.5 -32.5t-23 -43.5t-7.5 -46
q0 -31 16 -48.5t51 -17.5z" />
    <glyph glyph-name="at.small" horiz-adv-x="864" 
d="M396 -48q-72 0 -129 21t-96 59t-60 91t-21 117q0 79 31 144.5t82.5 112t120 72.5t143.5 26q70 0 128.5 -19.5t101 -55t66.5 -85t24 -109.5q0 -57 -19 -98t-49 -67.5t-68 -39t-75 -12.5q-73 0 -89 46q-17 -17 -48.5 -31.5t-67.5 -14.5q-51 0 -84.5 35t-33.5 93
q0 39 14.5 75.5t41 64t63 44.5t80.5 17q32 0 60.5 -10t50.5 -27l48 28h28l-56 -220q-5 -20 -5 -27q0 -16 23 -16q28 0 52 12t41.5 33.5t27.5 52t10 66.5q0 48 -20 88t-55.5 68t-84 43.5t-106.5 15.5q-65 0 -123 -22.5t-101.5 -62.5t-69.5 -96t-26 -123q0 -111 67 -175
t188 -64q52 0 98.5 13.5t83.5 37.5l27 -44q-89 -57 -214 -57zM407 194q12 0 25.5 3.5t25.5 10t21.5 16.5t12.5 22l18 72q3 11 -1.5 18t-12.5 10.5t-18 5t-17 1.5q-27 0 -46.5 -10t-32.5 -26t-19.5 -35t-6.5 -37q0 -23 12 -37t39 -14z" />
    <glyph glyph-name="copyright.small" horiz-adv-x="782" 
d="M391 -15q-62 0 -115 22.5t-93 61.5t-62.5 91.5t-22.5 113.5q0 60 22.5 113t62.5 92t93 61.5t115 22.5q61 0 114.5 -22.5t93 -61.5t62 -92t22.5 -113q0 -61 -22.5 -113.5t-62 -91.5t-93 -61.5t-114.5 -22.5zM391 26q52 0 98 19.5t80 53t53.5 78.5t19.5 97t-19.5 97
t-53.5 78.5t-80 52.5t-98 19q-53 0 -98.5 -19t-79.5 -52.5t-53.5 -78.5t-19.5 -97t19.5 -97t53.5 -78.5t79.5 -53t98.5 -19.5zM403 115q-40 0 -72 12t-54.5 33t-34.5 50t-12 62q0 35 12.5 64.5t35 50.5t54.5 33t71 12q54 0 101 -20v-89q-25 11 -45.5 17t-46.5 6
q-44 0 -63.5 -20.5t-19.5 -51.5q0 -32 19.5 -52t66.5 -20q26 0 46.5 5t43.5 16v-88q-48 -20 -102 -20z" />
    <glyph glyph-name="uni2117.small" horiz-adv-x="782" 
d="M391 -15q-62 0 -115 22.5t-93 61.5t-62.5 91.5t-22.5 113.5q0 60 22.5 113t62.5 92t93 61.5t115 22.5q61 0 114.5 -22.5t93 -61.5t62 -92t22.5 -113q0 -61 -22.5 -113.5t-62 -91.5t-93 -61.5t-114.5 -22.5zM391 26q52 0 98 19.5t80 53t53.5 78.5t19.5 97t-19.5 97
t-53.5 78.5t-80 52.5t-98 19q-53 0 -98.5 -19t-79.5 -52.5t-53.5 -78.5t-19.5 -97t19.5 -97t53.5 -78.5t79.5 -53t98.5 -19.5zM283 430h122q63 0 99.5 -29.5t36.5 -80.5q0 -50 -36 -78t-99 -28h-34v-93h-89v309zM412 286q20 0 29.5 9.5t9.5 24.5q0 16 -9.5 25.5t-29.5 9.5
h-41v-69h41z" />
    <glyph glyph-name="afii61352.small" horiz-adv-x="1006" 
d="M78 548h108l250 -312v312h118v-554h-49l-309 375v-369h-118v548zM658 217h297v-71h-297v71zM806 268q-34 0 -62 10.5t-48.5 29.5t-31.5 45t-11 58t11 58.5t31.5 45.5t48.5 29.5t62 10.5t62.5 -10.5t49 -29.5t31.5 -45.5t11 -58.5t-11 -58t-31.5 -45t-49 -29.5
t-62.5 -10.5zM806 339q31 0 49 20.5t18 51.5q0 32 -18 52.5t-49 20.5q-30 0 -48 -20.5t-18 -52.5q0 -31 18 -51.5t48 -20.5z" />
    <glyph glyph-name="Euro.LT" horiz-adv-x="581" 
d="M25 291h82q-1 17 -1 34.5t2 36.5h-83v77h92q9 47 28 87.5t48.5 70t71 46t96.5 16.5q67 0 113.5 -25t80.5 -65l-76 -71q-20 23 -46.5 41t-69.5 18q-60 0 -90 -34t-41 -84h184v-77h-194q-2 -16 -2 -35t2 -36h194v-77h-184q6 -27 16.5 -49t27.5 -38t41.5 -25t58.5 -9
q41 0 67.5 16.5t46.5 39.5l75 -71q-34 -41 -81.5 -64t-113.5 -23q-59 0 -102.5 17t-74.5 47t-49.5 70.5t-27.5 88.5h-91v77z" />
    <glyph glyph-name="dollar.LT" horiz-adv-x="581" 
d="M264 7q-84 3 -137.5 26.5t-86.5 54.5l63 78q27 -24 66.5 -41.5t95.5 -19.5v183q-44 9 -81.5 24t-65.5 36.5t-43.5 52t-15.5 71.5q0 76 55.5 120.5t149.5 50.5v61h65v-62q63 -6 110 -28t76 -50l-63 -78q-25 21 -54.5 37t-68.5 21v-164q40 -8 78 -21.5t67 -35.5t47 -54.5
t18 -77.5q0 -39 -15 -70.5t-42.5 -54.5t-66.5 -37.5t-86 -18.5v-85h-65v82zM329 106q46 5 73.5 25.5t27.5 57.5q0 35 -26.5 55t-74.5 31v-169zM265 546q-48 -3 -72.5 -22.5t-24.5 -48.5t21.5 -48t75.5 -33v152z" />
    <glyph glyph-name="sterling.LT" horiz-adv-x="581" 
d="M129 263h-76v96h94l27 136q15 76 62 120t128 44q116 0 182 -96l-81 -62q-17 24 -39.5 40t-54.5 16t-54 -19.5t-31 -67.5l-23 -111h143v-96h-161l-34 -167h313v-96h-447z" />
    <glyph glyph-name="yen.LT" horiz-adv-x="581" 
d="M77 177h157v74h-157v80h137l-194 319h129l142 -256l143 256h127l-194 -319h137v-80h-157v-74h157v-81h-157v-96h-113v96h-157v81z" />
    <glyph glyph-name="zero.LT" horiz-adv-x="581" 
d="M290 91q33 0 56.5 11.5t38.5 38.5t22.5 72t7.5 112t-7.5 112t-22.5 72t-38.5 38.5t-56.5 11.5q-32 0 -55.5 -11.5t-38.5 -38.5t-22.5 -72t-7.5 -112t7.5 -112t22.5 -72t38.5 -38.5t55.5 -11.5zM290 -9q-57 0 -102.5 18.5t-77 59t-48 103.5t-16.5 153t16.5 153t48 103.5
t77 59t102.5 18.5q58 0 103.5 -18.5t77 -59t48 -103.5t16.5 -153t-16.5 -153t-48 -103.5t-77 -59t-103.5 -18.5z" />
    <glyph glyph-name="one.LT" horiz-adv-x="581" 
d="M88 101h170v445h-175v104h291v-549h155v-101h-441v101z" />
    <glyph glyph-name="two.LT" horiz-adv-x="581" 
d="M70 37q58 51 114.5 103.5t101 105t72 104.5t27.5 102q0 51 -31.5 76.5t-79.5 25.5q-49 0 -85.5 -24t-60.5 -64l-78 67q14 25 36 47.5t51 40t65 28t78 10.5q55 0 98 -15.5t71.5 -42t43.5 -62.5t15 -77q0 -50 -20.5 -98.5t-54 -94.5t-75 -88t-83.5 -79h244v-102h-449v37z
" />
    <glyph glyph-name="three.LT" horiz-adv-x="581" 
d="M96 145q26 -26 65.5 -40.5t90.5 -14.5q64 0 103.5 22.5t39.5 73.5q0 55 -53 80t-154 23v89q98 -2 146.5 27t48.5 75q0 40 -31.5 59.5t-85.5 19.5q-48 0 -86.5 -15.5t-70.5 -42.5l-60 77q40 37 95.5 59t132.5 22q48 0 89.5 -11t72 -32.5t48 -52.5t17.5 -71q0 -62 -36 -98
t-91 -56q67 -15 103 -56.5t36 -100.5q0 -41 -18.5 -76t-52.5 -60.5t-81 -39.5t-105 -14q-77 0 -130 20.5t-87 53.5z" />
    <glyph glyph-name="four.LT" horiz-adv-x="581" 
d="M15 203l347 450h96v-387h105v-94h-105v-172h-115v172h-328v31zM344 265v222l-175 -222h175z" />
    <glyph glyph-name="five.LT" horiz-adv-x="581" 
d="M92 146q25 -25 65 -40t90 -15q66 0 105.5 30.5t39.5 76.5q0 66 -71 92.5t-225 29.5l90 330h338v-103h-255l-41 -145q138 -9 211.5 -58.5t73.5 -148.5q0 -45 -19.5 -82.5t-54 -64.5t-82.5 -42t-105 -15q-70 0 -125 21t-89 53z" />
    <glyph glyph-name="six.LT" horiz-adv-x="581" 
d="M294 88q30 0 53 10.5t39 28t24.5 40.5t8.5 48q0 54 -31.5 85.5t-97.5 31.5q-23 0 -45.5 -4t-40 -14.5t-28 -29.5t-10.5 -49q0 -75 35 -111t93 -36zM292 -9q-57 0 -102.5 17.5t-77.5 51.5t-49.5 82.5t-17.5 110.5q0 68 24 128.5t67.5 112.5t105 93.5t136.5 71.5l48 -94
q-81 -35 -138 -75.5t-94 -97.5q22 15 55 24.5t73 9.5q48 0 88 -15t69 -42t45.5 -65t16.5 -85q0 -50 -18.5 -92t-52 -72t-79 -47t-99.5 -17z" />
    <glyph glyph-name="seven.LT" horiz-adv-x="581" 
d="M394 546h-346v104h510v-27l-318 -623h-125z" />
    <glyph glyph-name="eight.LT" horiz-adv-x="581" 
d="M285 -9q-50 0 -93 12.5t-74.5 36t-49.5 57t-18 75.5q0 30 10.5 54.5t28 44.5t41 35t49.5 26q-25 12 -46.5 27t-37.5 34.5t-25.5 43.5t-9.5 54q0 37 16 68t45.5 53t71.5 34.5t95 12.5t96 -12t73.5 -34.5t47 -54t16.5 -70.5q0 -27 -9.5 -49t-25.5 -40t-37 -32.5t-44 -25.5
q25 -12 48 -27t40.5 -34.5t27.5 -44t10 -55.5q0 -47 -19.5 -82t-53.5 -59t-78.5 -36t-94.5 -12zM290 86q51 0 86 21.5t35 68.5q0 21 -10.5 37.5t-28 30t-41 24t-49.5 21.5q-23 -10 -44 -20.5t-36.5 -24t-24.5 -30t-9 -37.5q0 -23 10 -40t26.5 -28t38.5 -17t47 -6zM302 384
q20 9 38.5 18t32.5 20.5t22 26.5t8 35q0 42 -31.5 61.5t-82.5 19.5q-50 0 -79.5 -19t-29.5 -55q0 -20 10 -35.5t26.5 -28t38.5 -23t47 -20.5z" />
    <glyph glyph-name="nine.LT" horiz-adv-x="581" 
d="M290 318q23 0 45.5 4t40 14.5t28 29.5t10.5 49q0 75 -35.5 111t-92.5 36q-30 0 -53.5 -10.5t-39 -28t-24 -40.5t-8.5 -48q0 -54 31.5 -85.5t97.5 -31.5zM155 84q81 35 139 76t95 99q-23 -16 -56.5 -25.5t-74.5 -9.5q-48 0 -88 15t-69 42t-45.5 65t-16.5 85q0 50 18.5 92
t52 72t79 47t99.5 17q57 0 102.5 -17.5t77.5 -51.5t49.5 -82.5t17.5 -110.5q0 -68 -24 -128.5t-67.5 -112.5t-105 -93.5t-136.5 -71.5z" />
    <glyph glyph-name="Euro.OP" horiz-adv-x="612" 
d="M30 291h77q-3 33 0 71h-77v77h88q11 47 32 87.5t53 70t75.5 46t98.5 16.5q67 0 115.5 -25t81.5 -65l-76 -71q-20 23 -48.5 41t-72.5 18q-60 0 -93.5 -33.5t-47.5 -84.5h192v-77h-205q-4 -34 0 -71h205v-77h-192q14 -53 50 -87t104 -34q42 0 70.5 16.5t48.5 39.5l76 -71
q-35 -41 -84.5 -64t-115.5 -23q-59 0 -104 17t-78 47t-54.5 70.5t-31.5 88.5h-87v77z" />
    <glyph glyph-name="dollar.OP" horiz-adv-x="566" 
d="M254 7q-84 3 -138 26.5t-87 54.5l63 78q27 -25 66 -42t96 -19v182q-44 9 -81.5 24t-65.5 37t-43.5 52.5t-15.5 71.5q0 76 56 120.5t150 50.5v61h65v-62q63 -6 110 -28t76 -50l-63 -78q-25 21 -54.5 37t-69.5 21v-163q40 -9 78.5 -22.5t68 -35.5t47.5 -54t18 -78
q0 -39 -15.5 -70.5t-43 -54.5t-66.5 -37.5t-86 -18.5v-85h-65v82zM318 106q47 5 75 25.5t28 57.5q0 35 -27 55t-76 31v-169zM254 546q-48 -3 -72.5 -22.5t-24.5 -48.5t21.5 -48.5t75.5 -32.5v152z" />
    <glyph glyph-name="sterling.OP" horiz-adv-x="541" 
d="M110 263h-69v96h88l28 139q15 75 59.5 118t122.5 43q59 0 101.5 -24.5t74.5 -71.5l-81 -62q-17 24 -37 40t-51 16q-32 0 -51 -19.5t-28 -64.5l-22 -114h133v-96h-152l-33 -167h302v-96h-437z" />
    <glyph glyph-name="yen.OP" horiz-adv-x="601" 
d="M81 177h163v74h-163v80h143l-204 319h129l152 -256l154 256h127l-204 -319h142v-80h-163v-74h163v-81h-163v-96h-113v96h-163v81z" />
    <glyph glyph-name="zero.OP" horiz-adv-x="602" 
d="M301 90q31 0 55 11.5t40 32t24 48t8 60.5q0 66 -32 109t-95 43q-32 0 -56 -11.5t-40 -32t-24 -48t-8 -60.5q0 -66 32 -109t96 -43zM301 -9q-57 0 -103 19t-78 52.5t-49.5 79.5t-17.5 100t17.5 99.5t49.5 79.5t78 53t103 19t102.5 -19t78 -53t49.5 -79.5t17 -99.5
t-17.5 -99.5t-49.5 -79.5t-77.5 -53t-102.5 -19z" />
    <glyph glyph-name="one.OP" horiz-adv-x="416" 
d="M199 380h-157v104h274v-484h-117v380z" />
    <glyph glyph-name="two.OP" horiz-adv-x="536" 
d="M55 39q72 43 127.5 78.5t93.5 67t57.5 62t19.5 63.5q0 39 -27 59t-74 20q-53 0 -88 -19t-64 -54l-72 73q18 22 40 41t50 33t62.5 22t77.5 8q52 0 92.5 -13t68.5 -35t42 -52.5t14 -64.5q0 -36 -14 -67t-38.5 -59t-58 -53t-71.5 -49h200v-100h-438v39z" />
    <glyph glyph-name="three.OP" horiz-adv-x="514" 
d="M69 -21q53 -55 147 -55q56 0 92.5 23.5t36.5 70.5q0 53 -47 79.5t-140 24.5v90q86 -2 130.5 27t44.5 75q0 35 -27.5 57t-77.5 22q-45 0 -81 -15.5t-65 -42.5l-60 77q41 37 93.5 59t121.5 22q46 0 86 -11.5t69.5 -33.5t46 -52.5t16.5 -69.5q0 -32 -9.5 -56.5t-26.5 -43.5
t-40 -32t-50 -22q64 -14 100.5 -55t36.5 -104q0 -38 -16.5 -72.5t-47.5 -60t-76 -40.5t-102 -15q-74 0 -124.5 20t-84.5 54z" />
    <glyph glyph-name="four.OP" horiz-adv-x="619" 
d="M374 100v219l-193 -219h193zM15 40l387 447h86v-386h119v-91h-119v-176h-115v176h-358v30z" />
    <glyph glyph-name="five.OP" horiz-adv-x="524" 
d="M59 -20q25 -26 61 -40.5t82 -14.5q64 0 99.5 31t35.5 76q0 30 -14.5 52t-46.5 37t-84 23.5t-128 10.5l88 329h324v-103h-240l-41 -146q133 -11 198.5 -61.5t65.5 -144.5q0 -43 -17.5 -80.5t-50 -65t-78.5 -43t-103 -15.5q-71 0 -121.5 20t-83.5 54z" />
    <glyph glyph-name="six.OP" horiz-adv-x="595" 
d="M303 88q31 0 55 10.5t40.5 28t25 40.5t8.5 48q0 54 -32.5 85.5t-101.5 31.5q-24 0 -47 -4t-41 -14.5t-28.5 -29.5t-10.5 -49q0 -75 35.5 -111t96.5 -36zM301 -9q-58 0 -104.5 17.5t-79 51t-50 81.5t-17.5 109q0 69 24.5 130.5t68.5 113t106.5 93.5t138.5 72l47 -94
q-79 -35 -138 -75.5t-97 -97.5q22 15 55.5 24.5t75.5 9.5q49 0 90 -15t70.5 -42t46 -65.5t16.5 -84.5q0 -50 -19 -92t-52.5 -72t-80 -47t-101.5 -17z" />
    <glyph glyph-name="seven.OP" horiz-adv-x="507" 
d="M338 380h-327v104h491v-27l-315 -623h-125z" />
    </font>
</defs>
</svg>
